<svg xmlns="http://www.w3.org/2000/svg" width="960" height="420" viewBox="0 0 960 420">
  <rect width="100%" height="100%" fill="#ffffff" />
  <text x="72" y="28" font-size="22" font-weight="700" fill="#17202a">Per-step Reward (all episodes)</text>
  <line x1="72" y1="348.00" x2="902" y2="348.00" stroke="#e7eaf0" stroke-width="1" /><text x="60" y="352.00" text-anchor="end" font-size="12" fill="#526071">-11.75</text><line x1="72" y1="288.00" x2="902" y2="288.00" stroke="#e7eaf0" stroke-width="1" /><text x="60" y="292.00" text-anchor="end" font-size="12" fill="#526071">-8.99</text><line x1="72" y1="228.00" x2="902" y2="228.00" stroke="#e7eaf0" stroke-width="1" /><text x="60" y="232.00" text-anchor="end" font-size="12" fill="#526071">-6.23</text><line x1="72" y1="168.00" x2="902" y2="168.00" stroke="#e7eaf0" stroke-width="1" /><text x="60" y="172.00" text-anchor="end" font-size="12" fill="#526071">-3.47</text><line x1="72" y1="108.00" x2="902" y2="108.00" stroke="#e7eaf0" stroke-width="1" /><text x="60" y="112.00" text-anchor="end" font-size="12" fill="#526071">-0.71</text><line x1="72" y1="48.00" x2="902" y2="48.00" stroke="#e7eaf0" stroke-width="1" /><text x="60" y="52.00" text-anchor="end" font-size="12" fill="#526071">2.05</text>
  <line x1="72" y1="48" x2="72" y2="348" stroke="#2f3a45" stroke-width="1.4" />
  <line x1="72" y1="348" x2="902" y2="348" stroke="#2f3a45" stroke-width="1.4" />
  <text x="487.0" y="392" text-anchor="middle" font-size="14" fill="#344052">Step index</text>
  <text x="18" y="198.0" text-anchor="middle" font-size="14" fill="#344052" transform="rotate(-90 18 198.0)">Reward</text>
  <text x="72" y="370" text-anchor="middle" font-size="12" fill="#526071">-46</text>
  <text x="902" y="370" text-anchor="middle" font-size="12" fill="#526071">639</text>
  <polyline points="129.24,93.68 130.45,98.03 131.66,98.03 132.87,93.68 134.08,100.20 135.29,91.51 136.51,104.55 137.72,98.03 138.93,91.51 140.14,93.68 141.35,98.03 142.56,98.03 143.77,92.60 144.98,93.68 146.19,91.51 147.40,98.03 148.61,93.68 149.82,91.51 151.03,98.03 152.24,95.86 153.46,95.86 154.67,91.51 155.88,98.03 157.09,93.68 158.30,95.86 159.51,92.60 160.72,95.86 161.93,84.99 163.14,92.60 164.35,98.03 165.56,93.68 166.77,91.51 167.98,91.51 169.19,92.60 170.40,91.51 171.62,92.60 172.83,95.86 174.04,98.03 175.25,98.03 176.46,98.03 177.67,92.60 178.88,92.60 180.09,98.03 181.30,91.51 182.51,92.60 183.72,98.03 184.93,98.03 186.14,312.10 187.35,89.34 188.57,92.60 189.78,100.20 190.99,93.68 192.20,91.51 193.41,92.60 194.62,93.68 195.83,93.68 197.04,100.20 198.25,95.86 199.46,98.03 200.67,91.51 201.88,91.51 203.09,98.03 204.30,98.03 205.51,92.60 206.73,95.86 207.94,95.86 209.15,92.60 210.36,104.55 211.57,100.20 212.78,93.68 213.99,104.55 215.20,91.51 216.41,92.60 217.62,91.51 218.83,92.60 220.04,98.03 221.25,92.60 222.46,98.03 223.68,100.20 224.89,98.03 226.10,91.51 227.31,98.03 228.52,98.03 229.73,98.03 230.94,91.51 232.15,91.51 233.36,91.51 234.57,114.33 235.78,103.46 236.99,102.38 238.20,102.38 239.41,103.46 240.62,101.29 241.84,109.98 243.05,102.38 244.26,109.98 245.47,102.38 246.68,318.62 247.89,95.86 249.10,92.60 250.31,98.03 251.52,92.60 252.73,91.51 253.94,92.60 255.15,98.03 256.36,87.16 257.57,98.03 258.79,104.55 260.00,104.55 261.21,87.16 262.42,92.60 263.63,87.16 264.84,98.03 266.05,92.60 267.26,82.82 268.47,92.60 269.68,100.20 270.89,87.16 272.10,87.16 273.31,92.60 274.52,91.51 275.73,92.60 276.95,98.03 278.16,87.16 279.37,98.03 280.58,98.03 281.79,92.60 283.00,92.60 284.21,91.51 285.42,92.60 286.63,91.51 287.84,92.60 289.05,91.51 290.26,92.60 291.47,93.68 292.68,92.60 293.90,91.51 295.11,92.60 296.32,92.60 297.53,100.20 298.74,71.95 299.95,93.68 301.16,93.68 302.37,98.03 303.58,91.51 304.79,92.60 306.00,91.51 307.21,315.36 308.42,93.68 309.63,92.60 310.84,104.55 312.06,100.20 313.27,93.68 314.48,87.16 315.69,93.68 316.90,92.60 318.11,93.68 319.32,92.60 320.53,98.03 321.74,98.03 322.95,92.60 324.16,92.60 325.37,93.68 326.58,93.68 327.79,87.16 329.01,95.86 330.22,93.68 331.43,92.60 332.64,100.20 333.85,98.03 335.06,104.55 336.27,98.03 337.48,98.03 338.69,98.03 339.90,92.60 341.11,92.60 342.32,98.03 343.53,92.60 344.74,104.55 345.95,92.60 347.17,91.51 348.38,98.03 349.59,98.03 350.80,84.99 352.01,91.51 353.22,92.60 354.43,100.20 355.64,92.60 356.85,98.03 358.06,98.03 359.27,92.60 360.48,100.20 361.69,98.03 362.90,98.03 364.12,92.60 365.33,91.51 366.54,98.03 367.75,316.44 368.96,93.68 370.17,95.86 371.38,91.51 372.59,95.86 373.80,93.68 375.01,98.03 376.22,95.86 377.43,87.16 378.64,104.55 379.85,91.51 381.06,98.03 382.28,98.03 383.49,91.51 384.70,92.60 385.91,95.86 387.12,92.60 388.33,104.55 389.54,98.03 390.75,91.51 391.96,93.68 393.17,74.12 394.38,92.60 395.59,98.03 396.80,92.60 398.01,91.51 399.23,92.60 400.44,92.60 401.65,71.95 402.86,98.03 404.07,98.03 405.28,92.60 406.49,98.03 407.70,92.60 408.91,93.68 410.12,98.03 411.33,103.46 412.54,101.29 413.75,103.46 414.96,109.98 416.17,102.38 417.39,102.38 418.60,109.98 419.81,109.98 421.02,101.29 422.23,103.46 423.44,102.38 424.65,109.98 425.86,102.38 427.07,107.81 428.28,320.79 429.49,98.03 430.70,92.60 431.91,98.03 433.12,89.34 434.34,91.51 435.55,95.86 436.76,93.68 437.97,98.03 439.18,98.03 440.39,100.20 441.60,93.68 442.81,107.81 444.02,101.29 445.23,107.81 446.44,102.38 447.65,103.46 448.86,101.29 450.07,103.46 451.28,92.60 452.50,103.46 453.71,103.46 454.92,105.64 456.13,102.38 457.34,101.29 458.55,107.81 459.76,105.64 460.97,92.60 462.18,102.38 463.39,105.64 464.60,107.81 465.81,109.98 467.02,101.29 468.23,103.46 469.45,101.29 470.66,109.98 471.87,103.46 473.08,101.29 474.29,101.29 475.50,107.81 476.71,103.46 477.92,102.38 479.13,101.29 480.34,92.60 481.55,107.81 482.76,109.98 483.97,102.38 485.18,109.98 486.39,109.98 487.61,103.46 488.82,325.14 490.03,91.51 491.24,98.03 492.45,87.16 493.66,92.60 494.87,87.16 496.08,92.60 497.29,93.68 498.50,82.82 499.71,100.20 500.92,98.03 502.13,87.16 503.34,93.68 504.55,92.60 505.77,104.55 506.98,91.51 508.19,93.68 509.40,98.03 510.61,104.55 511.82,100.20 513.03,92.60 514.24,98.03 515.45,95.86 516.66,91.51 517.87,104.55 519.08,92.60 520.29,98.03 521.50,104.55 522.72,91.51 523.93,98.03 525.14,98.03 526.35,93.68 527.56,92.60 528.77,98.03 529.98,91.51 531.19,87.16 532.40,92.60 533.61,93.68 534.82,92.60 536.03,98.03 537.24,100.20 538.45,100.20 539.66,91.51 540.88,92.60 542.09,92.60 543.30,95.86 544.51,98.03 545.72,98.03 546.93,91.51 548.14,93.68 549.35,308.84 550.56,92.60 551.77,95.86 552.98,87.16 554.19,92.60 555.40,100.20 556.61,91.51 557.83,92.60 559.04,100.20 560.25,95.86 561.46,95.86 562.67,98.03 563.88,98.03 565.09,93.68 566.30,95.86 567.51,91.51 568.72,92.60 569.93,87.16 571.14,95.86 572.35,95.86 573.56,93.68 574.77,91.51 575.99,98.03 577.20,98.03 578.41,98.03 579.62,98.03 580.83,91.51 582.04,98.03 583.25,95.86 584.46,98.03 585.67,98.03 586.88,98.03 588.09,92.60 589.30,92.60 590.51,93.68 591.72,98.03 592.94,104.55 594.15,91.51 595.36,95.86 596.57,98.03 597.78,91.51 598.99,98.03 600.20,91.51 601.41,98.03 602.62,101.29 603.83,103.46 605.04,102.38 606.25,107.81 607.46,102.38 608.67,102.38 609.88,325.14 611.10,95.86 612.31,104.55 613.52,93.68 614.73,95.86 615.94,93.68 617.15,95.86 618.36,98.03 619.57,98.03 620.78,98.03 621.99,92.60 623.20,93.68 624.41,95.86 625.62,93.68 626.83,95.86 628.05,92.60 629.26,91.51 630.47,93.68 631.68,91.51 632.89,91.51 634.10,91.51 635.31,87.16 636.52,98.03 637.73,100.20 638.94,104.55 640.15,93.68 641.36,93.68 642.57,98.03 643.78,92.60 644.99,93.68 646.21,91.51 647.42,92.60 648.63,95.86 649.84,100.20 651.05,95.86 652.26,104.55 653.47,98.03 654.68,71.95 655.89,91.51 657.10,93.68 658.31,100.20 659.52,93.68 660.73,91.51 661.94,92.60 663.16,100.20 664.37,92.60 665.58,92.60 666.79,91.51 668.00,93.68 669.21,93.68 670.42,304.49 671.63,93.68 672.84,92.60 674.05,93.68 675.26,95.86 676.47,92.60 677.68,92.60 678.89,100.20 680.10,93.68 681.32,84.99 682.53,92.60 683.74,98.03 684.95,98.03 686.16,98.03 687.37,93.68 688.58,93.68 689.79,91.51 691.00,100.20 692.21,92.60 693.42,92.60 694.63,92.60 695.84,93.68 697.05,98.03 698.27,93.68 699.48,93.68 700.69,98.03 701.90,93.68 703.11,98.03 704.32,100.20 705.53,92.60 706.74,104.55 707.95,95.86 709.16,95.86 710.37,93.68 711.58,93.68 712.79,98.03 714.00,104.55 715.21,95.86 716.43,93.68 717.64,93.68 718.85,93.68 720.06,98.03 721.27,100.20 722.48,98.03 723.69,309.92 724.90,84.99 726.11,92.60 727.32,98.03 728.53,91.51 729.74,93.68 730.95,93.68 732.16,91.51 733.38,91.51 734.59,93.68 735.80,100.20 737.01,92.60 738.22,87.16 739.43,98.03 740.64,89.34 741.85,103.46 743.06,107.81 744.27,105.64 745.48,102.38 746.69,101.29 747.90,103.46 749.11,101.29 750.32,103.46 751.54,101.29 752.75,103.46 753.96,107.81 755.17,102.38 756.38,96.94 757.59,107.81 758.80,94.77 760.01,103.46 761.22,102.38 762.43,107.81 763.64,103.46 764.85,102.38 766.06,92.60 767.27,109.98 768.49,101.29 769.70,103.46 770.91,101.29 772.12,105.64 773.33,101.29 774.54,103.46 775.75,105.64 776.96,103.46 778.17,107.81 779.38,92.60 780.59,101.29 781.80,101.29 783.01,99.12 784.22,320.79 785.43,91.51 786.65,104.55 787.86,92.60 789.07,92.60 790.28,93.68 791.49,91.51 792.70,95.86 793.91,98.03 795.12,98.03 796.33,98.03 797.54,91.51 798.75,93.68 799.96,68.69 801.17,92.60 802.38,89.34 803.60,92.60 804.81,98.03 806.02,91.51 807.23,95.86 808.44,98.03 809.65,93.68 810.86,100.20 812.07,98.03 813.28,95.86 814.49,93.68 815.70,91.51 816.91,95.86 818.12,92.60 819.33,100.20 820.54,92.60 821.76,92.60 822.97,92.60 824.18,98.03 825.39,98.03 826.60,92.60 827.81,102.38 829.02,102.38 830.23,109.98 831.44,109.98 832.65,101.29 833.86,102.38 835.07,103.46 836.28,101.29 837.49,102.38 838.71,105.64 839.92,103.46 841.13,107.81 842.34,105.64 843.55,102.38 844.76,327.31" fill="none" stroke="#2f6fed" stroke-width="2.5" stroke-linejoin="round" stroke-linecap="round" />
  <line x1="738" y1="68" x2="774" y2="68" stroke="#2f6fed" stroke-width="3" /><text x="782" y="72" font-size="13" fill="#263241">step reward</text>
</svg>
