<svg xmlns="http://www.w3.org/2000/svg" width="960" height="420" viewBox="0 0 960 420">
  <rect width="100%" height="100%" fill="#ffffff" />
  <text x="72" y="28" font-size="22" font-weight="700" fill="#17202a">Episode Length</text>
  <line x1="72" y1="348.00" x2="902" y2="348.00" stroke="#e7eaf0" stroke-width="1" /><text x="60" y="352.00" text-anchor="end" font-size="12" fill="#526071">10.04</text><line x1="72" y1="288.00" x2="902" y2="288.00" stroke="#e7eaf0" stroke-width="1" /><text x="60" y="292.00" text-anchor="end" font-size="12" fill="#526071">18.62</text><line x1="72" y1="228.00" x2="902" y2="228.00" stroke="#e7eaf0" stroke-width="1" /><text x="60" y="232.00" text-anchor="end" font-size="12" fill="#526071">27.21</text><line x1="72" y1="168.00" x2="902" y2="168.00" stroke="#e7eaf0" stroke-width="1" /><text x="60" y="172.00" text-anchor="end" font-size="12" fill="#526071">35.79</text><line x1="72" y1="108.00" x2="902" y2="108.00" stroke="#e7eaf0" stroke-width="1" /><text x="60" y="112.00" text-anchor="end" font-size="12" fill="#526071">44.38</text><line x1="72" y1="48.00" x2="902" y2="48.00" stroke="#e7eaf0" stroke-width="1" /><text x="60" y="52.00" text-anchor="end" font-size="12" fill="#526071">52.96</text>
  <line x1="72" y1="48" x2="72" y2="348" stroke="#2f3a45" stroke-width="1.4" />
  <line x1="72" y1="348" x2="902" y2="348" stroke="#2f3a45" stroke-width="1.4" />
  <text x="487.0" y="392" text-anchor="middle" font-size="14" fill="#344052">Episode</text>
  <text x="18" y="198.0" text-anchor="middle" font-size="14" fill="#344052" transform="rotate(-90 18 198.0)">Steps</text>
  <text x="72" y="370" text-anchor="middle" font-size="12" fill="#526071">-9</text>
  <text x="902" y="370" text-anchor="middle" font-size="12" fill="#526071">130</text>
  <polyline points="129.24,208.48 135.25,208.48 141.27,68.69 147.28,68.69 153.29,68.69 159.31,68.69 165.32,68.69 171.33,68.69 177.34,68.69 183.36,194.51 189.37,68.69 195.38,68.69 201.39,68.69 207.41,68.69 213.42,68.69 219.43,208.48 225.45,68.69 231.46,68.69 237.47,68.69 243.48,68.69 249.50,124.61 255.51,68.69 261.52,208.48 267.53,103.64 273.55,68.69 279.56,68.69 285.57,68.69 291.59,68.69 297.60,68.69 303.61,68.69 309.62,68.69 315.64,68.69 321.65,68.69 327.66,68.69 333.67,68.69 339.69,68.69 345.70,68.69 351.71,68.69 357.73,208.48 363.74,75.68 369.75,68.69 375.76,68.69 381.78,285.37 387.79,68.69 393.80,194.51 399.82,68.69 405.83,166.55 411.84,208.48 417.85,68.69 423.87,103.64 429.88,236.44 435.89,68.69 441.90,208.48 447.92,68.69 453.93,68.69 459.94,68.69 465.96,208.48 471.97,68.69 477.98,68.69 483.99,68.69 490.01,68.69 496.02,68.69 502.03,68.69 508.04,306.34 514.06,68.69 520.07,68.69 526.08,68.69 532.10,68.69 538.11,110.63 544.12,68.69 550.13,68.69 556.15,68.69 562.16,327.31 568.17,68.69 574.18,68.69 580.20,68.69 586.21,68.69 592.22,68.69 598.24,68.69 604.25,68.69 610.26,68.69 616.27,68.69 622.29,222.46 628.30,68.69 634.31,68.69 640.33,68.69 646.34,68.69 652.35,68.69 658.36,68.69 664.38,68.69 670.39,68.69 676.40,68.69 682.41,103.64 688.43,173.54 694.44,68.69 700.45,68.69 706.47,68.69 712.48,68.69 718.49,68.69 724.50,68.69 730.52,278.38 736.53,68.69 742.54,68.69 748.55,68.69 754.57,68.69 760.58,68.69 766.59,68.69 772.61,68.69 778.62,68.69 784.63,68.69 790.64,68.69 796.66,68.69 802.67,68.69 808.68,68.69 814.69,68.69 820.71,68.69 826.72,68.69 832.73,68.69 838.75,68.69 844.76,68.69" fill="none" stroke="#c67a00" stroke-width="2.5" stroke-linejoin="round" stroke-linecap="round" />
  <line x1="738" y1="68" x2="774" y2="68" stroke="#c67a00" stroke-width="3" /><text x="782" y="72" font-size="13" fill="#263241">steps</text>
</svg>
