<svg xmlns="http://www.w3.org/2000/svg" width="960" height="420" viewBox="0 0 960 420">
  <rect width="100%" height="100%" fill="#ffffff" />
  <text x="72" y="28" font-size="22" font-weight="700" fill="#17202a">Training Loss</text>
  <line x1="72" y1="348.00" x2="902" y2="348.00" stroke="#e7eaf0" stroke-width="1" /><text x="60" y="352.00" text-anchor="end" font-size="12" fill="#526071">0.04</text><line x1="72" y1="288.00" x2="902" y2="288.00" stroke="#e7eaf0" stroke-width="1" /><text x="60" y="292.00" text-anchor="end" font-size="12" fill="#526071">0.77</text><line x1="72" y1="228.00" x2="902" y2="228.00" stroke="#e7eaf0" stroke-width="1" /><text x="60" y="232.00" text-anchor="end" font-size="12" fill="#526071">1.51</text><line x1="72" y1="168.00" x2="902" y2="168.00" stroke="#e7eaf0" stroke-width="1" /><text x="60" y="172.00" text-anchor="end" font-size="12" fill="#526071">2.25</text><line x1="72" y1="108.00" x2="902" y2="108.00" stroke="#e7eaf0" stroke-width="1" /><text x="60" y="112.00" text-anchor="end" font-size="12" fill="#526071">2.99</text><line x1="72" y1="48.00" x2="902" y2="48.00" stroke="#e7eaf0" stroke-width="1" /><text x="60" y="52.00" text-anchor="end" font-size="12" fill="#526071">3.73</text>
  <line x1="72" y1="48" x2="72" y2="348" stroke="#2f3a45" stroke-width="1.4" />
  <line x1="72" y1="348" x2="902" y2="348" stroke="#2f3a45" stroke-width="1.4" />
  <text x="487.0" y="392" text-anchor="middle" font-size="14" fill="#344052">Episode</text>
  <text x="18" y="198.0" text-anchor="middle" font-size="14" fill="#344052" transform="rotate(-90 18 198.0)">Mean TD loss</text>
  <text x="72" y="370" text-anchor="middle" font-size="12" fill="#526071">-9</text>
  <text x="902" y="370" text-anchor="middle" font-size="12" fill="#526071">130</text>
  <polyline points="129.24,208.85 135.25,158.17 141.27,68.69 147.28,231.20 153.29,220.99 159.31,216.24 165.32,236.54 171.33,215.27 177.34,231.23 183.36,257.45 189.37,200.00 195.38,213.28 201.39,214.41 207.41,194.47 213.42,194.44 219.43,264.46 225.45,193.79 231.46,197.36 237.47,198.78 243.48,196.27 249.50,185.63 255.51,208.70 261.52,273.29 267.53,307.33 273.55,121.17 279.56,135.97 285.57,173.80 291.59,168.90 297.60,156.69 303.61,195.71 309.62,210.76 315.64,188.42 321.65,150.69 327.66,195.43 333.67,155.90 339.69,171.09 345.70,155.36 351.71,160.40 357.73,309.14 363.74,187.70 369.75,163.81 375.76,162.12 381.78,301.94 387.79,77.50 393.80,299.12 399.82,127.34 405.83,70.97 411.84,310.37 417.85,96.16 423.87,163.08 429.88,304.45 435.89,121.16 441.90,313.40 447.92,126.41 453.93,70.03 459.94,147.42 465.96,311.12 471.97,106.46 477.98,88.44 483.99,141.78 490.01,159.47 496.02,140.25 502.03,157.29 508.04,327.31 514.06,117.46 520.07,77.93 526.08,109.15 532.10,107.59 538.11,321.40 544.12,107.43 550.13,152.22 556.15,110.76 562.16,324.84 568.17,78.59 574.18,114.44 580.20,106.44 586.21,82.29 592.22,135.60 598.24,167.53 604.25,115.00 610.26,161.77 616.27,133.89 622.29,315.59 628.30,129.93 634.31,132.58 640.33,131.94 646.34,130.16 652.35,189.30 658.36,166.28 664.38,164.23 670.39,163.71 676.40,185.63 682.41,193.63 688.43,313.84 694.44,141.99 700.45,210.72 706.47,199.97 712.48,158.09 718.49,177.00 724.50,201.48 730.52,283.00 736.53,202.22 742.54,187.03 748.55,196.34 754.57,178.02 760.58,170.20 766.59,178.52 772.61,192.59 778.62,198.61 784.63,195.63 790.64,196.23 796.66,211.72 802.67,198.82 808.68,232.26 814.69,216.31 820.71,217.21 826.72,212.22 832.73,221.86 838.75,244.42 844.76,245.50" fill="none" stroke="#6f4cc3" stroke-width="2.5" stroke-linejoin="round" stroke-linecap="round" /><polyline points="129.24,208.85 135.25,183.51 141.27,145.24 147.28,166.73 153.29,177.58 159.31,184.02 165.32,191.53 171.33,194.49 177.34,198.57 183.36,204.46 189.37,204.06 195.38,204.83 201.39,205.56 207.41,204.77 213.42,204.08 219.43,207.86 225.45,207.03 231.46,206.49 237.47,206.09 243.48,205.59 249.50,204.43 255.51,206.96 261.52,217.19 267.53,221.00 273.55,216.01 279.56,211.99 285.57,208.86 291.59,206.54 297.60,202.81 303.61,199.72 309.62,200.26 315.64,199.02 321.65,195.83 327.66,195.88 333.67,193.95 339.69,189.28 345.70,187.36 351.71,185.51 357.73,191.03 363.74,190.60 369.75,189.51 375.76,187.18 381.78,188.62 387.79,177.13 393.80,186.02 399.82,185.59 405.83,180.45 411.84,187.52 417.85,184.50 423.87,182.87 429.88,187.55 435.89,184.19 441.90,192.32 447.92,188.87 453.93,184.58 459.94,183.39 465.96,191.18 471.97,188.49 477.98,177.45 483.99,175.15 490.01,174.94 496.02,173.84 502.03,166.61 508.04,179.10 514.06,170.02 520.07,167.55 526.08,169.46 532.10,159.32 538.11,170.58 544.12,167.80 550.13,160.19 556.15,159.67 562.16,160.24 568.17,157.85 574.18,160.07 580.20,158.02 586.21,146.58 592.22,148.03 598.24,151.99 604.25,150.65 610.26,150.77 616.27,150.45 622.29,158.36 628.30,148.49 634.31,149.25 640.33,151.95 646.34,153.00 652.35,157.09 658.36,149.33 664.38,152.17 670.39,152.74 676.40,156.49 682.41,149.93 688.43,161.69 694.44,163.07 700.45,168.28 706.47,174.16 712.48,175.29 718.49,175.76 724.50,180.09 730.52,186.15 736.53,189.56 742.54,183.14 748.55,186.46 754.57,188.73 760.58,190.64 766.59,193.06 772.61,193.22 778.62,194.84 784.63,196.41 790.64,198.04 796.66,199.34 802.67,199.60 808.68,195.52 814.69,199.24 820.71,199.56 826.72,200.18 832.73,203.36 838.75,206.73 844.76,208.94" fill="none" stroke="#209a72" stroke-width="2.5" stroke-linejoin="round" stroke-linecap="round" />
  <line x1="738" y1="68" x2="774" y2="68" stroke="#6f4cc3" stroke-width="3" /><text x="782" y="72" font-size="13" fill="#263241">episode loss</text><line x1="738" y1="90" x2="774" y2="90" stroke="#209a72" stroke-width="3" /><text x="782" y="94" font-size="13" fill="#263241">20 episode average</text>
</svg>
