<svg xmlns="http://www.w3.org/2000/svg" width="960" height="420" viewBox="0 0 960 420">
  <rect width="100%" height="100%" fill="#ffffff" />
  <text x="72" y="28" font-size="22" font-weight="700" fill="#17202a">Training Reward</text>
  <line x1="72" y1="348.00" x2="902" y2="348.00" stroke="#e7eaf0" stroke-width="1" /><text x="60" y="352.00" text-anchor="end" font-size="12" fill="#526071">-37.13</text><line x1="72" y1="288.00" x2="902" y2="288.00" stroke="#e7eaf0" stroke-width="1" /><text x="60" y="292.00" text-anchor="end" font-size="12" fill="#526071">-26.61</text><line x1="72" y1="228.00" x2="902" y2="228.00" stroke="#e7eaf0" stroke-width="1" /><text x="60" y="232.00" text-anchor="end" font-size="12" fill="#526071">-16.09</text><line x1="72" y1="168.00" x2="902" y2="168.00" stroke="#e7eaf0" stroke-width="1" /><text x="60" y="172.00" text-anchor="end" font-size="12" fill="#526071">-5.56</text><line x1="72" y1="108.00" x2="902" y2="108.00" stroke="#e7eaf0" stroke-width="1" /><text x="60" y="112.00" text-anchor="end" font-size="12" fill="#526071">4.96</text><line x1="72" y1="48.00" x2="902" y2="48.00" stroke="#e7eaf0" stroke-width="1" /><text x="60" y="52.00" text-anchor="end" font-size="12" fill="#526071">15.48</text>
  <line x1="72" y1="48" x2="72" y2="348" stroke="#2f3a45" stroke-width="1.4" />
  <line x1="72" y1="348" x2="902" y2="348" stroke="#2f3a45" stroke-width="1.4" />
  <text x="487.0" y="392" text-anchor="middle" font-size="14" fill="#344052">Episode</text>
  <text x="18" y="198.0" text-anchor="middle" font-size="14" fill="#344052" transform="rotate(-90 18 198.0)">Total reward</text>
  <text x="72" y="370" text-anchor="middle" font-size="12" fill="#526071">-9</text>
  <text x="902" y="370" text-anchor="middle" font-size="12" fill="#526071">130</text>
  <polyline points="129.24,72.11 135.25,73.54 141.27,222.66 147.28,256.88 153.29,217.82 159.31,293.09 165.32,248.33 171.33,211.26 177.34,236.92 183.36,74.39 189.37,257.74 195.38,238.63 201.39,213.83 207.41,293.38 213.42,188.16 219.43,75.25 225.45,230.65 231.46,204.99 237.47,215.25 243.48,270.00 249.50,273.13 255.51,327.31 261.52,68.69 267.53,92.36 273.55,227.51 279.56,224.38 285.57,214.68 291.59,213.83 297.60,240.63 303.61,221.81 309.62,282.83 315.64,210.40 321.65,218.10 327.66,273.99 333.67,202.70 339.69,218.10 345.70,218.96 351.71,217.82 357.73,82.38 363.74,276.56 369.75,218.96 375.76,208.69 381.78,73.54 387.79,226.37 393.80,93.21 399.82,223.23 405.83,212.97 411.84,92.93 417.85,227.51 423.87,231.22 429.88,72.97 435.89,288.82 441.90,74.11 447.92,221.81 453.93,211.26 459.94,225.23 465.96,79.24 471.97,272.28 477.98,204.13 483.99,232.93 490.01,219.24 496.02,246.33 502.03,251.18 508.04,78.38 514.06,220.95 520.07,215.54 526.08,206.41 532.10,196.72 538.11,69.26 544.12,226.94 550.13,250.89 556.15,222.95 562.16,80.10 568.17,208.98 574.18,193.01 580.20,217.82 586.21,219.24 592.22,204.42 598.24,254.31 604.25,206.98 610.26,224.38 616.27,202.70 622.29,78.10 628.30,214.97 634.31,199.85 640.33,207.84 646.34,299.94 652.35,258.02 658.36,294.52 664.38,283.68 670.39,213.25 676.40,211.83 682.41,252.60 688.43,91.22 694.44,213.83 700.45,275.42 706.47,287.96 712.48,225.80 718.49,195.86 724.50,209.55 730.52,74.11 736.53,315.05 742.54,210.12 748.55,215.54 754.57,199.85 760.58,217.82 766.59,216.96 772.61,221.52 778.62,213.54 784.63,173.62 790.64,226.09 796.66,298.51 802.67,277.13 808.68,200.99 814.69,221.24 820.71,179.32 826.72,205.84 832.73,214.97 838.75,253.46 844.76,315.62" fill="none" stroke="#2f6fed" stroke-width="2.5" stroke-linejoin="round" stroke-linecap="round" /><polyline points="129.24,72.11 135.25,72.82 141.27,122.77 147.28,156.30 153.29,168.60 159.31,189.35 165.32,197.78 171.33,199.46 177.34,203.62 183.36,190.70 189.37,196.79 195.38,200.28 201.39,201.32 207.41,207.90 213.42,206.58 219.43,198.37 225.45,200.27 231.46,200.53 237.47,201.31 243.48,204.74 249.50,214.79 255.51,227.48 261.52,219.78 267.53,211.56 273.55,212.04 279.56,208.61 285.57,206.92 291.59,207.05 297.60,207.24 303.61,214.61 309.62,215.86 315.64,214.45 321.65,214.67 327.66,213.70 333.67,214.42 339.69,221.57 345.70,220.98 351.71,221.62 357.73,214.98 363.74,215.31 369.75,212.60 375.76,206.67 381.78,206.91 387.79,213.61 393.80,206.90 399.82,206.84 405.83,206.75 411.84,200.71 417.85,200.05 423.87,200.52 429.88,190.03 435.89,193.95 441.90,186.75 447.92,184.14 453.93,184.57 459.94,184.93 465.96,177.94 471.97,180.66 477.98,186.75 483.99,184.57 490.01,184.58 496.02,186.47 502.03,195.35 508.04,187.95 514.06,194.34 520.07,193.95 526.08,193.62 532.10,198.81 538.11,190.90 544.12,190.69 550.13,199.58 556.15,196.29 562.16,196.59 568.17,195.95 574.18,195.03 580.20,194.66 586.21,201.66 592.22,198.27 598.24,200.78 604.25,199.48 610.26,199.74 616.27,197.56 622.29,188.90 628.30,195.73 634.31,194.68 640.33,194.29 646.34,198.97 652.35,202.03 658.36,213.30 664.38,216.13 670.39,214.25 676.40,213.70 682.41,222.32 688.43,216.43 694.44,217.47 700.45,220.35 706.47,223.79 712.48,224.86 718.49,221.94 724.50,222.07 730.52,214.55 736.53,220.17 742.54,226.77 748.55,226.80 754.57,226.80 760.58,227.30 766.59,223.15 772.61,221.32 778.62,217.28 784.63,211.77 790.64,212.41 796.66,216.75 802.67,217.97 808.68,223.46 814.69,223.83 820.71,219.03 826.72,214.92 832.73,214.38 838.75,217.26 844.76,222.56" fill="none" stroke="#e05d2f" stroke-width="2.5" stroke-linejoin="round" stroke-linecap="round" />
  <line x1="738" y1="68" x2="774" y2="68" stroke="#2f6fed" stroke-width="3" /><text x="782" y="72" font-size="13" fill="#263241">episode reward</text><line x1="738" y1="90" x2="774" y2="90" stroke="#e05d2f" stroke-width="3" /><text x="782" y="94" font-size="13" fill="#263241">20 episode average</text>
</svg>
