<svg xmlns="http://www.w3.org/2000/svg" width="960" height="420" viewBox="0 0 960 420">
  <rect width="100%" height="100%" fill="#ffffff" />
  <text x="72" y="28" font-size="22" font-weight="700" fill="#17202a">Per-step Reward (all episodes)</text>
  <line x1="72" y1="348.00" x2="902" y2="348.00" stroke="#e7eaf0" stroke-width="1" /><text x="60" y="352.00" text-anchor="end" font-size="12" fill="#526071">-12.68</text><line x1="72" y1="288.00" x2="902" y2="288.00" stroke="#e7eaf0" stroke-width="1" /><text x="60" y="292.00" text-anchor="end" font-size="12" fill="#526071">-7.81</text><line x1="72" y1="228.00" x2="902" y2="228.00" stroke="#e7eaf0" stroke-width="1" /><text x="60" y="232.00" text-anchor="end" font-size="12" fill="#526071">-2.94</text><line x1="72" y1="168.00" x2="902" y2="168.00" stroke="#e7eaf0" stroke-width="1" /><text x="60" y="172.00" text-anchor="end" font-size="12" fill="#526071">1.94</text><line x1="72" y1="108.00" x2="902" y2="108.00" stroke="#e7eaf0" stroke-width="1" /><text x="60" y="112.00" text-anchor="end" font-size="12" fill="#526071">6.81</text><line x1="72" y1="48.00" x2="902" y2="48.00" stroke="#e7eaf0" stroke-width="1" /><text x="60" y="52.00" text-anchor="end" font-size="12" fill="#526071">11.68</text>
  <line x1="72" y1="48" x2="72" y2="348" stroke="#2f3a45" stroke-width="1.4" />
  <line x1="72" y1="348" x2="902" y2="348" stroke="#2f3a45" stroke-width="1.4" />
  <text x="487.0" y="392" text-anchor="middle" font-size="14" fill="#344052">Step index</text>
  <text x="18" y="198.0" text-anchor="middle" font-size="14" fill="#344052" transform="rotate(-90 18 198.0)">Reward</text>
  <text x="72" y="370" text-anchor="middle" font-size="12" fill="#526071">-444</text>
  <text x="902" y="370" text-anchor="middle" font-size="12" fill="#526071">6012</text>
  <polyline points="129.24,191.84 129.37,191.84 129.50,191.84 129.63,191.23 129.76,191.23 129.88,191.23 130.01,194.92 130.14,196.15 130.27,191.84 130.40,193.69 130.53,193.69 130.66,194.92 130.78,191.84 130.91,194.92 131.04,191.23 131.17,180.14 131.30,191.23 131.43,184.45 131.56,188.15 131.68,185.68 131.81,193.07 131.94,193.07 132.07,193.07 132.20,191.84 132.33,191.84 132.46,193.07 132.58,190.00 132.71,190.00 132.84,190.00 132.97,68.69 133.10,191.84 133.23,191.84 133.36,191.84 133.48,191.23 133.61,191.23 133.74,191.23 133.87,191.84 134.00,194.92 134.13,191.84 134.25,188.76 134.38,191.84 134.51,180.76 134.64,193.07 134.77,194.31 134.90,194.31 135.03,193.07 135.15,193.07 135.28,191.84 135.41,191.84 135.54,190.00 135.67,193.07 135.80,191.84 135.93,189.38 136.05,191.84 136.18,189.38 136.31,191.84 136.44,193.07 136.57,190.00 136.70,190.00 136.83,68.69 136.95,191.84 137.08,191.84 137.21,190.00 137.34,191.23 137.47,191.23 137.60,191.23 137.73,193.69 137.85,191.23 137.98,191.84 138.11,194.92 138.24,192.46 138.37,194.92 138.50,198.62 138.63,196.15 138.75,194.92 138.88,196.15 139.01,180.14 139.14,193.69 139.27,193.69 139.40,191.84 139.53,194.92 139.65,193.69 139.78,191.23 139.91,191.84 140.04,188.76 140.17,194.92 140.30,191.84 140.43,191.84 140.55,191.84 140.68,198.62 140.81,198.62 140.94,198.62 141.07,198.62 141.20,191.84 141.33,193.69 141.45,196.15 141.58,191.23 141.71,191.84 141.84,196.15 141.97,193.69 142.10,186.30 142.23,191.23 142.35,191.84 142.48,194.92 142.61,196.15 142.74,191.84 142.87,192.46 143.00,194.92 143.12,191.84 143.25,315.61 143.38,191.84 143.51,191.84 143.64,198.62 143.77,191.23 143.90,191.23 144.02,193.69 144.15,191.84 144.28,192.46 144.41,191.84 144.54,193.69 144.67,193.69 144.80,194.92 144.92,191.23 145.05,196.15 145.18,180.14 145.31,196.15 145.44,198.00 145.57,200.46 145.70,191.84 145.82,193.07 145.95,196.77 146.08,198.00 146.21,200.46 146.34,199.23 146.47,199.23 146.60,197.38 146.72,197.38 146.85,197.38 146.98,191.84 147.11,198.62 147.24,198.62 147.37,198.62 147.50,198.62 147.62,191.23 147.75,191.84 147.88,191.84 148.01,192.46 148.14,194.92 148.27,192.46 148.40,192.46 148.52,194.92 148.65,191.23 148.78,191.84 148.91,191.23 149.04,194.92 149.17,192.46 149.30,191.84 149.42,204.16 149.55,201.69 149.68,315.00 149.81,191.84 149.94,191.84 150.07,191.84 150.20,191.23 150.32,196.15 150.45,191.23 150.58,191.84 150.71,191.23 150.84,191.84 150.97,188.76 151.10,193.69 151.22,194.92 151.35,196.15 151.48,196.15 151.61,196.15 151.74,196.15 151.87,180.14 151.99,193.69 152.12,193.69 152.25,191.84 152.38,194.92 152.51,192.46 152.64,191.23 152.77,188.76 152.89,188.76 153.02,191.84 153.15,191.84 153.28,191.84 153.41,191.84 153.54,198.62 153.67,191.84 153.79,192.46 153.92,198.62 154.05,192.46 154.18,191.84 154.31,196.15 154.44,193.69 154.57,188.76 154.69,194.92 154.82,194.92 154.95,191.84 155.08,196.15 155.21,194.92 155.34,194.92 155.47,191.84 155.59,191.23 155.72,194.92 155.85,193.69 155.98,191.23 156.11,319.31 156.24,191.23 156.37,191.84 156.49,191.84 156.62,191.23 156.75,191.23 156.88,191.23 157.01,191.84 157.14,192.46 157.27,191.84 157.39,193.69 157.52,188.76 157.65,188.15 157.78,196.77 157.91,201.69 158.04,201.69 158.17,196.77 158.29,196.77 158.42,199.23 158.55,199.23 158.68,197.38 158.81,196.77 158.94,194.31 159.07,196.77 159.19,199.23 159.32,199.23 159.45,199.23 159.58,197.38 159.71,197.38 159.84,197.38 159.97,204.16 160.09,204.16 160.22,204.16 160.35,204.16 160.48,194.31 160.61,201.69 160.74,198.00 160.87,200.46 160.99,201.69 161.12,204.16 161.25,200.46 161.38,191.84 161.51,194.92 161.64,191.84 161.76,196.15 161.89,188.76 162.02,194.92 162.15,191.23 162.28,191.84 162.41,194.92 162.54,314.38 162.66,191.84 162.79,191.84 162.92,194.92 163.05,191.23 163.18,191.23 163.31,191.23 163.44,191.84 163.56,191.23 163.69,191.84 163.82,194.92 163.95,196.15 164.08,191.84 164.21,196.15 164.34,196.15 164.46,196.15 164.59,196.15 164.72,194.92 164.85,199.23 164.98,199.23 165.11,197.38 165.24,196.77 165.36,200.46 165.49,196.77 165.62,199.23 165.75,197.38 165.88,199.23 166.01,192.46 166.14,191.84 166.26,191.84 166.39,198.62 166.52,198.62 166.65,194.92 166.78,198.62 166.91,191.84 167.04,191.84 167.16,194.92 167.29,188.76 167.42,191.84 167.55,191.23 167.68,191.84 167.81,191.84 167.94,182.61 168.06,194.92 168.19,192.46 168.32,192.46 168.45,194.92 168.58,192.46 168.71,194.92 168.84,194.92 168.96,318.07 169.09,191.84 169.22,191.84 169.35,191.84 169.48,191.23 169.61,194.92 169.74,191.23 169.86,191.84 169.99,191.23 170.12,191.84 170.25,193.69 170.38,193.69 170.51,194.92 170.63,196.15 170.76,196.15 170.89,196.15 171.02,191.23 171.15,180.14 171.28,193.69 171.41,193.69 171.53,191.84 171.66,194.92 171.79,196.15 171.92,191.23 172.05,188.76 172.18,192.46 172.31,188.76 172.43,191.84 172.56,196.15 172.69,191.84 172.82,196.15 172.95,196.15 173.08,192.46 173.21,196.15 173.33,191.84 173.46,196.15 173.59,194.92 173.72,196.15 173.85,192.46 173.98,194.92 174.11,191.23 174.23,191.84 174.36,191.84 174.49,191.84 174.62,186.92 174.75,191.84 174.88,190.00 175.01,194.31 175.13,193.07 175.26,190.00 175.39,312.53 175.52,191.84 175.65,193.69 175.78,194.92 175.91,191.23 176.03,193.69 176.16,191.23 176.29,191.84 176.42,194.92 176.55,191.84 176.68,194.92 176.81,193.69 176.93,194.92 177.06,191.84 177.19,196.15 177.32,191.23 177.45,191.23 177.58,191.84 177.71,193.69 177.83,193.69 177.96,191.84 178.09,191.23 178.22,194.92 178.35,194.92 178.48,193.69 178.61,193.69 178.73,192.46 178.86,193.69 178.99,191.84 179.12,191.84 179.25,198.62 179.38,198.62 179.50,198.62 179.63,198.62 179.76,191.23 179.89,194.92 180.02,194.92 180.15,194.92 180.28,191.84 180.40,196.15 180.53,196.15 180.66,192.46 180.79,194.92 180.92,194.92 181.05,193.69 181.18,193.69 181.30,191.23 181.43,193.69 181.56,192.46 181.69,194.92 181.82,314.38 181.95,192.46 182.08,191.84 182.20,193.69 182.33,191.23 182.46,191.23 182.59,191.23 182.72,194.92 182.85,192.46 182.98,191.84 183.10,193.69 183.23,193.69 183.36,191.23 183.49,192.46 183.62,196.15 183.75,193.69 183.88,196.15 184.00,194.92 184.13,186.30 184.26,188.76 184.39,187.53 184.52,179.53 184.65,193.07 184.78,193.07 184.90,189.38 185.03,190.61 185.16,193.07 185.29,190.00 185.42,190.00 185.55,190.00 185.68,188.15 185.80,194.31 185.93,68.69 186.06,191.84 186.19,191.84 186.32,191.84 186.45,191.23 186.58,191.23 186.70,191.23 186.83,188.76 186.96,192.46 187.09,192.46 187.22,194.92 187.35,198.62 187.48,190.00 187.60,194.92 187.73,196.15 187.86,201.69 187.99,201.69 188.12,200.46 188.25,195.54 188.38,200.46 188.50,193.07 188.63,196.77 188.76,194.31 188.89,196.77 189.02,194.31 189.15,199.23 189.27,199.23 189.40,194.31 189.53,197.38 189.66,198.00 189.79,204.16 189.92,200.46 190.05,204.16 190.17,197.38 190.30,196.15 190.43,186.30 190.56,191.23 190.69,182.61 190.82,191.23 190.95,191.84 191.07,191.23 191.20,191.23 191.33,192.46 191.46,194.92 191.59,191.84 191.72,192.46 191.85,196.15 191.97,194.92 192.10,196.15 192.23,191.23 192.36,315.61 192.49,194.92 192.62,191.84 192.75,191.84 192.87,191.23 193.00,191.23 193.13,191.23 193.26,191.84 193.39,192.46 193.52,191.84 193.65,193.69 193.77,191.23 193.90,191.84 194.03,193.69 194.16,196.15 194.29,193.69 194.42,192.46 194.55,191.23 194.67,193.69 194.80,193.69 194.93,191.84 195.06,191.84 195.19,193.69 195.32,191.23 195.45,193.69 195.57,193.69 195.70,193.69 195.83,191.84 195.96,191.84 196.09,191.23 196.22,191.23 196.35,198.62 196.47,191.23 196.60,198.62 196.73,193.69 196.86,192.46 196.99,191.23 197.12,198.62 197.25,192.46 197.37,193.69 197.50,192.46 197.63,193.69 197.76,194.92 197.89,194.92 198.02,191.23 198.14,198.00 198.27,196.77 198.40,199.23 198.53,200.46 198.66,200.46 198.79,324.85 198.92,191.84 199.04,191.84 199.17,191.84 199.30,191.23 199.43,191.23 199.56,191.23 199.69,191.84 199.82,192.46 199.94,191.84 200.07,193.69 200.20,191.84 200.33,194.92 200.46,180.14 200.59,188.76 200.72,196.15 200.84,196.15 200.97,180.14 201.10,193.69 201.23,193.69 201.36,194.92 201.49,194.92 201.62,194.92 201.74,191.23 201.87,188.76 202.00,188.76 202.13,193.69 202.26,191.84 202.39,194.92 202.52,191.84 202.64,198.62 202.77,198.62 202.90,198.62 203.03,198.62 203.16,191.23 203.29,193.69 203.42,194.92 203.54,194.92 203.67,191.23 203.80,191.23 203.93,191.84 204.06,194.92 204.19,192.46 204.32,191.84 204.44,192.46 204.57,194.92 204.70,192.46 204.83,194.92 204.96,194.92 205.09,191.23 205.22,315.61 205.34,191.23 205.47,191.84 205.60,191.84 205.73,191.23 205.86,191.23 205.99,191.23 206.12,191.84 206.24,192.46 206.37,191.84 206.50,188.76 206.63,188.76 206.76,182.61 206.89,196.15 207.01,192.46 207.14,201.69 207.27,185.68 207.40,200.46 207.53,199.23 207.66,200.46 207.79,197.38 207.91,196.77 208.04,194.31 208.17,196.77 208.30,199.23 208.43,199.23 208.56,199.23 208.69,197.38 208.81,197.38 208.94,198.00 209.07,204.16 209.20,204.16 209.33,200.46 209.46,194.31 209.59,201.69 209.71,200.46 209.84,196.77 209.97,197.38 210.10,198.00 210.23,204.16 210.36,191.84 210.49,201.69 210.61,196.77 210.74,198.00 210.87,198.00 211.00,198.00 211.13,196.77 211.26,197.38 211.39,196.77 211.51,197.38 211.64,320.54 211.77,191.84 211.90,191.84 212.03,191.84 212.16,191.23 212.29,191.23 212.41,191.23 212.54,192.46 212.67,192.46 212.80,194.92 212.93,193.69 213.06,193.69 213.19,194.92 213.31,196.15 213.44,196.15 213.57,191.23 213.70,196.15 213.83,194.92 213.96,190.00 214.09,184.45 214.21,185.68 214.34,193.07 214.47,191.84 214.60,189.38 214.73,186.92 214.86,191.84 214.99,191.84 215.11,194.31 215.24,190.00 215.37,190.00 215.50,194.31 215.63,194.31 215.76,190.61 215.89,194.31 216.01,189.38 216.14,190.00 216.27,191.84 216.40,190.61 216.53,191.84 216.66,189.38 216.78,191.84 216.91,190.61 217.04,190.61 217.17,189.38 217.30,191.84 217.43,186.92 217.56,190.61 217.68,190.61 217.81,190.61 217.94,191.84 218.07,317.46 218.20,191.84 218.33,191.84 218.46,191.84 218.58,191.23 218.71,191.23 218.84,191.23 218.97,191.84 219.10,192.46 219.23,191.84 219.36,193.69 219.48,191.23 219.61,194.92 219.74,196.15 219.87,188.76 220.00,196.15 220.13,178.30 220.26,191.84 220.38,193.07 220.51,191.84 220.64,193.07 220.77,193.07 220.90,191.84 221.03,189.38 221.16,191.84 221.28,191.84 221.41,189.38 221.54,190.00 221.67,190.00 221.80,193.07 221.93,68.69 222.06,191.84 222.18,191.84 222.31,191.84 222.44,191.23 222.57,191.23 222.70,193.69 222.83,191.84 222.96,193.69 223.08,191.23 223.21,194.92 223.34,193.69 223.47,194.92 223.60,198.62 223.73,196.15 223.86,188.76 223.98,196.15 224.11,194.92 224.24,198.62 224.37,193.69 224.50,191.84 224.63,194.92 224.76,193.69 224.88,188.76 225.01,193.69 225.14,193.69 225.27,193.69 225.40,192.46 225.53,191.84 225.65,198.62 225.78,198.62 225.91,192.46 226.04,198.62 226.17,198.62 226.30,194.92 226.43,191.23 226.55,191.23 226.68,193.69 226.81,191.23 226.94,192.46 227.07,180.14 227.20,193.69 227.33,191.84 227.45,193.69 227.58,194.92 227.71,191.23 227.84,193.69 227.97,194.92 228.10,192.46 228.23,196.15 228.35,318.07 228.48,192.46 228.61,191.84 228.74,190.00 228.87,194.92 229.00,191.23 229.13,191.23 229.25,191.84 229.38,191.23 229.51,191.84 229.64,193.69 229.77,193.69 229.90,194.92 230.03,198.62 230.15,191.23 230.28,196.15 230.41,188.76 230.54,180.14 230.67,190.00 230.80,192.46 230.93,187.53 231.05,191.84 231.18,193.69 231.31,191.23 231.44,188.76 231.57,188.76 231.70,188.76 231.83,191.84 231.95,191.84 232.08,191.84 232.21,194.92 232.34,198.62 232.47,198.62 232.60,198.62 232.73,194.92 232.85,194.92 232.98,191.84 233.11,180.14 233.24,194.92 233.37,191.84 233.50,191.23 233.63,194.92 233.75,194.92 233.88,191.84 234.01,196.15 234.14,194.92 234.27,191.84 234.40,191.23 234.52,191.23 234.65,191.23 234.78,319.31 234.91,191.84 235.04,192.46 235.17,191.84 235.30,191.23 235.42,191.23 235.55,191.23 235.68,191.84 235.81,192.46 235.94,191.84 236.07,193.69 236.20,191.84 236.32,194.92 236.45,192.46 236.58,196.15 236.71,180.14 236.84,194.92 236.97,192.46 237.10,193.69 237.22,193.69 237.35,191.84 237.48,194.92 237.61,194.92 237.74,191.23 237.87,191.84 238.00,193.69 238.12,192.46 238.25,191.84 238.38,191.84 238.51,196.15 238.64,191.23 238.77,192.46 238.90,198.62 239.02,192.46 239.15,191.84 239.28,191.84 239.41,198.62 239.54,191.84 239.67,191.23 239.80,191.84 239.92,192.46 240.05,198.62 240.18,196.15 240.31,193.69 240.44,194.92 240.57,191.84 240.70,191.84 240.82,191.84 240.95,192.46 241.08,191.23 241.21,315.00 241.34,191.84 241.47,191.84 241.60,191.84 241.72,191.23 241.85,191.84 241.98,194.92 242.11,191.84 242.24,192.46 242.37,193.69 242.50,194.92 242.62,193.69 242.75,194.92 242.88,196.15 243.01,185.68 243.14,200.46 243.27,201.69 243.40,200.46 243.52,199.23 243.65,199.23 243.78,197.38 243.91,196.77 244.04,200.46 244.17,197.38 244.29,196.77 244.42,199.23 244.55,199.23 244.68,197.38 244.81,197.38 244.94,197.38 245.07,204.16 245.19,197.38 245.32,204.16 245.45,197.38 245.58,200.46 245.71,199.23 245.84,196.77 245.97,196.15 246.09,191.84 246.22,191.23 246.35,191.23 246.48,191.84 246.61,191.84 246.74,193.69 246.87,191.23 246.99,181.37 247.12,192.46 247.25,191.23 247.38,193.69 247.51,191.84 247.64,314.38 247.77,188.76 247.89,194.92 248.02,191.23 248.15,191.23 248.28,191.23 248.41,191.23 248.54,191.84 248.67,192.46 248.79,200.46 248.92,194.31 249.05,196.77 249.18,188.15 249.31,196.77 249.44,201.69 249.57,191.84 249.69,194.31 249.82,196.77 249.95,200.46 250.08,195.54 250.21,193.07 250.34,196.77 250.47,194.31 250.59,196.77 250.72,199.23 250.85,199.23 250.98,196.77 251.11,196.77 251.24,197.38 251.37,197.38 251.49,200.46 251.62,197.38 251.75,204.16 251.88,197.38 252.01,200.46 252.14,197.38 252.27,194.31 252.39,198.00 252.52,198.00 252.65,198.00 252.78,198.00 252.91,198.00 253.04,313.76 253.16,191.84 253.29,191.84 253.42,193.69 253.55,191.23 253.68,191.23 253.81,191.23 253.94,191.84 254.06,198.00 254.19,197.38 254.32,199.23 254.45,199.23 254.58,200.46 254.71,201.69 254.84,201.69 254.96,201.69 255.09,197.38 255.22,196.77 255.35,199.23 255.48,204.16 255.61,197.38 255.74,196.77 255.86,199.23 255.99,196.77 256.12,199.23 256.25,199.23 256.38,199.23 256.51,197.38 256.64,197.38 256.76,196.77 256.89,204.16 257.02,199.23 257.15,196.77 257.28,204.16 257.41,197.38 257.54,197.38 257.66,198.00 257.79,201.69 257.92,198.00 258.05,196.77 258.18,198.00 258.31,201.69 258.44,197.38 258.56,199.23 258.69,197.38 258.82,200.46 258.95,200.46 259.08,192.46 259.21,191.84 259.34,193.69 259.46,319.31 259.59,191.84 259.72,191.84 259.85,191.84 259.98,194.92 260.11,191.23 260.24,191.23 260.36,186.30 260.49,180.14 260.62,180.14 260.75,188.76 260.88,194.92 261.01,182.61 261.14,191.23 261.26,196.15 261.39,196.15 261.52,191.23 261.65,196.15 261.78,193.69 261.91,193.69 262.04,194.92 262.16,194.92 262.29,196.15 262.42,194.92 262.55,186.92 262.68,186.92 262.81,191.84 262.93,190.00 263.06,190.00 263.19,190.00 263.32,68.69 263.45,194.92 263.58,188.76 263.71,191.84 263.83,191.23 263.96,191.23 264.09,191.23 264.22,191.84 264.35,180.14 264.48,194.92 264.61,191.84 264.73,188.76 264.86,182.61 264.99,193.69 265.12,194.92 265.25,196.15 265.38,192.46 265.51,191.23 265.63,193.69 265.76,193.69 265.89,191.84 266.02,194.92 266.15,188.76 266.28,196.15 266.41,196.15 266.53,188.76 266.66,193.69 266.79,193.69 266.92,191.84 267.05,191.84 267.18,198.62 267.31,198.62 267.43,198.62 267.56,198.62 267.69,191.84 267.82,191.84 267.95,181.37 268.08,194.92 268.21,188.76 268.33,194.92 268.46,193.69 268.59,191.84 268.72,191.84 268.85,194.92 268.98,196.15 269.11,68.69 269.23,191.84 269.36,191.84 269.49,191.84 269.62,193.69 269.75,191.23 269.88,192.46 270.01,191.84 270.13,192.46 270.26,191.84 270.39,193.69 270.52,193.69 270.65,191.84 270.78,196.15 270.91,196.15 271.03,196.15 271.16,194.92 271.29,194.92 271.42,186.30 271.55,194.92 271.68,187.53 271.80,194.92 271.93,193.69 272.06,194.92 272.19,196.15 272.32,193.69 272.45,193.69 272.58,196.15 272.70,191.84 272.83,191.84 272.96,194.92 273.09,196.15 273.22,196.15 273.35,196.15 273.48,196.15 273.60,192.46 273.73,191.84 273.86,192.46 273.99,192.46 274.12,191.23 274.25,192.46 274.38,194.92 274.50,191.84 274.63,187.53 274.76,191.84 274.89,196.15 275.02,192.46 275.15,196.15 275.28,192.46 275.40,191.84 275.53,319.31 275.66,191.84 275.79,193.69 275.92,193.69 276.05,191.23 276.18,191.23 276.30,191.23 276.43,191.84 276.56,194.92 276.69,191.23 276.82,193.69 276.95,193.69 277.08,191.23 277.20,196.15 277.33,191.84 277.46,196.15 277.59,193.69 277.72,191.84 277.85,191.84 277.98,193.69 278.10,191.84 278.23,191.23 278.36,193.69 278.49,191.23 278.62,193.69 278.75,193.69 278.88,193.69 279.00,191.84 279.13,194.92 279.26,192.46 279.39,194.92 279.52,191.84 279.65,198.62 279.78,198.62 279.90,194.92 280.03,191.23 280.16,196.15 280.29,192.46 280.42,191.23 280.55,191.23 280.67,191.23 280.80,198.62 280.93,191.84 281.06,191.23 281.19,191.23 281.32,191.84 281.45,191.84 281.57,194.92 281.70,194.92 281.83,192.46 281.96,318.07 282.09,193.69 282.22,191.84 282.35,191.84 282.47,191.23 282.60,191.23 282.73,188.76 282.86,193.69 282.99,192.46 283.12,191.84 283.25,193.69 283.37,194.92 283.50,191.23 283.63,196.15 283.76,192.46 283.89,196.15 284.02,180.14 284.15,194.92 284.27,193.69 284.40,193.69 284.53,181.37 284.66,194.92 284.79,193.69 284.92,191.23 285.05,193.69 285.17,193.69 285.30,193.69 285.43,191.84 285.56,191.84 285.69,191.84 285.82,198.62 285.95,198.62 286.07,198.62 286.20,198.62 286.33,191.84 286.46,194.92 286.59,191.84 286.72,191.23 286.85,192.46 286.97,196.15 287.10,193.69 287.23,191.84 287.36,191.23 287.49,191.23 287.62,191.84 287.75,192.46 287.87,191.84 288.00,191.84 288.13,194.92 288.26,191.84 288.39,314.38 288.52,191.84 288.65,191.84 288.77,191.84 288.90,191.23 289.03,192.46 289.16,191.23 289.29,191.23 289.42,191.23 289.55,191.84 289.67,188.76 289.80,191.23 289.93,182.61 290.06,191.23 290.19,196.15 290.32,188.76 290.44,194.92 290.57,192.46 290.70,191.84 290.83,193.69 290.96,191.84 291.09,191.23 291.22,191.84 291.34,194.92 291.47,188.76 291.60,188.76 291.73,194.92 291.86,191.84 291.99,198.62 292.12,191.23 292.24,198.62 292.37,198.62 292.50,192.46 292.63,198.62 292.76,193.69 292.89,191.84 293.02,191.23 293.14,191.84 293.27,193.69 293.40,193.69 293.53,193.69 293.66,191.84 293.79,191.84 293.92,194.92 294.04,196.15 294.17,191.84 294.30,196.15 294.43,191.84 294.56,194.92 294.69,194.92 294.82,316.84 294.94,191.84 295.07,191.84 295.20,191.84 295.33,186.30 295.46,191.84 295.59,191.23 295.72,191.84 295.84,192.46 295.97,191.84 296.10,188.76 296.23,188.76 296.36,182.61 296.49,196.15 296.62,192.46 296.74,196.15 296.87,193.69 297.00,194.92 297.13,193.69 297.26,191.23 297.39,191.84 297.52,194.92 297.64,193.69 297.77,193.69 297.90,193.69 298.03,193.69 298.16,194.92 298.29,191.84 298.42,191.84 298.54,194.92 298.67,198.62 298.80,198.62 298.93,194.92 299.06,198.62 299.19,194.92 299.31,191.84 299.44,192.46 299.57,191.84 299.70,196.15 299.83,191.84 299.96,193.69 300.09,194.92 300.21,194.92 300.34,194.92 300.47,196.77 300.60,200.46 300.73,200.46 300.86,200.46 300.99,197.38 301.11,196.77 301.24,322.38 301.37,193.69 301.50,191.84 301.63,192.46 301.76,191.23 301.89,191.23 302.01,191.23 302.14,191.84 302.27,192.46 302.40,194.92 302.53,193.69 302.66,191.23 302.79,194.92 302.91,193.69 303.04,196.15 303.17,193.69 303.30,191.84 303.43,194.92 303.56,194.92 303.69,191.84 303.81,191.84 303.94,194.92 304.07,194.92 304.20,191.23 304.33,193.69 304.46,193.69 304.59,191.84 304.71,191.84 304.84,193.69 304.97,191.23 305.10,198.62 305.23,198.62 305.36,191.23 305.49,192.46 305.61,193.69 305.74,191.84 305.87,191.84 306.00,191.84 306.13,194.92 306.26,191.23 306.39,194.92 306.51,192.46 306.64,194.92 306.77,193.69 306.90,191.84 307.03,191.23 307.16,191.23 307.29,192.46 307.41,194.92 307.54,191.84 307.67,314.38 307.80,191.84 307.93,191.84 308.06,191.84 308.18,191.23 308.31,191.23 308.44,191.23 308.57,191.84 308.70,194.92 308.83,191.84 308.96,193.69 309.08,191.84 309.21,191.84 309.34,191.23 309.47,196.15 309.60,180.14 309.73,192.46 309.86,191.84 309.98,199.23 310.11,196.77 310.24,197.38 310.37,196.77 310.50,199.23 310.63,201.69 310.76,194.31 310.88,194.31 311.01,196.77 311.14,197.38 311.27,197.38 311.40,197.38 311.53,196.77 311.66,204.16 311.78,196.77 311.91,197.38 312.04,197.38 312.17,197.38 312.30,198.00 312.43,204.16 312.56,197.38 312.68,200.46 312.81,196.77 312.94,194.31 313.07,196.77 313.20,196.77 313.33,204.16 313.46,197.38 313.58,201.69 313.71,198.00 313.84,199.23 313.97,196.15 314.10,311.92 314.23,191.84 314.36,191.84 314.48,191.84 314.61,191.23 314.74,190.00 314.87,191.84 315.00,191.84 315.13,192.46 315.26,191.84 315.38,191.23 315.51,191.84 315.64,194.92 315.77,180.14 315.90,196.15 316.03,191.84 316.16,196.15 316.28,196.15 316.41,193.69 316.54,192.46 316.67,193.69 316.80,191.23 316.93,193.69 317.06,193.69 317.18,194.92 317.31,191.84 317.44,193.69 317.57,191.84 317.70,191.84 317.83,191.84 317.95,191.23 318.08,191.84 318.21,191.23 318.34,191.84 318.47,194.92 318.60,192.46 318.73,193.69 318.85,191.23 318.98,191.84 319.11,193.69 319.24,192.46 319.37,194.92 319.50,191.84 319.63,191.23 319.75,191.84 319.88,191.23 320.01,194.92 320.14,187.53 320.27,197.38 320.40,196.77 320.53,320.54 320.65,191.84 320.78,191.84 320.91,192.46 321.04,194.92 321.17,191.23 321.30,191.23 321.43,191.23 321.55,192.46 321.68,191.84 321.81,188.76 321.94,191.23 322.07,190.00 322.20,196.15 322.33,191.84 322.45,194.92 322.58,196.15 322.71,188.76 322.84,193.69 322.97,193.69 323.10,186.30 323.23,194.92 323.35,194.92 323.48,191.23 323.61,193.69 323.74,193.69 323.87,191.23 324.00,191.84 324.13,191.84 324.25,192.46 324.38,196.15 324.51,198.62 324.64,198.62 324.77,192.46 324.90,192.46 325.03,192.46 325.15,194.92 325.28,192.46 325.41,193.69 325.54,192.46 325.67,194.92 325.80,192.46 325.93,193.69 326.05,191.84 326.18,191.23 326.31,193.69 326.44,193.69 326.57,196.15 326.70,194.92 326.82,191.23 326.95,314.38 327.08,191.84 327.21,191.84 327.34,191.84 327.47,191.23 327.60,191.23 327.72,194.92 327.85,191.84 327.98,191.23 328.11,191.84 328.24,191.23 328.37,193.69 328.50,191.23 328.62,191.84 328.75,196.15 328.88,196.15 329.01,196.15 329.14,194.92 329.27,191.23 329.40,193.69 329.52,192.46 329.65,200.46 329.78,188.76 329.91,193.69 330.04,188.76 330.17,194.92 330.30,188.76 330.42,191.84 330.55,191.23 330.68,191.84 330.81,198.62 330.94,198.62 331.07,198.62 331.20,198.62 331.32,194.92 331.45,197.38 331.58,201.69 331.71,201.69 331.84,200.46 331.97,201.69 332.10,201.69 332.22,201.69 332.35,199.23 332.48,196.77 332.61,197.38 332.74,204.16 332.87,194.31 333.00,200.46 333.12,191.84 333.25,199.23 333.38,323.62 333.51,193.69 333.64,198.62 333.77,194.92 333.90,191.23 334.02,191.23 334.15,191.23 334.28,191.84 334.41,192.46 334.54,191.84 334.67,188.76 334.80,188.76 334.92,182.61 335.05,196.15 335.18,193.69 335.31,196.15 335.44,193.69 335.57,194.92 335.69,193.69 335.82,192.46 335.95,191.23 336.08,191.23 336.21,193.69 336.34,191.23 336.47,191.84 336.59,191.23 336.72,193.69 336.85,191.23 336.98,194.92 337.11,196.15 337.24,191.23 337.37,191.84 337.49,196.15 337.62,198.62 337.75,193.69 337.88,191.23 338.01,191.84 338.14,192.46 338.27,193.69 338.39,196.15 338.52,191.84 338.65,191.23 338.78,191.84 338.91,178.30 339.04,194.31 339.17,189.38 339.29,191.84 339.42,189.38 339.55,191.84 339.68,191.84 339.81,312.53 339.94,191.23 340.07,191.84 340.19,191.23 340.32,191.23 340.45,191.23 340.58,191.23 340.71,191.84 340.84,192.46 340.97,191.84 341.09,188.76 341.22,188.76 341.35,182.61 341.48,193.69 341.61,196.15 341.74,193.69 341.87,191.23 341.99,194.92 342.12,193.69 342.25,193.69 342.38,191.84 342.51,194.92 342.64,188.76 342.77,193.69 342.89,193.69 343.02,193.69 343.15,191.84 343.28,191.84 343.41,193.69 343.54,191.84 343.67,198.62 343.79,198.62 343.92,198.62 344.05,198.62 344.18,198.62 344.31,191.84 344.44,191.84 344.57,193.69 344.69,192.46 344.82,196.15 344.95,191.84 345.08,191.23 345.21,192.46 345.34,191.84 345.46,191.23 345.59,194.92 345.72,194.92 345.85,193.69 345.98,191.84 346.11,191.84 346.24,316.84 346.36,191.84 346.49,191.23 346.62,188.76 346.75,191.23 346.88,191.23 347.01,191.23 347.14,196.15 347.26,191.84 347.39,191.84 347.52,188.76 347.65,188.76 347.78,190.00 347.91,196.15 348.04,196.15 348.16,191.84 348.29,194.92 348.42,194.92 348.55,193.69 348.68,193.69 348.81,198.62 348.94,191.23 349.06,193.69 349.19,196.15 349.32,191.23 349.45,193.69 349.58,193.69 349.71,191.84 349.84,191.84 349.96,191.84 350.09,198.62 350.22,192.46 350.35,198.62 350.48,198.62 350.61,192.46 350.74,191.84 350.86,191.23 350.99,193.69 351.12,193.69 351.25,186.30 351.38,191.84 351.51,196.15 351.64,191.84 351.76,194.92 351.89,191.84 352.02,191.84 352.15,191.84 352.28,192.46 352.41,192.46 352.54,194.92 352.66,315.00 352.79,193.69 352.92,191.84 353.05,191.84 353.18,191.23 353.31,191.23 353.44,192.46 353.56,194.92 353.69,191.23 353.82,191.84 353.95,191.23 354.08,193.69 354.21,180.14 354.33,196.15 354.46,196.15 354.59,196.15 354.72,191.84 354.85,196.15 354.98,192.46 355.11,193.69 355.23,188.76 355.36,191.84 355.49,193.69 355.62,194.92 355.75,188.76 355.88,191.84 356.01,193.69 356.13,191.84 356.26,191.84 356.39,191.84 356.52,198.62 356.65,191.84 356.78,198.62 356.91,191.84 357.03,193.69 357.16,191.84 357.29,196.15 357.42,191.84 357.55,191.23 357.68,194.92 357.81,191.84 357.93,191.84 358.06,191.84 358.19,191.23 358.32,193.69 358.45,191.23 358.58,191.84 358.71,191.23 358.83,197.38 358.96,198.00 359.09,320.54 359.22,191.84 359.35,191.84 359.48,193.69 359.61,191.23 359.73,193.69 359.86,191.23 359.99,191.84 360.12,191.23 360.25,191.84 360.38,193.69 360.51,193.69 360.63,194.92 360.76,186.30 360.89,196.15 361.02,196.15 361.15,196.15 361.28,194.92 361.41,192.46 361.53,190.00 361.66,192.46 361.79,194.92 361.92,193.69 362.05,194.92 362.18,179.53 362.31,191.84 362.43,190.00 362.56,190.00 362.69,190.00 362.82,190.00 362.95,68.69 363.08,190.00 363.20,193.69 363.33,192.46 363.46,191.23 363.59,191.23 363.72,187.53 363.85,191.84 363.98,192.46 364.10,191.84 364.23,191.84 364.36,193.69 364.49,194.92 364.62,196.15 364.75,191.23 364.88,194.92 365.00,198.62 365.13,194.92 365.26,193.69 365.39,198.62 365.52,191.84 365.65,194.92 365.78,193.69 365.90,194.92 366.03,193.69 366.16,193.69 366.29,193.69 366.42,191.23 366.55,191.84 366.68,197.38 366.80,196.77 366.93,204.16 367.06,197.38 367.19,204.16 367.32,198.00 367.45,200.46 367.58,197.38 367.70,200.46 367.83,196.77 367.96,197.38 368.09,197.38 368.22,201.69 368.35,197.38 368.48,200.46 368.60,201.69 368.73,191.84 368.86,200.46 368.99,196.77 369.12,197.38 369.25,317.46 369.38,191.23 369.50,191.84 369.63,191.84 369.76,191.23 369.89,191.23 370.02,194.92 370.15,192.46 370.28,192.46 370.40,191.84 370.53,193.69 370.66,193.69 370.79,191.23 370.92,193.69 371.05,196.15 371.18,193.69 371.30,196.15 371.43,192.46 371.56,190.00 371.69,186.30 371.82,194.92 371.95,194.92 372.08,194.92 372.20,191.23 372.33,194.92 372.46,193.69 372.59,193.69 372.72,191.23 372.85,191.84 372.97,194.92 373.10,194.92 373.23,194.92 373.36,193.69 373.49,191.84 373.62,193.69 373.75,191.84 373.87,191.84 374.00,196.15 374.13,194.92 374.26,194.92 374.39,191.84 374.52,187.53 374.65,192.46 374.77,194.92 374.90,191.23 375.03,193.69 375.16,191.23 375.29,192.46 375.42,193.69 375.55,194.92 375.67,315.61 375.80,188.76 375.93,191.84 376.06,191.23 376.19,191.84 376.32,191.23 376.45,193.69 376.57,191.23 376.70,188.76 376.83,191.84 376.96,188.76 377.09,188.76 377.22,194.92 377.35,194.92 377.47,180.14 377.60,196.15 377.73,196.15 377.86,191.84 377.99,197.38 378.12,199.23 378.25,197.38 378.37,201.69 378.50,198.00 378.63,196.77 378.76,188.76 378.89,188.76 379.02,191.23 379.15,191.84 379.27,188.76 379.40,193.69 379.53,191.84 379.66,198.62 379.79,182.61 379.92,188.76 380.05,191.84 380.17,191.84 380.30,196.15 380.43,188.76 380.56,191.84 380.69,194.92 380.82,196.15 380.95,196.15 381.07,191.23 381.20,191.84 381.33,191.84 381.46,191.23 381.59,191.84 381.72,194.92 381.84,191.23 381.97,191.23 382.10,318.07 382.23,188.76 382.36,191.84 382.49,191.84 382.62,191.23 382.74,191.23 382.87,191.23 383.00,191.84 383.13,192.46 383.26,194.92 383.39,188.76 383.52,188.76 383.64,180.76 383.77,194.31 383.90,194.31 384.03,194.31 384.16,193.07 384.29,189.38 384.42,191.84 384.54,68.69 384.67,188.76 384.80,191.84 384.93,191.84 385.06,192.46 385.19,191.23 385.32,188.76 385.44,181.37 385.57,192.46 385.70,191.84 385.83,191.23 385.96,188.76 386.09,198.62 386.22,196.15 386.34,196.15 386.47,191.23 386.60,194.92 386.73,194.92 386.86,193.69 386.99,193.69 387.12,191.84 387.24,191.23 387.37,188.76 387.50,198.62 387.63,193.69 387.76,193.69 387.89,193.69 388.02,191.84 388.14,191.84 388.27,191.84 388.40,198.62 388.53,198.62 388.66,198.62 388.79,198.62 388.92,196.15 389.04,191.84 389.17,191.23 389.30,191.23 389.43,188.76 389.56,191.84 389.69,196.15 389.82,191.84 389.94,198.62 390.07,191.84 390.20,191.84 390.33,191.84 390.46,191.84 390.59,196.15 390.71,193.69 390.84,198.62 390.97,321.77 391.10,191.84 391.23,194.92 391.36,191.84 391.49,191.84 391.61,191.84 391.74,191.23 391.87,191.84 392.00,192.46 392.13,198.62 392.26,193.69 392.39,193.69 392.51,194.92 392.64,193.69 392.77,196.15 392.90,191.84 393.03,192.46 393.16,194.92 393.29,193.69 393.41,194.92 393.54,191.84 393.67,194.92 393.80,193.69 393.93,179.53 394.06,191.84 394.19,194.92 394.31,193.69 394.44,191.84 394.57,191.23 394.70,191.84 394.83,193.69 394.96,191.84 395.09,68.69 395.21,194.92 395.34,191.23 395.47,191.84 395.60,191.23 395.73,191.23 395.86,191.23 395.99,193.69 396.11,192.46 396.24,191.84 396.37,188.76 396.50,193.69 396.63,193.69 396.76,193.69 396.89,196.15 397.01,193.69 397.14,196.15 397.27,198.62 397.40,193.69 397.53,193.69 397.66,191.84 397.79,192.46 397.91,198.62 398.04,191.84 398.17,193.69 398.30,193.69 398.43,194.92 398.56,191.23 398.69,191.84 398.81,191.84 398.94,198.62 399.07,191.84 399.20,191.84 399.33,191.84 399.46,193.69 399.59,191.84 399.71,193.69 399.84,191.23 399.97,191.84 400.10,191.84 400.23,194.92 400.36,191.84 400.48,191.84 400.61,194.92 400.74,192.46 400.87,192.46 401.00,191.84 401.13,191.23 401.26,194.92 401.38,193.69 401.51,318.07 401.64,191.84 401.77,193.69 401.90,191.84 402.03,192.46 402.16,192.46 402.28,191.23 402.41,191.84 402.54,192.46 402.67,191.84 402.80,194.92 402.93,193.69 403.06,180.14 403.18,196.15 403.31,192.46 403.44,196.15 403.57,192.46 403.70,194.92 403.83,198.62 403.96,191.23 404.08,191.84 404.21,191.23 404.34,193.69 404.47,181.37 404.60,196.15 404.73,194.92 404.86,193.69 404.98,191.84 405.11,191.23 405.24,191.84 405.37,198.62 405.50,196.15 405.63,198.62 405.76,198.62 405.88,191.84 406.01,191.23 406.14,318.69 406.27,191.84 406.40,191.23 406.53,194.92 406.66,191.23 406.78,191.23 406.91,191.84 407.04,191.84 407.17,192.46 407.30,191.23 407.43,194.92 407.56,192.46 407.68,186.30 407.81,196.15 407.94,192.46 408.07,196.15 408.20,193.69 408.33,196.15 408.46,190.00 408.58,193.69 408.71,191.23 408.84,194.92 408.97,193.69 409.10,194.92 409.23,194.92 409.35,192.46 409.48,193.69 409.61,193.69 409.74,191.84 409.87,191.84 410.00,68.69 410.13,194.92 410.25,192.46 410.38,194.92 410.51,191.23 410.64,191.84 410.77,191.23 410.90,193.69 411.03,192.46 411.15,191.84 411.28,191.84 411.41,191.84 411.54,194.92 411.67,196.15 411.80,193.69 411.93,192.46 412.05,193.69 412.18,194.92 412.31,192.46 412.44,193.69 412.57,191.23 412.70,194.92 412.83,198.62 412.95,194.92 413.08,191.23 413.21,198.62 413.34,193.69 413.47,191.23 413.60,191.23 413.73,191.23 413.85,198.62 413.98,193.69 414.11,191.84 414.24,198.62 414.37,192.46 414.50,194.92 414.63,191.23 414.75,191.23 414.88,191.23 415.01,191.84 415.14,191.23 415.27,192.46 415.40,192.46 415.53,193.69 415.65,193.69 415.78,194.92 415.91,194.92 416.04,191.84 416.17,191.23 416.30,191.84 416.43,318.07 416.55,188.76 416.68,191.84 416.81,192.46 416.94,191.23 417.07,191.23 417.20,192.46 417.33,191.84 417.45,192.46 417.58,191.84 417.71,194.92 417.84,193.69 417.97,191.84 418.10,193.69 418.22,196.15 418.35,193.69 418.48,192.46 418.61,194.92 418.74,190.00 418.87,191.23 419.00,191.23 419.12,193.69 419.25,191.23 419.38,191.84 419.51,193.69 419.64,193.69 419.77,193.69 419.90,191.84 420.02,191.84 420.15,193.69 420.28,198.62 420.41,198.62 420.54,191.23 420.67,198.62 420.80,193.69 420.92,193.69 421.05,191.23 421.18,194.92 421.31,193.69 421.44,196.15 421.57,192.46 421.70,197.38 421.82,200.46 421.95,200.46 422.08,197.38 422.21,316.23 422.34,191.23 422.47,191.84 422.60,191.84 422.72,191.23 422.85,194.92 422.98,191.23 423.11,191.84 423.24,192.46 423.37,191.84 423.50,188.76 423.62,196.15 423.75,180.76 423.88,189.38 424.01,194.31 424.14,193.07 424.27,194.31 424.40,193.07 424.52,189.38 424.65,191.84 424.78,190.00 424.91,193.07 425.04,186.92 425.17,189.38 425.30,191.84 425.42,191.84 425.55,68.69 425.68,198.62 425.81,194.92 425.94,196.15 426.07,191.23 426.20,191.23 426.32,193.69 426.45,193.69 426.58,192.46 426.71,192.46 426.84,194.92 426.97,193.69 427.10,199.23 427.22,191.84 427.35,198.00 427.48,201.69 427.61,199.23 427.74,196.77 427.87,199.23 427.99,196.77 428.12,197.38 428.25,196.77 428.38,199.23 428.51,186.92 428.64,204.16 428.77,197.38 428.89,199.23 429.02,197.38 429.15,198.00 429.28,197.38 429.41,197.38 429.54,197.38 429.67,204.16 429.79,204.16 429.92,197.38 430.05,196.77 430.18,199.23 430.31,196.77 430.44,197.38 430.57,196.15 430.69,194.92 430.82,191.23 430.95,191.84 431.08,191.23 431.21,193.69 431.34,192.46 431.47,191.23 431.59,194.92 431.72,194.92 431.85,191.84 431.98,316.84 432.11,191.84 432.24,191.84 432.37,191.23 432.49,194.92 432.62,191.23 432.75,191.23 432.88,191.84 433.01,191.84 433.14,191.84 433.27,192.46 433.39,194.92 433.52,194.92 433.65,191.23 433.78,196.15 433.91,178.30 434.04,194.31 434.17,189.38 434.29,191.84 434.42,191.84 434.55,190.00 434.68,189.38 434.81,191.84 434.94,193.07 435.07,190.61 435.19,191.84 435.32,190.61 435.45,190.00 435.58,191.84 435.71,190.00 435.84,68.69 435.97,191.84 436.09,191.84 436.22,191.84 436.35,193.69 436.48,196.15 436.61,191.23 436.74,191.84 436.86,191.23 436.99,191.84 437.12,188.76 437.25,188.76 437.38,190.00 437.51,191.84 437.64,196.15 437.76,196.15 437.89,191.23 438.02,191.23 438.15,188.76 438.28,193.69 438.41,191.84 438.54,194.92 438.66,197.38 438.79,200.46 438.92,188.76 439.05,196.15 439.18,188.76 439.31,191.23 439.44,191.84 439.56,188.76 439.69,198.62 439.82,196.15 439.95,198.62 440.08,198.62 440.21,197.38 440.34,200.46 440.46,188.76 440.59,188.76 440.72,194.92 440.85,188.76 440.98,191.84 441.11,196.15 441.24,194.92 441.36,188.76 441.49,191.84 441.62,191.84 441.75,191.23 441.88,197.38 442.01,196.77 442.14,188.76 442.26,318.07 442.39,188.76 442.52,191.84 442.65,191.84 442.78,188.76 442.91,188.76 443.04,193.69 443.16,193.69 443.29,194.92 443.42,193.69 443.55,193.69 443.68,191.84 443.81,191.23 443.94,191.23 444.06,194.92 444.19,193.69 444.32,196.15 444.45,188.76 444.58,193.69 444.71,193.69 444.84,191.23 444.96,191.23 445.09,193.69 445.22,191.23 445.35,194.92 445.48,194.92 445.61,191.84 445.73,191.84 445.86,193.69 445.99,191.84 446.12,198.62 446.25,194.92 446.38,191.84 446.51,198.62 446.63,193.69 446.76,191.84 446.89,191.84 447.02,191.84 447.15,191.84 447.28,194.92 447.41,194.92 447.53,193.69 447.66,191.84 447.79,180.14 447.92,194.92 448.05,191.84 448.18,191.84 448.31,194.92 448.43,191.84 448.56,191.84 448.69,315.00 448.82,191.84 448.95,192.46 449.08,191.84 449.21,193.69 449.33,191.23 449.46,192.46 449.59,191.84 449.72,192.46 449.85,191.84 449.98,192.46 450.11,193.69 450.23,194.92 450.36,191.23 450.49,193.69 450.62,191.23 450.75,193.69 450.88,191.23 451.01,193.69 451.13,193.69 451.26,191.84 451.39,192.46 451.52,191.23 451.65,193.69 451.78,196.15 451.91,193.69 452.03,193.69 452.16,194.92 452.29,191.84 452.42,191.23 452.55,191.84 452.68,198.62 452.81,192.46 452.93,198.62 453.06,191.23 453.19,192.46 453.32,192.46 453.45,193.69 453.58,194.92 453.71,191.84 453.83,194.92 453.96,191.84 454.09,191.23 454.22,192.46 454.35,194.92 454.48,194.92 454.61,196.15 454.73,191.84 454.86,196.15 454.99,194.92 455.12,316.84 455.25,191.84 455.38,191.84 455.50,191.84 455.63,191.23 455.76,191.23 455.89,191.23 456.02,191.23 456.15,192.46 456.28,191.84 456.40,194.92 456.53,192.46 456.66,182.61 456.79,190.00 456.92,192.46 457.05,191.23 457.18,191.23 457.30,194.92 457.43,186.30 457.56,193.69 457.69,194.92 457.82,194.92 457.95,188.76 458.08,191.23 458.20,193.69 458.33,194.92 458.46,194.92 458.59,191.84 458.72,191.84 458.85,191.84 458.98,68.69 459.10,191.84 459.23,194.92 459.36,191.84 459.49,191.23 459.62,191.84 459.75,191.23 459.88,194.92 460.00,192.46 460.13,194.92 460.26,194.92 460.39,191.23 460.52,191.84 460.65,185.68 460.78,201.69 460.90,204.16 461.03,201.69 461.16,200.46 461.29,196.77 461.42,199.23 461.55,204.16 461.68,196.77 461.80,199.23 461.93,196.77 462.06,197.38 462.19,199.23 462.32,199.23 462.45,192.46 462.58,198.62 462.70,191.84 462.83,194.92 462.96,198.62 463.09,198.62 463.22,198.62 463.35,196.15 463.48,191.23 463.60,191.84 463.73,191.84 463.86,194.92 463.99,191.23 464.12,188.76 464.25,191.84 464.37,194.92 464.50,192.46 464.63,193.69 464.76,191.84 464.89,194.92 465.02,191.23 465.15,191.84 465.27,200.46 465.40,327.31 465.53,191.84 465.66,198.62 465.79,188.76 465.92,188.76 466.05,191.23 466.17,194.92 466.30,191.84 466.43,193.69 466.56,186.30 466.69,188.76 466.82,188.76 466.95,182.61 467.07,196.15 467.20,194.92 467.33,196.15 467.46,196.15 467.59,192.46 467.72,191.23 467.85,193.69 467.97,191.23 468.10,194.92 468.23,191.84 468.36,191.23 468.49,191.84 468.62,193.69 468.75,188.76 468.87,191.84 469.00,191.84 469.13,191.84 469.26,198.62 469.39,191.23 469.52,198.62 469.65,198.62 469.77,191.84 469.90,191.84 470.03,191.84 470.16,192.46 470.29,188.76 470.42,191.84 470.55,191.23 470.67,193.69 470.80,191.84 470.93,192.46 471.06,191.23 471.19,191.84 471.32,191.84 471.45,194.92 471.57,191.84 471.70,191.84 471.83,314.38 471.96,191.84 472.09,191.84 472.22,196.15 472.35,194.92 472.47,191.23 472.60,191.23 472.73,191.84 472.86,192.46 472.99,191.84 473.12,188.76 473.24,194.92 473.37,191.84 473.50,196.15 473.63,186.30 473.76,196.15 473.89,192.46 474.02,194.92 474.14,188.76 474.27,193.69 474.40,196.15 474.53,191.84 474.66,191.23 474.79,192.46 474.92,196.15 475.04,193.69 475.17,193.69 475.30,191.84 475.43,194.92 475.56,191.84 475.69,198.62 475.82,188.76 475.94,198.62 476.07,191.23 476.20,194.92 476.33,192.46 476.46,193.69 476.59,192.46 476.72,194.92 476.84,191.23 476.97,192.46 477.10,188.76 477.23,194.92 477.36,196.15 477.49,196.15 477.62,191.23 477.74,200.46 477.87,196.77 478.00,198.00 478.13,194.31 478.26,323.62 478.39,191.84 478.52,191.23 478.64,191.84 478.77,191.23 478.90,191.23 479.03,191.84 479.16,191.84 479.29,191.84 479.42,191.84 479.54,194.92 479.67,191.23 479.80,194.92 479.93,191.84 480.06,193.69 480.19,191.23 480.32,194.92 480.44,191.23 480.57,193.69 480.70,193.69 480.83,194.92 480.96,194.92 481.09,191.23 481.22,194.92 481.34,193.69 481.47,192.46 481.60,193.69 481.73,191.23 481.86,191.84 481.99,191.84 482.12,198.62 482.24,198.62 482.37,180.14 482.50,193.69 482.63,191.84 482.76,191.23 482.89,196.15 483.01,191.23 483.14,194.92 483.27,192.46 483.40,194.92 483.53,191.84 483.66,194.92 483.79,191.23 483.91,193.69 484.04,193.69 484.17,196.15 484.30,194.92 484.43,194.92 484.56,194.92 484.69,314.38 484.81,193.69 484.94,191.84 485.07,191.84 485.20,192.46 485.33,191.23 485.46,196.15 485.59,188.76 485.71,191.84 485.84,191.84 485.97,194.92 486.10,187.53 486.23,194.92 486.36,196.15 486.49,194.92 486.61,196.15 486.74,192.46 486.87,180.14 487.00,194.92 487.13,192.46 487.26,191.84 487.39,194.92 487.51,186.30 487.64,194.92 487.77,188.76 487.90,188.76 488.03,194.92 488.16,190.00 488.29,194.92 488.41,196.15 488.54,194.92 488.67,191.23 488.80,188.76 488.93,198.62 489.06,191.84 489.19,193.69 489.31,193.69 489.44,194.92 489.57,197.38 489.70,198.00 489.83,196.77 489.96,201.69 490.09,198.00 490.21,198.00 490.34,200.46 490.47,196.77 490.60,201.69 490.73,198.00 490.86,198.00 490.99,196.77 491.11,324.85 491.24,193.69 491.37,191.84 491.50,192.46 491.63,192.46 491.76,191.23 491.88,191.23 492.01,191.84 492.14,194.92 492.27,192.46 492.40,193.69 492.53,181.37 492.66,192.46 492.78,192.46 492.91,180.14 493.04,193.69 493.17,196.15 493.30,194.92 493.43,193.69 493.56,193.69 493.68,194.92 493.81,196.15 493.94,194.92 494.07,194.92 494.20,191.23 494.33,194.92 494.46,191.84 494.58,192.46 494.71,191.84 494.84,191.84 494.97,198.62 495.10,194.92 495.23,191.84 495.36,198.62 495.48,194.92 495.61,194.92 495.74,185.68 495.87,200.46 496.00,198.00 496.13,196.77 496.26,197.38 496.38,199.23 496.51,201.69 496.64,196.77 496.77,198.00 496.90,200.46 497.03,200.46 497.16,196.77 497.28,196.77 497.41,198.00 497.54,320.54 497.67,191.84 497.80,188.76 497.93,191.23 498.06,191.23 498.18,191.23 498.31,191.23 498.44,192.46 498.57,192.46 498.70,196.15 498.83,194.92 498.96,191.84 499.08,180.76 499.21,193.07 499.34,194.31 499.47,194.31 499.60,68.69 499.73,193.69 499.86,191.84 499.98,191.84 500.11,191.23 500.24,188.76 500.37,191.84 500.50,191.84 500.63,191.84 500.76,191.23 500.88,191.84 501.01,193.69 501.14,194.92 501.27,191.23 501.40,196.15 501.53,196.15 501.65,188.76 501.78,188.76 501.91,192.46 502.04,191.23 502.17,191.84 502.30,191.84 502.43,196.15 502.55,194.92 502.68,193.69 502.81,188.76 502.94,198.62 503.07,194.92 503.20,194.92 503.33,191.84 503.45,198.62 503.58,198.62 503.71,191.84 503.84,198.62 503.97,191.84 504.10,191.84 504.23,193.69 504.35,191.84 504.48,191.84 504.61,191.23 504.74,194.92 504.87,191.23 505.00,191.84 505.13,198.62 505.25,193.69 505.38,191.23 505.51,192.46 505.64,194.92 505.77,193.69 505.90,191.23 506.03,314.38 506.15,192.46 506.28,193.69 506.41,191.84 506.54,191.23 506.67,191.23 506.80,192.46 506.93,191.23 507.05,188.76 507.18,191.23 507.31,191.23 507.44,193.69 507.57,191.84 507.70,196.15 507.83,192.46 507.95,191.84 508.08,191.84 508.21,194.92 508.34,192.46 508.47,193.69 508.60,191.84 508.73,191.84 508.85,194.92 508.98,194.92 509.11,188.76 509.24,193.69 509.37,192.46 509.50,193.69 509.63,191.84 509.75,192.46 509.88,198.62 510.01,191.23 510.14,193.69 510.27,191.23 510.40,191.84 510.52,191.84 510.65,196.15 510.78,196.15 510.91,194.92 511.04,194.92 511.17,191.84 511.30,194.92 511.42,191.84 511.55,193.69 511.68,191.23 511.81,193.69 511.94,191.84 512.07,191.23 512.20,194.92 512.32,191.84 512.45,315.00 512.58,191.84 512.71,191.84 512.84,191.84 512.97,191.23 513.10,191.23 513.22,191.84 513.35,191.84 513.48,191.23 513.61,191.84 513.74,191.23 513.87,191.84 514.00,194.92 514.12,180.14 514.25,194.92 514.38,198.62 514.51,196.15 514.64,196.15 514.77,193.69 514.90,192.46 515.02,188.76 515.15,191.23 515.28,193.69 515.41,196.15 515.54,188.76 515.67,188.76 515.80,193.69 515.92,191.84 516.05,191.84 516.18,191.84 516.31,198.62 516.44,196.15 516.57,194.92 516.70,192.46 516.82,188.76 516.95,188.76 517.08,191.84 517.21,196.15 517.34,191.23 517.47,191.23 517.60,188.76 517.72,194.92 517.85,191.23 517.98,192.46 518.11,191.23 518.24,194.92 518.37,192.46 518.50,193.69 518.62,191.84 518.75,191.23 518.88,319.31 519.01,191.84 519.14,191.84 519.27,191.84 519.39,191.23 519.52,191.23 519.65,188.76 519.78,191.84 519.91,191.23 520.04,188.76 520.17,191.23 520.29,194.92 520.42,182.61 520.55,188.76 520.68,196.15 520.81,191.84 520.94,196.15 521.07,191.23 521.19,191.84 521.32,194.92 521.45,194.92 521.58,188.76 521.71,191.23 521.84,194.92 521.97,188.76 522.09,188.76 522.22,188.76 522.35,196.15 522.48,180.14 522.61,191.84 522.74,194.92 522.87,198.62 522.99,194.92 523.12,198.62 523.25,188.76 523.38,191.23 523.51,192.46 523.64,192.46 523.77,191.23 523.89,180.14 524.02,196.15 524.15,196.15 524.28,192.46 524.41,191.23 524.54,194.92 524.67,194.92 524.79,194.92 524.92,191.84 525.05,192.46 525.18,196.15 525.31,315.61 525.44,191.84 525.57,191.23 525.69,191.84 525.82,191.23 525.95,191.84 526.08,191.23 526.21,191.84 526.34,193.69 526.47,191.84 526.59,191.84 526.72,186.30 526.85,188.76 526.98,193.69 527.11,196.15 527.24,191.23 527.37,191.84 527.49,180.14 527.62,190.00 527.75,191.84 527.88,194.92 528.01,194.92 528.14,193.69 528.27,196.15 528.39,191.23 528.52,188.76 528.65,191.23 528.78,191.23 528.91,192.46 529.04,191.84 529.16,191.23 529.29,196.15 529.42,186.92 529.55,191.84 529.68,191.84 529.81,193.07 529.94,189.38 530.06,194.31 530.19,190.00 530.32,189.38 530.45,189.38 530.58,193.07 530.71,190.61 530.84,185.68 530.96,68.69 531.09,192.46 531.22,191.23 531.35,191.84 531.48,194.92 531.61,191.23 531.74,193.69 531.86,191.84 531.99,188.76 532.12,191.23 532.25,194.92 532.38,193.69 532.51,194.92 532.64,187.53 532.76,196.15 532.89,196.15 533.02,196.15 533.15,194.92 533.28,192.46 533.41,194.92 533.54,191.84 533.66,186.30 533.79,192.46 533.92,198.62 534.05,188.76 534.18,191.84 534.31,196.15 534.44,190.00 534.56,191.84 534.69,196.15 534.82,198.62 534.95,191.23 535.08,198.62 535.21,198.62 535.34,193.69 535.46,191.23 535.59,192.46 535.72,191.84 535.85,194.92 535.98,196.15 536.11,191.84 536.24,191.23 536.36,198.62 536.49,194.92 536.62,193.69 536.75,196.15 536.88,191.23 537.01,191.23 537.14,191.23 537.26,192.46 537.39,315.00 537.52,191.84 537.65,188.76 537.78,191.84 537.91,191.23 538.03,198.62 538.16,191.23 538.29,192.46 538.42,191.23 538.55,191.84 538.68,191.23 538.81,191.23 538.93,182.61 539.06,194.92 539.19,191.84 539.32,196.15 539.45,192.46 539.58,191.84 539.71,191.84 539.83,194.92 539.96,193.69 540.09,191.23 540.22,193.69 540.35,191.23 540.48,194.92 540.61,191.84 540.73,193.69 540.86,191.84 540.99,191.84 541.12,191.84 541.25,194.92 541.38,191.23 541.51,198.62 541.63,192.46 541.76,193.69 541.89,192.46 542.02,192.46 542.15,199.23 542.28,196.77 542.41,200.46 542.53,198.00 542.66,198.00 542.79,196.77 542.92,196.77 543.05,200.46 543.18,200.46 543.31,200.46 543.43,196.77 543.56,200.46 543.69,200.46 543.82,324.85 543.95,191.23 544.08,191.84 544.21,191.84 544.33,191.23 544.46,191.23 544.59,193.69 544.72,192.46 544.85,191.23 544.98,191.84 545.11,193.69 545.23,191.23 545.36,196.15 545.49,196.15 545.62,191.23 545.75,191.23 545.88,196.15 546.01,194.92 546.13,191.84 546.26,193.69 546.39,191.84 546.52,191.23 546.65,193.69 546.78,194.92 546.90,193.69 547.03,193.69 547.16,194.92 547.29,193.69 547.42,193.69 547.55,191.84 547.68,198.62 547.80,191.84 547.93,198.62 548.06,191.84 548.19,193.69 548.32,192.46 548.45,194.92 548.58,196.15 548.70,193.69 548.83,192.46 548.96,193.69 549.09,191.23 549.22,191.23 549.35,191.23 549.48,194.92 549.60,193.69 549.73,191.23 549.86,191.84 549.99,191.84 550.12,192.46 550.25,315.61 550.38,191.84 550.50,196.15 550.63,191.84 550.76,191.23 550.89,191.23 551.02,194.92 551.15,191.84 551.28,192.46 551.40,191.84 551.53,184.45 551.66,193.07 551.79,193.07 551.92,68.69 552.05,194.92 552.18,191.84 552.30,191.84 552.43,191.84 552.56,191.23 552.69,191.23 552.82,186.30 552.95,191.84 553.08,193.69 553.20,193.69 553.33,194.92 553.46,194.92 553.59,188.76 553.72,196.15 553.85,191.23 553.98,196.15 554.10,191.84 554.23,188.76 554.36,192.46 554.49,194.92 554.62,191.23 554.75,193.69 554.88,191.23 555.00,191.23 555.13,188.76 555.26,188.76 555.39,191.84 555.52,191.23 555.65,192.46 555.78,198.62 555.90,198.62 556.03,194.92 556.16,198.62 556.29,190.00 556.42,191.23 556.55,188.76 556.67,194.92 556.80,188.76 556.93,194.92 557.06,188.76 557.19,193.69 557.32,191.23 557.45,193.69 557.57,187.53 557.70,194.92 557.83,191.84 557.96,191.23 558.09,196.15 558.22,190.00 558.35,321.77 558.47,196.15 558.60,188.76 558.73,194.92 558.86,191.23 558.99,191.23 559.12,193.69 559.25,191.23 559.37,192.46 559.50,186.30 559.63,194.92 559.76,194.92 559.89,191.23 560.02,196.15 560.15,191.23 560.27,196.15 560.40,191.84 560.53,194.92 560.66,188.76 560.79,190.00 560.92,181.37 561.05,192.46 561.17,188.76 561.30,191.23 561.43,187.53 561.56,191.84 561.69,193.69 561.82,188.76 561.95,191.84 562.07,191.23 562.20,191.84 562.33,198.62 562.46,198.62 562.59,193.69 562.72,182.61 562.85,194.92 562.97,191.84 563.10,191.84 563.23,188.76 563.36,191.84 563.49,191.84 563.62,194.92 563.75,191.84 563.87,191.84 564.00,191.23 564.13,191.84 564.26,192.46 564.39,191.84 564.52,191.84 564.65,191.23 564.77,314.38 564.90,193.69 565.03,191.84 565.16,188.76 565.29,192.46 565.42,191.84 565.54,193.69 565.67,191.84 565.80,192.46 565.93,192.46 566.06,193.69 566.19,193.69 566.32,192.46 566.44,191.23 566.57,194.92 566.70,194.92 566.83,191.23 566.96,194.92 567.09,191.23 567.22,193.69 567.34,196.15 567.47,194.92 567.60,193.69 567.73,196.15 567.86,194.92 567.99,188.76 568.12,191.84 568.24,196.15 568.37,191.84 568.50,191.84 568.63,191.84 568.76,193.69 568.89,198.62 569.02,194.92 569.14,191.84 569.27,196.15 569.40,191.84 569.53,191.23 569.66,191.84 569.79,192.46 569.92,191.84 570.04,191.23 570.17,191.23 570.30,191.23 570.43,191.23 570.56,191.23 570.69,192.46 570.82,193.69 570.94,191.84 571.07,198.62 571.20,311.92 571.33,194.92 571.46,190.00 571.59,187.53 571.72,194.92 571.84,191.23 571.97,193.69 572.10,194.92 572.23,191.23 572.36,191.23 572.49,194.92 572.62,193.69 572.74,191.84 572.87,198.62 573.00,188.76 573.13,196.15 573.26,191.23 573.39,191.84 573.52,192.46 573.64,191.84 573.77,191.23 573.90,194.92 574.03,191.84 574.16,191.23 574.29,193.69 574.41,193.69 574.54,193.69 574.67,191.84 574.80,191.84 574.93,194.92 575.06,191.23 575.19,191.23 575.31,198.62 575.44,198.62 575.57,191.23 575.70,191.23 575.83,191.84 575.96,194.92 576.09,191.84 576.21,193.69 576.34,191.23 576.47,192.46 576.60,191.84 576.73,191.23 576.86,191.23 576.99,198.62 577.11,198.62 577.24,191.23 577.37,191.23 577.50,191.23 577.63,318.07 577.76,191.84 577.89,191.84 578.01,191.84 578.14,191.23 578.27,191.23 578.40,191.23 578.53,191.84 578.66,192.46 578.79,191.84 578.91,191.84 579.04,188.76 579.17,182.61 579.30,191.23 579.43,192.46 579.56,193.69 579.69,187.53 579.81,194.92 579.94,194.92 580.07,193.69 580.20,192.46 580.33,194.92 580.46,193.69 580.59,196.15 580.71,193.69 580.84,190.00 580.97,191.84 581.10,191.84 581.23,191.84 581.36,192.46 581.49,191.23 581.61,198.62 581.74,192.46 581.87,198.62 582.00,186.30 582.13,198.62 582.26,194.92 582.39,191.84 582.51,192.46 582.64,194.92 582.77,187.53 582.90,194.92 583.03,191.84 583.16,191.23 583.29,188.76 583.41,191.23 583.54,192.46 583.67,191.23 583.80,194.92 583.93,194.92 584.06,314.38 584.18,194.92 584.31,191.23 584.44,192.46 584.57,191.23 584.70,191.23 584.83,192.46 584.96,191.84 585.08,191.23 585.21,196.15 585.34,192.46 585.47,196.15 585.60,192.46 585.73,194.92 585.86,197.38 585.98,179.53 586.11,191.84 586.24,190.00 586.37,194.31 586.50,193.07 586.63,194.31 586.76,193.07 586.88,194.31 587.01,189.38 587.14,191.84 587.27,191.84 587.40,194.31 587.53,194.31 587.66,190.00 587.78,193.07 587.91,191.84 588.04,194.31 588.17,189.38 588.30,198.00 588.43,196.77 588.56,200.46 588.68,201.69 588.81,196.77 588.94,196.77 589.07,196.77 589.20,200.46 589.33,197.38 589.46,197.38 589.58,198.00 589.71,196.77 589.84,199.23 589.97,196.77 590.10,198.00 590.23,201.69 590.36,197.38 590.48,319.92 590.61,191.84 590.74,193.69 590.87,191.23 591.00,194.92 591.13,191.23 591.26,188.76 591.38,191.84 591.51,193.69 591.64,194.92 591.77,193.69 591.90,194.92 592.03,194.92 592.16,193.69 592.28,198.62 592.41,180.14 592.54,191.84 592.67,194.92 592.80,193.69 592.93,193.69 593.05,191.84 593.18,191.84 593.31,191.84 593.44,191.23 593.57,191.84 593.70,191.23 593.83,191.84 593.95,191.84 594.08,191.84 594.21,191.84 594.34,193.69 594.47,194.92 594.60,192.46 594.73,196.15 594.85,194.92 594.98,194.92 595.11,191.23 595.24,191.23 595.37,186.92 595.50,190.00 595.63,194.92 595.75,191.84 595.88,188.76 596.01,191.84 596.14,194.92 596.27,193.69 596.40,191.23 596.53,191.23 596.65,191.84 596.78,193.69 596.91,315.00 597.04,193.69 597.17,192.46 597.30,188.76 597.43,194.92 597.55,192.46 597.68,191.23 597.81,191.84 597.94,194.92 598.07,192.46 598.20,193.69 598.33,191.84 598.45,193.69 598.58,196.15 598.71,196.15 598.84,194.92 598.97,191.23 599.10,194.92 599.23,193.69 599.35,192.46 599.48,194.92 599.61,193.69 599.74,198.62 599.87,191.23 600.00,193.69 600.13,192.46 600.25,193.69 600.38,193.69 600.51,191.23 600.64,192.46 600.77,198.62 600.90,191.23 601.03,191.84 601.15,192.46 601.28,193.69 601.41,191.23 601.54,192.46 601.67,198.62 601.80,191.84 601.92,191.23 602.05,194.92 602.18,191.23 602.31,196.15 602.44,191.84 602.57,191.84 602.70,191.23 602.82,192.46 602.95,192.46 603.08,192.46 603.21,191.84 603.34,315.61 603.47,191.23 603.60,193.69 603.72,191.84 603.85,196.15 603.98,188.76 604.11,188.76 604.24,191.23 604.37,194.92 604.50,191.84 604.62,194.92 604.75,194.92 604.88,191.23 605.01,194.92 605.14,191.23 605.27,188.76 605.40,194.92 605.52,191.23 605.65,192.46 605.78,194.92 605.91,191.84 606.04,191.23 606.17,188.76 606.30,191.23 606.42,191.84 606.55,194.92 606.68,194.92 606.81,191.23 606.94,191.84 607.07,191.23 607.20,191.84 607.32,194.92 607.45,192.46 607.58,182.61 607.71,194.92 607.84,194.92 607.97,191.84 608.10,191.84 608.22,196.15 608.35,191.84 608.48,191.23 608.61,191.23 608.74,191.23 608.87,191.23 609.00,192.46 609.12,193.69 609.25,191.84 609.38,191.84 609.51,194.92 609.64,193.69 609.77,311.92 609.90,191.84 610.02,194.92 610.15,191.23 610.28,191.23 610.41,192.46 610.54,191.23 610.67,193.69 610.80,193.69 610.92,191.84 611.05,192.46 611.18,193.69 611.31,194.92 611.44,193.69 611.57,179.53 611.69,191.84 611.82,194.31 611.95,193.07 612.08,191.84 612.21,193.07 612.34,190.00 612.47,193.07 612.59,191.84 612.72,189.38 612.85,190.61 612.98,190.00 613.11,191.84 613.24,190.00 613.37,68.69 613.49,191.84 613.62,191.84 613.75,191.84 613.88,191.23 614.01,188.76 614.14,191.23 614.27,191.84 614.39,192.46 614.52,198.62 614.65,193.69 614.78,193.69 614.91,194.92 615.04,196.15 615.17,191.84 615.29,192.46 615.42,194.92 615.55,194.92 615.68,191.84 615.81,194.92 615.94,191.84 616.07,194.92 616.19,193.69 616.32,191.23 616.45,188.76 616.58,194.92 616.71,191.23 616.84,192.46 616.97,191.84 617.09,191.23 617.22,191.84 617.35,192.46 617.48,193.69 617.61,198.62 617.74,192.46 617.87,191.23 617.99,193.69 618.12,194.92 618.25,191.84 618.38,191.23 618.51,192.46 618.64,191.23 618.77,194.92 618.89,191.84 619.02,191.23 619.15,191.84 619.28,194.92 619.41,191.84 619.54,192.46 619.67,191.84 619.79,314.38 619.92,191.84 620.05,191.84 620.18,191.84 620.31,194.92 620.44,194.92 620.56,191.23 620.69,191.84 620.82,193.69 620.95,191.23 621.08,192.46 621.21,191.23 621.34,194.92 621.46,192.46 621.59,188.76 621.72,196.15 621.85,188.76 621.98,193.69 622.11,191.84 622.24,193.69 622.36,193.69 622.49,188.76 622.62,194.92 622.75,191.23 622.88,188.76 623.01,188.76 623.14,188.76 623.26,191.23 623.39,191.84 623.52,191.84 623.65,196.15 623.78,198.62 623.91,198.62 624.04,188.76 624.16,192.46 624.29,191.23 624.42,191.23 624.55,191.84 624.68,188.76 624.81,180.14 624.94,194.92 625.06,196.15 625.19,194.92 625.32,191.23 625.45,191.84 625.58,192.46 625.71,193.69 625.84,191.84 625.96,191.23 626.09,191.84 626.22,314.38 626.35,191.23 626.48,198.62 626.61,191.23 626.74,191.84 626.86,191.84 626.99,188.76 627.12,193.69 627.25,194.92 627.38,191.23 627.51,191.23 627.64,194.92 627.76,194.92 627.89,191.23 628.02,193.69 628.15,180.14 628.28,194.92 628.41,193.69 628.54,194.92 628.66,192.46 628.79,191.84 628.92,194.92 629.05,198.62 629.18,191.84 629.31,188.76 629.43,192.46 629.56,188.76 629.69,194.92 629.82,191.84 629.95,191.84 630.08,198.62 630.21,194.92 630.33,191.23 630.46,193.69 630.59,192.46 630.72,181.37 630.85,191.84 630.98,191.84 631.11,193.69 631.23,192.46 631.36,191.23 631.49,191.23 631.62,194.92 631.75,191.23 631.88,191.23 632.01,194.92 632.13,191.23 632.26,193.69 632.39,192.46 632.52,196.15 632.65,315.00 632.78,191.84 632.91,191.84 633.03,191.84 633.16,191.23 633.29,191.23 633.42,191.23 633.55,191.84 633.68,191.84 633.81,192.46 633.93,194.92 634.06,197.38 634.19,196.77 634.32,200.46 634.45,185.68 634.58,201.69 634.71,201.69 634.83,197.38 634.96,198.00 635.09,199.23 635.22,201.69 635.35,201.69 635.48,196.77 635.61,200.46 635.73,196.77 635.86,197.38 635.99,194.31 636.12,201.69 636.25,200.46 636.38,200.46 636.51,196.77 636.63,198.00 636.76,204.16 636.89,201.69 637.02,200.46 637.15,197.38 637.28,200.46 637.41,198.00 637.53,198.00 637.66,198.00 637.79,198.00 637.92,197.38 638.05,200.46 638.18,197.38 638.31,191.23 638.43,196.15 638.56,191.23 638.69,194.92 638.82,191.84 638.95,191.84 639.08,311.92 639.20,191.23 639.33,182.61 639.46,194.92 639.59,194.92 639.72,191.23 639.85,191.23 639.98,191.84 640.10,192.46 640.23,191.84 640.36,194.92 640.49,188.76 640.62,194.92 640.75,191.23 640.88,180.14 641.00,192.46 641.13,191.23 641.26,196.15 641.39,191.23 641.52,191.23 641.65,191.84 641.78,191.84 641.90,193.69 642.03,188.76 642.16,193.69 642.29,191.23 642.42,192.46 642.55,191.84 642.68,194.92 642.80,193.69 642.93,198.62 643.06,204.16 643.19,204.16 643.32,197.38 643.45,194.31 643.58,204.16 643.70,200.46 643.83,200.46 643.96,201.69 644.09,197.38 644.22,197.38 644.35,197.38 644.48,196.77 644.60,198.00 644.73,194.31 644.86,204.16 644.99,204.16 645.12,197.38 645.25,198.00 645.38,197.38 645.50,308.84 645.63,194.92 645.76,193.69 645.89,191.84 646.02,188.76 646.15,191.23 646.28,180.14 646.40,194.92 646.53,192.46 646.66,191.84 646.79,193.69 646.92,191.23 647.05,192.46 647.18,191.84 647.30,196.15 647.43,191.84 647.56,196.15 647.69,194.92 647.82,191.23 647.95,196.77 648.07,198.00 648.20,198.00 648.33,199.23 648.46,198.00 648.59,198.00 648.72,198.00 648.85,196.77 648.97,198.00 649.10,200.46 649.23,196.77 649.36,196.77 649.49,201.69 649.62,196.77 649.75,196.77 649.87,200.46 650.00,199.23 650.13,200.46 650.26,201.69 650.39,197.38 650.52,200.46 650.65,199.23 650.77,200.46 650.90,198.00 651.03,196.77 651.16,197.38 651.29,196.77 651.42,198.00 651.55,198.00 651.67,199.23 651.80,200.46 651.93,320.54 652.06,191.84 652.19,191.23 652.32,191.84 652.45,191.84 652.57,196.15 652.70,191.23 652.83,191.84 652.96,194.92 653.09,191.23 653.22,191.84 653.35,194.92 653.47,192.46 653.60,191.84 653.73,191.23 653.86,188.76 653.99,186.30 654.12,201.69 654.25,200.46 654.37,197.38 654.50,198.00 654.63,196.77 654.76,196.77 654.89,198.00 655.02,198.00 655.15,199.23 655.27,200.46 655.40,200.46 655.53,197.38 655.66,191.84 655.79,198.62 655.92,198.62 656.05,182.61 656.17,193.69 656.30,200.46 656.43,197.38 656.56,200.46 656.69,197.38 656.82,200.46 656.94,201.69 657.07,191.84 657.20,200.46 657.33,200.46 657.46,198.00 657.59,191.84 657.72,196.77 657.84,198.00 657.97,198.00 658.10,196.77 658.23,200.46 658.36,320.54 658.49,191.84 658.62,190.00 658.74,191.84 658.87,191.84 659.00,194.92 659.13,193.69 659.26,191.23 659.39,193.69 659.52,191.23 659.64,193.69 659.77,193.69 659.90,194.92 660.03,191.23 660.16,196.15 660.29,191.23 660.42,196.15 660.54,194.92 660.67,192.46 660.80,194.92 660.93,191.23 661.06,196.15 661.19,184.45 661.32,194.92 661.44,191.23 661.57,192.46 661.70,193.69 661.83,191.23 661.96,190.00 662.09,191.84 662.22,193.69 662.34,193.69 662.47,194.92 662.60,191.23 662.73,193.69 662.86,192.46 662.99,193.69 663.12,192.46 663.24,191.23 663.37,196.15 663.50,191.23 663.63,194.92 663.76,193.69 663.89,192.46 664.02,191.84 664.14,191.84 664.27,191.84 664.40,194.92 664.53,191.23 664.66,187.53 664.79,316.84 664.92,191.23 665.04,193.69 665.17,191.23 665.30,191.23 665.43,191.84 665.56,191.23 665.69,194.92 665.82,191.23 665.94,191.84 666.07,191.23 666.20,192.46 666.33,194.92 666.46,191.23 666.59,196.15 666.71,193.69 666.84,196.15 666.97,180.14 667.10,193.69 667.23,188.76 667.36,191.23 667.49,194.92 667.61,191.84 667.74,194.92 667.87,194.92 668.00,193.69 668.13,194.92 668.26,191.84 668.39,192.46 668.51,193.69 668.64,194.92 668.77,191.84 668.90,193.69 669.03,194.92 669.16,194.92 669.29,191.23 669.41,194.92 669.54,191.84 669.67,191.84 669.80,192.46 669.93,191.84 670.06,194.92 670.19,194.92 670.31,191.84 670.44,191.84 670.57,194.92 670.70,191.23 670.83,198.62 670.96,180.14 671.09,196.15 671.21,315.00 671.34,193.69 671.47,192.46 671.60,194.92 671.73,192.46 671.86,194.92 671.99,191.84 672.11,191.84 672.24,192.46 672.37,191.84 672.50,186.30 672.63,193.69 672.76,194.92 672.89,193.69 673.01,192.46 673.14,191.23 673.27,194.92 673.40,190.00 673.53,198.62 673.66,191.84 673.79,191.84 673.91,192.46 674.04,191.23 674.17,192.46 674.30,193.69 674.43,197.38 674.56,201.69 674.69,196.77 674.81,197.38 674.94,197.38 675.07,196.77 675.20,198.00 675.33,196.77 675.46,185.68 675.58,199.23 675.71,196.77 675.84,197.38 675.97,201.69 676.10,200.46 676.23,191.84 676.36,196.77 676.48,201.69 676.61,196.77 676.74,197.38 676.87,196.77 677.00,313.76 677.13,191.84 677.26,191.84 677.38,191.23 677.51,190.00 677.64,191.23 677.77,191.84 677.90,191.23 678.03,192.46 678.16,191.84 678.28,193.69 678.41,196.15 678.54,194.92 678.67,191.23 678.80,196.15 678.93,193.69 679.06,193.69 679.18,191.23 679.31,191.23 679.44,194.92 679.57,187.53 679.70,194.92 679.83,191.23 679.96,191.23 680.08,193.69 680.21,194.92 680.34,193.69 680.47,192.46 680.60,191.84 680.73,192.46 680.86,198.62 680.98,198.62 681.11,184.45 681.24,191.84 681.37,190.61 681.50,68.69 681.63,191.84 681.76,191.84 681.88,198.62 682.01,188.76 682.14,191.23 682.27,192.46 682.40,191.84 682.53,193.69 682.66,194.92 682.78,193.69 682.91,188.76 683.04,194.92 683.17,193.69 683.30,193.69 683.43,198.62 683.56,193.69 683.68,180.14 683.81,192.46 683.94,191.84 684.07,191.84 684.20,194.92 684.33,193.69 684.45,191.23 684.58,196.15 684.71,188.76 684.84,191.84 684.97,191.84 685.10,193.69 685.23,191.84 685.35,193.69 685.48,188.76 685.61,191.23 685.74,198.62 685.87,192.46 686.00,191.84 686.13,193.69 686.25,191.23 686.38,192.46 686.51,194.92 686.64,191.23 686.77,192.46 686.90,191.23 687.03,198.62 687.15,192.46 687.28,191.23 687.41,193.69 687.54,191.84 687.67,192.46 687.80,194.92 687.93,318.07 688.05,193.69 688.18,191.84 688.31,192.46 688.44,191.84 688.57,191.23 688.70,191.23 688.83,191.84 688.95,193.69 689.08,192.46 689.21,191.23 689.34,192.46 689.47,191.23 689.60,193.69 689.73,196.77 689.85,198.00 689.98,198.00 690.11,200.46 690.24,198.00 690.37,199.23 690.50,197.38 690.63,196.77 690.75,196.77 690.88,198.00 691.01,198.00 691.14,204.16 691.27,196.77 691.40,198.00 691.53,197.38 691.65,196.77 691.78,201.69 691.91,197.38 692.04,204.16 692.17,198.00 692.30,199.23 692.43,192.46 692.55,192.46 692.68,194.92 692.81,191.23 692.94,196.15 693.07,191.23 693.20,193.69 693.33,194.92 693.45,194.92 693.58,191.23 693.71,194.92 693.84,196.15 693.97,193.69 694.10,191.84 694.22,194.92 694.35,318.07 694.48,194.92 694.61,191.84 694.74,191.84 694.87,191.84 695.00,191.23 695.12,191.23 695.25,191.84 695.38,192.46 695.51,191.84 695.64,192.46 695.77,194.92 695.90,192.46 696.02,198.62 696.15,187.53 696.28,192.46 696.41,191.84 696.54,192.46 696.67,195.54 696.80,200.46 696.92,198.00 697.05,198.00 697.18,200.46 697.31,196.77 697.44,199.23 697.57,200.46 697.70,200.46 697.82,197.38 697.95,198.00 698.08,197.38 698.21,198.00 698.34,204.16 698.47,197.38 698.60,191.84 698.72,191.84 698.85,201.69 698.98,196.77 699.11,200.46 699.24,201.69 699.37,196.77 699.50,198.00 699.62,196.77 699.75,199.23 699.88,196.77 700.01,196.77 700.14,185.68 700.27,197.38 700.40,199.23 700.52,197.38 700.65,198.00 700.78,319.92 700.91,192.46 701.04,193.69 701.17,191.84 701.30,193.69 701.42,188.76 701.55,191.23 701.68,194.92 701.81,192.46 701.94,194.92 702.07,191.84 702.20,194.92 702.32,191.84 702.45,194.92 702.58,196.15 702.71,196.15 702.84,196.15 702.97,193.69 703.09,193.69 703.22,192.46 703.35,196.15 703.48,194.92 703.61,194.92 703.74,191.23 703.87,191.23 703.99,193.69 704.12,193.69 704.25,192.46 704.38,191.84 704.51,194.92 704.64,193.69 704.77,198.62 704.89,191.84 705.02,198.62 705.15,191.84 705.28,191.23 705.41,191.23 705.54,191.84 705.67,191.84 705.79,191.84 705.92,193.69 706.05,191.23 706.18,191.23 706.31,191.84 706.44,191.84 706.57,196.15 706.69,191.23 706.82,192.46 706.95,191.23 707.08,196.15 707.21,315.00 707.34,191.23 707.47,191.84 707.59,191.84 707.72,188.76 707.85,191.84 707.98,191.84 708.11,196.15 708.24,194.92 708.37,188.76 708.49,188.76 708.62,188.76 708.75,188.76 708.88,192.46 709.01,191.23 709.14,193.69 709.27,194.92 709.39,191.84 709.52,191.23 709.65,194.92 709.78,191.23 709.91,194.92 710.04,188.76 710.17,193.69 710.29,186.30 710.42,191.23 710.55,196.15 710.68,191.23 710.81,191.23 710.94,192.46 711.07,196.15 711.19,191.84 711.32,191.84 711.45,194.92 711.58,191.23 711.71,196.15 711.84,191.84 711.96,193.69 712.09,191.23 712.22,194.92 712.35,191.84 712.48,191.23 712.61,192.46 712.74,191.84 712.86,191.84 712.99,191.23 713.12,188.76 713.25,191.84 713.38,188.76 713.51,191.23 713.64,315.00 713.76,191.84 713.89,188.76 714.02,194.92 714.15,193.69 714.28,191.84 714.41,188.76 714.54,180.14 714.66,191.23 714.79,194.92 714.92,188.76 715.05,193.69 715.18,196.15 715.31,190.00 715.44,190.00 715.56,196.15 715.69,192.46 715.82,193.69 715.95,191.23 716.08,192.46 716.21,192.46 716.34,188.76 716.46,192.46 716.59,192.46 716.72,191.23 716.85,194.92 716.98,194.92 717.11,191.23 717.24,188.76 717.36,191.84 717.49,193.69 717.62,191.23 717.75,193.69 717.88,198.62 718.01,193.69 718.14,194.92 718.26,194.92 718.39,194.92 718.52,191.23 718.65,191.23 718.78,193.69 718.91,193.69 719.04,194.92 719.16,196.15 719.29,194.92 719.42,194.92 719.55,192.46 719.68,194.92 719.81,191.23 719.94,191.23 720.06,314.38 720.19,191.84 720.32,191.84 720.45,188.76 720.58,188.76 720.71,188.76 720.84,191.23 720.96,193.69 721.09,192.46 721.22,191.84 721.35,191.84 721.48,191.23 721.61,194.92 721.73,191.23 721.86,196.15 721.99,191.23 722.12,196.15 722.25,178.30 722.38,191.84 722.51,191.84 722.63,68.69 722.76,192.46 722.89,192.46 723.02,191.84 723.15,194.92 723.28,192.46 723.41,191.23 723.53,191.84 723.66,192.46 723.79,192.46 723.92,198.62 724.05,191.84 724.18,193.69 724.31,191.23 724.43,191.84 724.56,196.15 724.69,196.15 724.82,199.23 724.95,198.00 725.08,204.16 725.21,204.16 725.33,198.00 725.46,197.38 725.59,200.46 725.72,199.23 725.85,199.23 725.98,198.00 726.11,197.38 726.23,204.16 726.36,198.00 726.49,199.23 726.62,204.16 726.75,200.46 726.88,198.00 727.01,198.00 727.13,196.77 727.26,200.46 727.39,201.69 727.52,197.38 727.65,199.23 727.78,200.46 727.91,196.77 728.03,197.38 728.16,196.77 728.29,198.00 728.42,200.46 728.55,191.84 728.68,196.77 728.81,198.00 728.93,197.38 729.06,319.92 729.19,192.46 729.32,194.92 729.45,191.84 729.58,194.92 729.71,191.23 729.83,191.23 729.96,186.30 730.09,193.69 730.22,193.69 730.35,191.84 730.48,191.23 730.60,187.53 730.73,194.92 730.86,192.46 730.99,196.15 731.12,191.84 731.25,191.23 731.38,191.23 731.50,191.84 731.63,191.84 731.76,191.23 731.89,191.84 732.02,196.15 732.15,196.15 732.28,190.00 732.40,191.84 732.53,193.69 732.66,191.84 732.79,191.84 732.92,192.46 733.05,192.46 733.18,192.46 733.30,191.84 733.43,191.84 733.56,191.84 733.69,193.69 733.82,192.46 733.95,196.15 734.08,191.23 734.20,191.84 734.33,194.92 734.46,192.46 734.59,194.92 734.72,191.23 734.85,191.84 734.98,194.92 735.10,191.84 735.23,191.23 735.36,194.92 735.49,318.07 735.62,188.76 735.75,188.76 735.88,193.69 736.00,194.92 736.13,192.46 736.26,191.23 736.39,193.69 736.52,193.69 736.65,191.23 736.78,193.69 736.90,194.92 737.03,191.23 737.16,191.84 737.29,192.46 737.42,194.92 737.55,196.15 737.68,194.92 737.80,193.69 737.93,193.69 738.06,181.37 738.19,194.92 738.32,192.46 738.45,194.92 738.58,191.23 738.70,191.23 738.83,193.69 738.96,191.84 739.09,191.23 739.22,191.84 739.35,191.84 739.48,191.23 739.60,191.84 739.73,192.46 739.86,192.46 739.99,192.46 740.12,193.69 740.25,191.23 740.37,194.92 740.50,191.84 740.63,198.62 740.76,192.46 740.89,196.15 741.02,191.84 741.15,192.46 741.27,191.84 741.40,194.92 741.53,194.92 741.66,198.62 741.79,191.23 741.92,315.61 742.05,191.84 742.17,191.84 742.30,191.84 742.43,191.84 742.56,191.23 742.69,191.23 742.82,191.84 742.95,186.30 743.07,194.92 743.20,191.84 743.33,191.84 743.46,191.84 743.59,196.15 743.72,191.23 743.85,191.23 743.97,191.84 744.10,191.84 744.23,193.69 744.36,188.76 744.49,191.23 744.62,194.92 744.75,188.76 744.87,191.23 745.00,191.84 745.13,194.92 745.26,196.15 745.39,191.23 745.52,191.84 745.65,191.84 745.77,198.62 745.90,198.62 746.03,191.23 746.16,191.23 746.29,188.76 746.42,194.92 746.55,191.23 746.67,188.76 746.80,191.23 746.93,193.69 747.06,194.92 747.19,191.84 747.32,192.46 747.45,191.23 747.57,192.46 747.70,188.76 747.83,191.84 747.96,188.76 748.09,192.46 748.22,194.92 748.35,314.38 748.47,194.92 748.60,192.46 748.73,191.84 748.86,191.23 748.99,193.69 749.12,191.84 749.24,194.92 749.37,192.46 749.50,191.84 749.63,193.69 749.76,194.92 749.89,191.84 750.02,193.69 750.14,200.46 750.27,198.00 750.40,194.31 750.53,198.00 750.66,196.77 750.79,193.69 750.92,193.69 751.04,191.84 751.17,192.46 751.30,191.23 751.43,198.62 751.56,188.76 751.69,193.69 751.82,191.84 751.94,193.69 752.07,191.84 752.20,191.23 752.33,191.23 752.46,191.84 752.59,192.46 752.72,192.46 752.84,191.84 752.97,193.69 753.10,191.84 753.23,193.69 753.36,191.84 753.49,193.69 753.62,191.84 753.74,191.23 753.87,191.23 754.00,191.23 754.13,191.84 754.26,191.23 754.39,191.23 754.52,181.37 754.64,196.15 754.77,316.84 754.90,191.84 755.03,194.92 755.16,191.84 755.29,191.84 755.42,191.84 755.54,191.23 755.67,192.46 755.80,196.15 755.93,191.84 756.06,193.69 756.19,194.92 756.32,191.23 756.44,188.76 756.57,191.23 756.70,191.23 756.83,191.84 756.96,194.92 757.09,193.69 757.22,193.69 757.34,193.69 757.47,191.23 757.60,191.23 757.73,191.84 757.86,191.84 757.99,191.23 758.11,191.23 758.24,191.23 758.37,198.62 758.50,194.92 758.63,198.62 758.76,193.69 758.89,191.84 759.01,193.69 759.14,191.84 759.27,194.92 759.40,191.84 759.53,194.92 759.66,194.92 759.79,193.69 759.91,191.84 760.04,192.46 760.17,192.46 760.30,191.84 760.43,191.23 760.56,191.84 760.69,191.84 760.81,196.15 760.94,191.84 761.07,191.84 761.20,316.84 761.33,191.23 761.46,194.92 761.59,188.76 761.71,192.46 761.84,193.69 761.97,191.23 762.10,191.84 762.23,196.15 762.36,191.23 762.49,191.23 762.61,191.23 762.74,191.84 762.87,191.23 763.00,191.84 763.13,194.92 763.26,196.15 763.39,194.92 763.51,193.69 763.64,193.69 763.77,194.92 763.90,196.15 764.03,188.76 764.16,194.92 764.29,193.69 764.41,193.69 764.54,193.69 764.67,191.84 764.80,191.23 764.93,193.69 765.06,198.62 765.19,192.46 765.31,198.62 765.44,191.84 765.57,194.92 765.70,196.15 765.83,191.23 765.96,192.46 766.09,191.84 766.21,191.23 766.34,193.69 766.47,191.23 766.60,193.69 766.73,194.92 766.86,191.23 766.99,192.46 767.11,191.23 767.24,194.92 767.37,191.84 767.50,192.46 767.63,314.38 767.76,191.23 767.88,191.84 768.01,191.23 768.14,194.92 768.27,191.23 768.40,191.84 768.53,191.84 768.66,191.84 768.78,191.84 768.91,194.92 769.04,191.23 769.17,193.69 769.30,193.69 769.43,194.92 769.56,193.69 769.68,192.46 769.81,192.46 769.94,191.23 770.07,180.14 770.20,194.92 770.33,191.84 770.46,196.15 770.58,196.15 770.71,193.69 770.84,191.84 770.97,194.92 771.10,191.84 771.23,194.92 771.36,191.84 771.48,194.92 771.61,191.84 771.74,191.23 771.87,192.46 772.00,191.84 772.13,191.84 772.26,193.69 772.38,194.92 772.51,191.84 772.64,191.84 772.77,191.84 772.90,191.84 773.03,194.92 773.16,194.92 773.28,194.92 773.41,191.84 773.54,191.23 773.67,191.23 773.80,196.15 773.93,192.46 774.06,316.84 774.18,191.84 774.31,191.84 774.44,191.23 774.57,198.62 774.70,191.23 774.83,191.23 774.96,191.84 775.08,188.76 775.21,191.23 775.34,194.92 775.47,194.92 775.60,188.76 775.73,194.92 775.86,188.76 775.98,188.76 776.11,196.15 776.24,188.76 776.37,188.76 776.50,191.84 776.63,191.23 776.75,191.23 776.88,196.15 777.01,182.61 777.14,188.76 777.27,191.23 777.40,194.92 777.53,188.76 777.65,191.84 777.78,191.84 777.91,198.62 778.04,191.84 778.17,188.76 778.30,188.76 778.43,188.76 778.55,192.46 778.68,188.76 778.81,188.76 778.94,188.76 779.07,188.76 779.20,188.76 779.33,194.92 779.45,188.76 779.58,188.76 779.71,188.76 779.84,193.69 779.97,188.76 780.10,188.76 780.23,193.69 780.35,188.76 780.48,311.92 780.61,191.84 780.74,191.84 780.87,191.84 781.00,191.23 781.13,191.23 781.25,192.46 781.38,191.23 781.51,194.92 781.64,191.84 781.77,193.69 781.90,191.84 782.03,191.84 782.15,191.84 782.28,191.84 782.41,196.15 782.54,192.46 782.67,192.46 782.80,196.15 782.93,192.46 783.05,194.92 783.18,191.23 783.31,194.92 783.44,198.62 783.57,191.84 783.70,194.92 783.83,191.23 783.95,194.92 784.08,191.84 784.21,191.84 784.34,198.62 784.47,198.62 784.60,193.69 784.73,191.23 784.85,191.84 784.98,191.23 785.11,194.92 785.24,194.92 785.37,191.23 785.50,192.46 785.62,194.92 785.75,191.23 785.88,191.23 786.01,192.46 786.14,194.92 786.27,191.84 786.40,196.15 786.52,180.14 786.65,196.15 786.78,198.00 786.91,324.85 787.04,193.69 787.17,190.00 787.30,191.84 787.42,191.84 787.55,191.84 787.68,191.23 787.81,194.92 787.94,197.38 788.07,197.38 788.20,197.38 788.32,196.77 788.45,196.77 788.58,196.77 788.71,199.23 788.84,201.69 788.97,199.23 789.10,200.46 789.22,199.23 789.35,200.46 789.48,188.76 789.61,191.23 789.74,188.76 789.87,191.84 790.00,191.23 790.12,188.76 790.25,200.46 790.38,197.38 790.51,191.84 790.64,197.38 790.77,204.16 790.90,196.77 791.02,197.38 791.15,200.46 791.28,200.46 791.41,198.00 791.54,200.46 791.67,198.00 791.80,198.00 791.92,198.00 792.05,201.69 792.18,199.23 792.31,199.23 792.44,197.38 792.57,196.77 792.70,196.77 792.82,198.00 792.95,197.38 793.08,196.77 793.21,196.77 793.34,315.00 793.47,191.23 793.60,191.84 793.72,191.84 793.85,191.23 793.98,194.92 794.11,191.84 794.24,191.84 794.37,194.92 794.50,194.92 794.62,193.69 794.75,194.92 794.88,194.92 795.01,196.77 795.14,197.38 795.27,196.77 795.39,200.46 795.52,197.38 795.65,196.77 795.78,199.23 795.91,197.38 796.04,196.77 796.17,199.23 796.29,196.77 796.42,200.46 796.55,199.23 796.68,197.38 796.81,197.38 796.94,197.38 797.07,197.38 797.19,196.77 797.32,198.00 797.45,197.38 797.58,204.16 797.71,196.77 797.84,200.46 797.97,199.23 798.09,191.84 798.22,191.84 798.35,191.84 798.48,199.23 798.61,197.38 798.74,186.92 798.87,197.38 798.99,191.84 799.12,191.23 799.25,191.84 799.38,191.84 799.51,191.84 799.64,191.23 799.77,315.00 799.89,191.84 800.02,191.23 800.15,191.23 800.28,191.23 800.41,192.46 800.54,191.23 800.67,192.46 800.79,191.23 800.92,191.84 801.05,191.23 801.18,191.23 801.31,191.23 801.44,191.84 801.57,191.23 801.69,192.46 801.82,188.76 801.95,188.76 802.08,193.69 802.21,191.23 802.34,193.69 802.47,191.84 802.59,191.84 802.72,193.69 802.85,191.23 802.98,191.23 803.11,191.84 803.24,196.15 803.37,193.69 803.49,191.23 803.62,180.14 803.75,194.92 803.88,193.69 804.01,191.84 804.14,194.92 804.26,194.92 804.39,192.46 804.52,181.37 804.65,191.23 804.78,192.46 804.91,196.15 805.04,196.15 805.16,192.46 805.29,194.92 805.42,196.15 805.55,192.46 805.68,194.92 805.81,196.15 805.94,193.69 806.06,193.69 806.19,314.38 806.32,191.84 806.45,191.84 806.58,194.92 806.71,191.84 806.84,198.62 806.96,196.15 807.09,191.23 807.22,194.92 807.35,191.84 807.48,194.92 807.61,191.84 807.74,191.23 807.86,196.15 807.99,191.23 808.12,196.15 808.25,191.84 808.38,192.46 808.51,194.92 808.64,191.23 808.76,191.84 808.89,191.84 809.02,193.69 809.15,191.23 809.28,191.84 809.41,191.84 809.54,194.92 809.66,192.46 809.79,193.69 809.92,193.69 810.05,198.62 810.18,191.23 810.31,191.84 810.44,194.92 810.56,193.69 810.69,191.23 810.82,191.23 810.95,191.84 811.08,192.46 811.21,192.46 811.34,193.69 811.46,191.84 811.59,191.84 811.72,194.92 811.85,193.69 811.98,191.84 812.11,191.84 812.24,192.46 812.36,194.92 812.49,191.23 812.62,315.61 812.75,188.76 812.88,188.76 813.01,191.84 813.13,188.76 813.26,188.76 813.39,188.76 813.52,188.76 813.65,191.23 813.78,188.76 813.91,191.84 814.03,188.76 814.16,191.23 814.29,191.23 814.42,188.76 814.55,188.76 814.68,188.76 814.81,188.76 814.93,188.76 815.06,188.76 815.19,188.76 815.32,188.76 815.45,194.92 815.58,180.14 815.71,193.69 815.83,191.84 815.96,191.23 816.09,193.69 816.22,191.23 816.35,194.92 816.48,194.92 816.61,191.23 816.73,191.23 816.86,198.62 816.99,196.15 817.12,191.84 817.25,194.92 817.38,194.92 817.51,191.23 817.63,191.84 817.76,191.84 817.89,192.46 818.02,193.69 818.15,191.23 818.28,192.46 818.41,193.69 818.53,191.23 818.66,191.23 818.79,193.69 818.92,192.46 819.05,315.00 819.18,194.92 819.31,191.84 819.43,193.69 819.56,191.23 819.69,191.23 819.82,191.84 819.95,186.30 820.08,191.84 820.21,196.15 820.33,191.84 820.46,188.76 820.59,191.23 820.72,196.15 820.85,196.15 820.98,191.23 821.11,191.23 821.23,192.46 821.36,193.69 821.49,188.76 821.62,194.92 821.75,192.46 821.88,191.84 822.01,194.92 822.13,191.23 822.26,193.69 822.39,191.23 822.52,188.76 822.65,191.84 822.78,194.92 822.90,194.92 823.03,191.84 823.16,191.23 823.29,191.23 823.42,191.84 823.55,193.69 823.68,182.61 823.80,194.92 823.93,194.92 824.06,193.69 824.19,194.92 824.32,191.23 824.45,191.84 824.58,193.69 824.70,194.92 824.83,191.84 824.96,192.46 825.09,191.23 825.22,193.69 825.35,194.92 825.48,314.38 825.60,191.84 825.73,188.76 825.86,194.92 825.99,191.23 826.12,198.62 826.25,191.84 826.38,193.69 826.50,191.84 826.63,192.46 826.76,191.84 826.89,193.69 827.02,194.92 827.15,180.14 827.28,196.15 827.40,191.23 827.53,191.23 827.66,196.15 827.79,191.84 827.92,193.69 828.05,192.46 828.18,193.69 828.30,196.15 828.43,191.84 828.56,194.92 828.69,191.23 828.82,191.84 828.95,191.84 829.08,191.84 829.20,191.84 829.33,193.69 829.46,191.23 829.59,194.92 829.72,191.23 829.85,194.92 829.98,191.84 830.10,191.84 830.23,194.92 830.36,191.23 830.49,194.92 830.62,194.92 830.75,193.69 830.88,191.84 831.00,191.84 831.13,192.46 831.26,191.23 831.39,194.92 831.52,191.23 831.65,194.92 831.77,192.46 831.90,318.07 832.03,191.23 832.16,193.69 832.29,191.84 832.42,191.84 832.55,192.46 832.67,194.92 832.80,193.69 832.93,191.23 833.06,192.46 833.19,192.46 833.32,196.15 833.45,192.46 833.57,191.84 833.70,191.84 833.83,191.23 833.96,196.15 834.09,193.69 834.22,191.23 834.35,192.46 834.47,191.23 834.60,191.84 834.73,191.84 834.86,194.92 834.99,193.69 835.12,192.46 835.25,193.69 835.37,194.92 835.50,192.46 835.63,192.46 835.76,196.15 835.89,192.46 836.02,194.92 836.15,198.62 836.27,192.46 836.40,191.84 836.53,191.84 836.66,192.46 836.79,194.92 836.92,196.15 837.05,197.38 837.17,198.00 837.30,200.46 837.43,198.00 837.56,201.69 837.69,200.46 837.82,199.23 837.95,200.46 838.07,198.00 838.20,197.38 838.33,319.92 838.46,191.23 838.59,196.15 838.72,191.84 838.85,188.76 838.97,191.84 839.10,191.23 839.23,191.84 839.36,194.92 839.49,194.92 839.62,193.69 839.75,188.76 839.87,194.92 840.00,197.38 840.13,196.77 840.26,197.38 840.39,198.00 840.52,197.38 840.64,198.00 840.77,191.84 840.90,196.77 841.03,198.00 841.16,200.46 841.29,198.00 841.42,199.23 841.54,200.46 841.67,201.69 841.80,204.16 841.93,198.00 842.06,197.38 842.19,196.77 842.32,196.77 842.44,200.46 842.57,204.16 842.70,200.46 842.83,199.23 842.96,199.23 843.09,200.46 843.22,199.23 843.34,197.38 843.47,198.00 843.60,200.46 843.73,197.38 843.86,201.69 843.99,197.38 844.12,197.38 844.24,199.23 844.37,197.38 844.50,196.77 844.63,198.00 844.76,320.54" fill="none" stroke="#2f6fed" stroke-width="2.5" stroke-linejoin="round" stroke-linecap="round" />
  <line x1="738" y1="68" x2="774" y2="68" stroke="#2f6fed" stroke-width="3" /><text x="782" y="72" font-size="13" fill="#263241">step reward</text>
</svg>
