<svg xmlns="http://www.w3.org/2000/svg" width="960" height="420" viewBox="0 0 960 420">
  <rect width="100%" height="100%" fill="#ffffff" />
  <text x="72" y="28" font-size="22" font-weight="700" fill="#17202a">Recovery Success Rate</text>
  <line x1="72" y1="348.00" x2="902" y2="348.00" stroke="#e7eaf0" stroke-width="1" /><text x="60" y="352.00" text-anchor="end" font-size="12" fill="#526071">-0.03</text><line x1="72" y1="288.00" x2="902" y2="288.00" stroke="#e7eaf0" stroke-width="1" /><text x="60" y="292.00" text-anchor="end" font-size="12" fill="#526071">0.19</text><line x1="72" y1="228.00" x2="902" y2="228.00" stroke="#e7eaf0" stroke-width="1" /><text x="60" y="232.00" text-anchor="end" font-size="12" fill="#526071">0.41</text><line x1="72" y1="168.00" x2="902" y2="168.00" stroke="#e7eaf0" stroke-width="1" /><text x="60" y="172.00" text-anchor="end" font-size="12" fill="#526071">0.64</text><line x1="72" y1="108.00" x2="902" y2="108.00" stroke="#e7eaf0" stroke-width="1" /><text x="60" y="112.00" text-anchor="end" font-size="12" fill="#526071">0.86</text><line x1="72" y1="48.00" x2="902" y2="48.00" stroke="#e7eaf0" stroke-width="1" /><text x="60" y="52.00" text-anchor="end" font-size="12" fill="#526071">1.08</text>
  <line x1="72" y1="48" x2="72" y2="348" stroke="#2f3a45" stroke-width="1.4" />
  <line x1="72" y1="348" x2="902" y2="348" stroke="#2f3a45" stroke-width="1.4" />
  <text x="487.0" y="392" text-anchor="middle" font-size="14" fill="#344052">Episode</text>
  <text x="18" y="198.0" text-anchor="middle" font-size="14" fill="#344052" transform="rotate(-90 18 198.0)">Rolling success rate</text>
  <text x="72" y="370" text-anchor="middle" font-size="12" fill="#526071">-9</text>
  <text x="902" y="370" text-anchor="middle" font-size="12" fill="#526071">130</text>
  <polyline points="129.24,68.69 135.25,68.69 141.27,159.43 147.28,204.81 153.29,232.03 159.31,250.18 165.32,263.14 171.33,272.86 177.34,280.43 183.36,259.25 189.37,266.68 195.38,272.86 201.39,278.10 207.41,282.59 213.42,286.48 219.43,272.86 225.45,276.87 231.46,280.43 237.47,283.61 243.48,286.48 249.50,300.09 255.51,313.70 261.52,300.09 267.53,286.48 273.55,286.48 279.56,286.48 285.57,286.48 291.59,286.48 297.60,286.48 303.61,300.09 309.62,300.09 315.64,300.09 321.65,300.09 327.66,300.09 333.67,300.09 339.69,313.70 345.70,313.70 351.71,313.70 357.73,300.09 363.74,300.09 369.75,300.09 375.76,300.09 381.78,300.09 387.79,313.70 393.80,300.09 399.82,300.09 405.83,300.09 411.84,286.48 417.85,286.48 423.87,286.48 429.88,272.86 435.89,272.86 441.90,259.25 447.92,259.25 453.93,259.25 459.94,259.25 465.96,245.64 471.97,245.64 477.98,259.25 483.99,259.25 490.01,259.25 496.02,259.25 502.03,272.86 508.04,259.25 514.06,272.86 520.07,272.86 526.08,272.86 532.10,286.48 538.11,272.86 544.12,272.86 550.13,286.48 556.15,286.48 562.16,286.48 568.17,286.48 574.18,286.48 580.20,286.48 586.21,300.09 592.22,300.09 598.24,300.09 604.25,300.09 610.26,300.09 616.27,300.09 622.29,286.48 628.30,300.09 634.31,300.09 640.33,300.09 646.34,300.09 652.35,300.09 658.36,313.70 664.38,313.70 670.39,313.70 676.40,313.70 682.41,327.31 688.43,313.70 694.44,313.70 700.45,313.70 706.47,313.70 712.48,313.70 718.49,313.70 724.50,313.70 730.52,300.09 736.53,300.09 742.54,313.70 748.55,313.70 754.57,313.70 760.58,313.70 766.59,313.70 772.61,313.70 778.62,313.70 784.63,313.70 790.64,313.70 796.66,313.70 802.67,313.70 808.68,327.31 814.69,327.31 820.71,327.31 826.72,327.31 832.73,327.31 838.75,327.31 844.76,327.31" fill="none" stroke="#1f8a99" stroke-width="2.5" stroke-linejoin="round" stroke-linecap="round" />
  <line x1="738" y1="68" x2="774" y2="68" stroke="#1f8a99" stroke-width="3" /><text x="782" y="72" font-size="13" fill="#263241">20 episode rate</text>
</svg>
