<svg xmlns="http://www.w3.org/2000/svg" width="960" height="420" viewBox="0 0 960 420">
  <rect width="100%" height="100%" fill="#ffffff" />
  <text x="72" y="28" font-size="22" font-weight="700" fill="#17202a">Training Loss</text>
  <line x1="72" y1="348.00" x2="902" y2="348.00" stroke="#e7eaf0" stroke-width="1" /><text x="60" y="352.00" text-anchor="end" font-size="12" fill="#526071">0.22</text><line x1="72" y1="288.00" x2="902" y2="288.00" stroke="#e7eaf0" stroke-width="1" /><text x="60" y="292.00" text-anchor="end" font-size="12" fill="#526071">0.95</text><line x1="72" y1="228.00" x2="902" y2="228.00" stroke="#e7eaf0" stroke-width="1" /><text x="60" y="232.00" text-anchor="end" font-size="12" fill="#526071">1.67</text><line x1="72" y1="168.00" x2="902" y2="168.00" stroke="#e7eaf0" stroke-width="1" /><text x="60" y="172.00" text-anchor="end" font-size="12" fill="#526071">2.40</text><line x1="72" y1="108.00" x2="902" y2="108.00" stroke="#e7eaf0" stroke-width="1" /><text x="60" y="112.00" text-anchor="end" font-size="12" fill="#526071">3.12</text><line x1="72" y1="48.00" x2="902" y2="48.00" stroke="#e7eaf0" stroke-width="1" /><text x="60" y="52.00" text-anchor="end" font-size="12" fill="#526071">3.85</text>
  <line x1="72" y1="48" x2="72" y2="348" stroke="#2f3a45" stroke-width="1.4" />
  <line x1="72" y1="348" x2="902" y2="348" stroke="#2f3a45" stroke-width="1.4" />
  <text x="487.0" y="392" text-anchor="middle" font-size="14" fill="#344052">Episode</text>
  <text x="18" y="198.0" text-anchor="middle" font-size="14" fill="#344052" transform="rotate(-90 18 198.0)">Mean TD loss</text>
  <text x="72" y="370" text-anchor="middle" font-size="12" fill="#526071">-1</text>
  <text x="902" y="370" text-anchor="middle" font-size="12" fill="#526071">22</text>
  <polyline points="129.24,221.49 166.90,169.84 204.56,78.63 242.22,244.28 279.88,233.87 317.54,242.35 355.19,220.52 392.85,208.66 430.51,271.60 468.17,257.95 505.83,68.69 543.49,250.42 581.15,182.26 618.81,194.10 656.46,327.31 694.12,285.98 731.78,299.43 769.44,128.45 807.10,295.54 844.76,117.06" fill="none" stroke="#6f4cc3" stroke-width="2.5" stroke-linejoin="round" stroke-linecap="round" /><polyline points="129.24,221.49 166.90,195.67 204.56,156.66 242.22,178.56 279.88,189.62 317.54,198.41 355.19,201.57 392.85,202.45 430.51,210.14 468.17,214.92 505.83,201.62 543.49,205.69 581.15,203.89 618.81,203.19 656.46,211.46 694.12,216.12 731.78,221.02 769.44,215.88 807.10,220.07 844.76,214.92" fill="none" stroke="#209a72" stroke-width="2.5" stroke-linejoin="round" stroke-linecap="round" />
  <line x1="738" y1="68" x2="774" y2="68" stroke="#6f4cc3" stroke-width="3" /><text x="782" y="72" font-size="13" fill="#263241">episode loss</text><line x1="738" y1="90" x2="774" y2="90" stroke="#209a72" stroke-width="3" /><text x="782" y="94" font-size="13" fill="#263241">20 episode average</text>
</svg>
