<svg xmlns="http://www.w3.org/2000/svg" width="960" height="420" viewBox="0 0 960 420">
  <rect width="100%" height="100%" fill="#ffffff" />
  <text x="72" y="28" font-size="22" font-weight="700" fill="#17202a">Training Reward</text>
  <line x1="72" y1="348.00" x2="902" y2="348.00" stroke="#e7eaf0" stroke-width="1" /><text x="60" y="352.00" text-anchor="end" font-size="12" fill="#526071">-34.95</text><line x1="72" y1="288.00" x2="902" y2="288.00" stroke="#e7eaf0" stroke-width="1" /><text x="60" y="292.00" text-anchor="end" font-size="12" fill="#526071">-24.79</text><line x1="72" y1="228.00" x2="902" y2="228.00" stroke="#e7eaf0" stroke-width="1" /><text x="60" y="232.00" text-anchor="end" font-size="12" fill="#526071">-14.63</text><line x1="72" y1="168.00" x2="902" y2="168.00" stroke="#e7eaf0" stroke-width="1" /><text x="60" y="172.00" text-anchor="end" font-size="12" fill="#526071">-4.47</text><line x1="72" y1="108.00" x2="902" y2="108.00" stroke="#e7eaf0" stroke-width="1" /><text x="60" y="112.00" text-anchor="end" font-size="12" fill="#526071">5.69</text><line x1="72" y1="48.00" x2="902" y2="48.00" stroke="#e7eaf0" stroke-width="1" /><text x="60" y="52.00" text-anchor="end" font-size="12" fill="#526071">15.85</text>
  <line x1="72" y1="48" x2="72" y2="348" stroke="#2f3a45" stroke-width="1.4" />
  <line x1="72" y1="348" x2="902" y2="348" stroke="#2f3a45" stroke-width="1.4" />
  <text x="487.0" y="392" text-anchor="middle" font-size="14" fill="#344052">Episode</text>
  <text x="18" y="198.0" text-anchor="middle" font-size="14" fill="#344052" transform="rotate(-90 18 198.0)">Total reward</text>
  <text x="72" y="370" text-anchor="middle" font-size="12" fill="#526071">-1</text>
  <text x="902" y="370" text-anchor="middle" font-size="12" fill="#526071">22</text>
  <polyline points="129.24,75.18 166.90,76.66 204.56,231.07 242.22,266.49 279.88,226.05 317.54,327.31 355.19,303.99 392.85,210.40 430.51,68.69 468.17,86.70 505.83,272.69 543.49,99.10 581.15,245.83 618.81,305.46 656.46,86.40 694.12,77.55 731.78,93.19 769.44,214.24 807.10,102.94 844.76,291.88" fill="none" stroke="#2f6fed" stroke-width="2.5" stroke-linejoin="round" stroke-linecap="round" /><polyline points="129.24,75.18 166.90,75.92 204.56,127.64 242.22,162.35 279.88,175.09 317.54,200.46 355.19,215.25 392.85,214.64 430.51,198.43 468.17,187.25 505.83,195.02 543.49,187.03 581.15,191.55 618.81,199.69 656.46,192.13 694.12,184.97 731.78,179.57 769.44,181.50 807.10,177.37 844.76,183.09" fill="none" stroke="#e05d2f" stroke-width="2.5" stroke-linejoin="round" stroke-linecap="round" />
  <line x1="738" y1="68" x2="774" y2="68" stroke="#2f6fed" stroke-width="3" /><text x="782" y="72" font-size="13" fill="#263241">episode reward</text><line x1="738" y1="90" x2="774" y2="90" stroke="#e05d2f" stroke-width="3" /><text x="782" y="94" font-size="13" fill="#263241">20 episode average</text>
</svg>
