<svg xmlns="http://www.w3.org/2000/svg" width="960" height="420" viewBox="0 0 960 420">
  <rect width="100%" height="100%" fill="#ffffff" />
  <text x="72" y="28" font-size="22" font-weight="700" fill="#17202a">Per-step Reward (all episodes)</text>
  <line x1="72" y1="348.00" x2="902" y2="348.00" stroke="#e7eaf0" stroke-width="1" /><text x="60" y="352.00" text-anchor="end" font-size="12" fill="#526071">-12.46</text><line x1="72" y1="288.00" x2="902" y2="288.00" stroke="#e7eaf0" stroke-width="1" /><text x="60" y="292.00" text-anchor="end" font-size="12" fill="#526071">-7.64</text><line x1="72" y1="228.00" x2="902" y2="228.00" stroke="#e7eaf0" stroke-width="1" /><text x="60" y="232.00" text-anchor="end" font-size="12" fill="#526071">-2.81</text><line x1="72" y1="168.00" x2="902" y2="168.00" stroke="#e7eaf0" stroke-width="1" /><text x="60" y="172.00" text-anchor="end" font-size="12" fill="#526071">2.01</text><line x1="72" y1="108.00" x2="902" y2="108.00" stroke="#e7eaf0" stroke-width="1" /><text x="60" y="112.00" text-anchor="end" font-size="12" fill="#526071">6.84</text><line x1="72" y1="48.00" x2="902" y2="48.00" stroke="#e7eaf0" stroke-width="1" /><text x="60" y="52.00" text-anchor="end" font-size="12" fill="#526071">11.66</text>
  <line x1="72" y1="48" x2="72" y2="348" stroke="#2f3a45" stroke-width="1.4" />
  <line x1="72" y1="348" x2="902" y2="348" stroke="#2f3a45" stroke-width="1.4" />
  <text x="487.0" y="392" text-anchor="middle" font-size="14" fill="#344052">Step index</text>
  <text x="18" y="198.0" text-anchor="middle" font-size="14" fill="#344052" transform="rotate(-90 18 198.0)">Reward</text>
  <text x="72" y="370" text-anchor="middle" font-size="12" fill="#526071">-67</text>
  <text x="902" y="370" text-anchor="middle" font-size="12" fill="#526071">921</text>
  <polyline points="129.24,193.03 130.08,193.03 130.92,193.03 131.76,192.40 132.60,192.40 133.44,192.40 134.28,196.13 135.12,197.38 135.96,193.03 136.80,194.89 137.64,194.89 138.48,196.13 139.32,193.03 140.16,196.13 141.00,192.40 141.84,181.21 142.68,192.40 143.52,185.57 144.36,189.30 145.20,186.81 146.04,194.27 146.88,194.27 147.72,194.27 148.56,193.03 149.40,193.03 150.24,194.27 151.08,191.16 151.92,191.16 152.76,191.16 153.60,68.69 154.44,193.03 155.28,193.03 156.12,193.03 156.96,192.40 157.79,192.40 158.63,192.40 159.47,193.03 160.31,196.13 161.15,193.03 161.99,189.92 162.83,193.03 163.67,181.84 164.51,194.27 165.35,195.51 166.19,195.51 167.03,194.27 167.87,194.27 168.71,193.03 169.55,193.03 170.39,191.16 171.23,194.27 172.07,193.03 172.91,190.54 173.75,193.03 174.59,190.54 175.43,193.03 176.27,194.27 177.11,191.16 177.95,191.16 178.79,68.69 179.63,193.03 180.47,193.03 181.31,191.16 182.15,192.40 182.99,192.40 183.83,192.40 184.67,194.89 185.51,192.40 186.35,193.03 187.19,196.13 188.03,193.65 188.87,196.13 189.71,199.87 190.55,197.38 191.39,196.13 192.23,197.38 193.07,181.21 193.91,194.89 194.75,194.89 195.59,193.03 196.43,196.13 197.27,194.89 198.11,192.40 198.95,193.03 199.79,189.92 200.63,196.13 201.46,193.03 202.30,193.03 203.14,193.03 203.98,199.87 204.82,199.87 205.66,199.87 206.50,199.87 207.34,193.03 208.18,194.89 209.02,197.38 209.86,192.40 210.70,193.03 211.54,197.38 212.38,194.89 213.22,187.43 214.06,192.40 214.90,193.03 215.74,196.13 216.58,197.38 217.42,193.03 218.26,193.65 219.10,196.13 219.94,193.03 220.78,317.99 221.62,193.03 222.46,193.03 223.30,199.87 224.14,192.40 224.98,192.40 225.82,194.89 226.66,193.03 227.50,193.65 228.34,193.03 229.18,194.89 230.02,194.89 230.86,196.13 231.70,192.40 232.54,197.38 233.38,181.21 234.22,197.38 235.06,199.24 235.90,201.73 236.74,193.03 237.58,194.27 238.42,198.00 239.26,199.24 240.10,201.73 240.94,200.49 241.78,200.49 242.62,198.62 243.46,198.62 244.30,198.62 245.14,193.03 245.97,199.87 246.81,199.87 247.65,199.87 248.49,199.87 249.33,192.40 250.17,193.03 251.01,193.03 251.85,193.65 252.69,196.13 253.53,193.65 254.37,193.65 255.21,196.13 256.05,192.40 256.89,193.03 257.73,192.40 258.57,196.13 259.41,193.65 260.25,193.03 261.09,205.46 261.93,202.97 262.77,317.36 263.61,193.03 264.45,193.03 265.29,193.03 266.13,192.40 266.97,197.38 267.81,192.40 268.65,193.03 269.49,192.40 270.33,193.03 271.17,189.92 272.01,194.89 272.85,196.13 273.69,197.38 274.53,197.38 275.37,197.38 276.21,197.38 277.05,181.21 277.89,194.89 278.73,194.89 279.57,193.03 280.41,196.13 281.25,193.65 282.09,192.40 282.93,189.92 283.77,189.92 284.61,193.03 285.45,193.03 286.29,193.03 287.13,193.03 287.97,199.87 288.81,193.03 289.64,193.65 290.48,199.87 291.32,193.65 292.16,193.03 293.00,197.38 293.84,194.89 294.68,189.92 295.52,196.13 296.36,196.13 297.20,193.03 298.04,197.38 298.88,196.13 299.72,196.13 300.56,193.03 301.40,192.40 302.24,196.13 303.08,194.89 303.92,192.40 304.76,321.72 305.60,189.92 306.44,197.38 307.28,191.16 308.12,192.40 308.96,192.40 309.80,192.40 310.64,193.03 311.48,193.65 312.32,193.03 313.16,189.92 314.00,193.65 314.84,201.73 315.68,199.24 316.52,202.97 317.36,201.73 318.20,202.97 319.04,201.73 319.88,198.00 320.72,200.49 321.56,198.62 322.40,198.00 323.24,201.73 324.08,198.00 324.92,200.49 325.76,200.49 326.60,200.49 327.44,198.62 328.28,198.62 329.12,198.00 329.96,205.46 330.80,205.46 331.64,205.46 332.48,205.46 333.31,198.62 334.15,195.51 334.99,198.62 335.83,198.00 336.67,198.62 337.51,198.62 338.35,201.73 339.19,187.43 340.03,201.73 340.87,198.62 341.71,201.73 342.55,198.62 343.39,199.24 344.23,201.73 345.07,199.24 345.91,198.00 346.75,323.58 347.59,193.03 348.43,193.03 349.27,193.03 350.11,192.40 350.95,192.40 351.79,192.40 352.63,193.03 353.47,193.65 354.31,193.03 355.15,193.03 355.99,187.43 356.83,183.70 357.67,192.40 358.51,197.38 359.35,194.89 360.19,196.13 361.03,196.13 361.87,200.49 362.71,200.49 363.55,198.62 364.39,201.73 365.23,200.49 366.07,198.00 366.91,200.49 367.75,200.49 368.59,198.62 369.43,198.62 370.27,198.00 371.11,198.00 371.95,198.62 372.79,201.73 373.63,205.46 374.47,205.46 375.31,198.62 376.15,193.03 376.99,198.00 377.82,198.62 378.66,198.62 379.50,202.97 380.34,201.73 381.18,200.49 382.02,199.24 382.86,198.62 383.70,200.49 384.54,198.00 385.38,198.00 386.22,201.73 387.06,198.00 387.90,201.73 388.74,322.96 389.58,193.03 390.42,193.03 391.26,193.03 392.10,192.40 392.94,192.40 393.78,192.40 394.62,193.03 395.46,194.89 396.30,193.03 397.14,194.89 397.98,194.89 398.82,196.13 399.66,197.38 400.50,197.38 401.34,197.38 402.18,197.38 403.02,181.21 403.86,193.65 404.70,194.89 405.54,193.03 406.38,197.38 407.22,196.13 408.06,192.40 408.90,189.92 409.74,189.92 410.58,192.40 411.42,193.03 412.26,193.03 413.10,193.03 413.94,197.38 414.78,197.38 415.62,197.38 416.46,192.40 417.30,188.05 418.14,191.16 418.98,191.78 419.82,194.27 420.66,195.51 421.49,191.78 422.33,193.03 423.17,195.51 424.01,191.16 424.85,195.51 425.69,195.51 426.53,191.78 427.37,190.54 428.21,195.51 429.05,191.16 429.89,191.16 430.73,315.50 431.57,193.03 432.41,193.03 433.25,193.03 434.09,192.40 434.93,194.89 435.77,179.35 436.61,191.16 437.45,191.78 438.29,191.16 439.13,193.03 439.97,193.03 440.81,190.54 441.65,195.51 442.49,194.27 443.33,195.51 444.17,191.78 445.01,190.54 445.85,190.54 446.69,193.03 447.53,194.27 448.37,194.27 449.21,193.03 450.05,190.54 450.89,188.05 451.73,193.03 452.57,194.27 453.41,191.16 454.25,191.16 455.09,191.16 455.93,68.69 456.77,193.03 457.61,193.03 458.45,193.03 459.29,194.89 460.13,192.40 460.97,193.65 461.81,193.03 462.65,196.13 463.49,193.03 464.33,193.03 465.16,194.89 466.00,196.13 466.84,199.87 467.68,197.38 468.52,197.38 469.36,193.03 470.20,188.67 471.04,187.43 471.88,196.13 472.72,193.03 473.56,196.13 474.40,196.13 475.24,180.59 476.08,191.78 476.92,193.03 477.76,194.27 478.60,193.03 479.44,191.16 480.28,191.16 481.12,68.69 481.96,193.03 482.80,193.03 483.64,193.03 484.48,192.40 485.32,192.40 486.16,192.40 487.00,187.43 487.84,193.65 488.68,193.03 489.52,189.92 490.36,189.92 491.20,183.70 492.04,197.38 492.88,197.38 493.72,202.97 494.56,198.00 495.40,201.73 496.24,193.03 497.08,196.76 497.92,194.27 498.76,198.00 499.60,200.49 500.44,198.00 501.28,200.49 502.12,200.49 502.96,200.49 503.80,198.62 504.64,198.62 505.48,199.24 506.32,205.46 507.16,205.46 508.00,205.46 508.84,205.46 509.67,196.13 510.51,196.13 511.35,196.13 512.19,196.13 513.03,193.65 513.87,193.65 514.71,196.13 515.55,192.40 516.39,192.40 517.23,196.13 518.07,192.40 518.91,193.03 519.75,196.13 520.59,194.89 521.43,197.38 522.27,196.13 523.11,316.74 523.95,193.03 524.79,196.13 525.63,196.13 526.47,192.40 527.31,192.40 528.15,192.40 528.99,193.03 529.83,193.65 530.67,193.65 531.51,196.13 532.35,196.13 533.19,196.13 534.03,181.21 534.87,197.38 535.71,196.13 536.55,197.38 537.39,196.13 538.23,194.89 539.07,192.40 539.91,193.65 540.75,196.13 541.59,196.13 542.43,194.89 543.27,194.89 544.11,194.89 544.95,194.89 545.79,193.03 546.63,192.40 547.47,193.03 548.31,194.89 549.15,68.69 549.99,193.03 550.83,193.03 551.67,193.03 552.51,192.40 553.34,192.40 554.18,192.40 555.02,193.03 555.86,192.40 556.70,199.87 557.54,194.89 558.38,194.89 559.22,196.13 560.06,181.21 560.90,197.38 561.74,197.38 562.58,197.38 563.42,193.65 564.26,194.89 565.10,194.89 565.94,193.03 566.78,196.13 567.62,192.40 568.46,194.89 569.30,189.92 570.14,189.92 570.98,189.92 571.82,196.13 572.66,194.89 573.50,193.65 574.34,199.87 575.18,199.87 576.02,197.38 576.86,199.87 577.70,196.13 578.54,194.89 579.38,196.13 580.22,192.40 581.06,192.40 581.90,196.13 582.74,192.40 583.58,192.40 584.42,192.40 585.26,192.40 586.10,193.65 586.94,197.38 587.78,198.62 588.62,200.49 589.46,201.73 590.30,201.73 591.14,327.31 591.98,193.03 592.82,193.03 593.66,193.03 594.50,192.40 595.34,192.40 596.18,192.40 597.01,193.03 597.85,193.65 598.69,193.65 599.53,189.92 600.37,189.92 601.21,183.70 602.05,197.38 602.89,181.21 603.73,202.97 604.57,200.49 605.41,201.73 606.25,201.73 607.09,198.00 607.93,198.00 608.77,198.00 609.61,195.51 610.45,198.00 611.29,200.49 612.13,200.49 612.97,200.49 613.81,198.62 614.65,205.46 615.49,198.62 616.33,205.46 617.17,205.46 618.01,205.46 618.85,199.87 619.69,196.13 620.53,192.40 621.37,197.38 622.21,193.65 623.05,198.00 623.89,205.46 624.73,198.62 625.57,198.62 626.41,199.24 627.25,198.00 628.09,195.51 628.93,201.73 629.77,201.73 630.61,201.73 631.45,198.00 632.29,199.24 633.13,327.31 633.97,193.03 634.81,193.03 635.65,193.03 636.49,192.40 637.33,192.40 638.17,196.13 639.01,193.03 639.85,193.65 640.69,193.03 641.52,194.89 642.36,194.89 643.20,196.13 644.04,192.40 644.88,197.38 645.72,197.38 646.56,191.16 647.40,196.13 648.24,197.38 649.08,185.57 649.92,193.03 650.76,194.27 651.60,193.03 652.44,190.54 653.28,193.03 654.12,193.03 654.96,190.54 655.80,191.16 656.64,193.03 657.48,191.16 658.32,68.69 659.16,193.03 660.00,193.03 660.84,193.03 661.68,192.40 662.52,193.03 663.36,199.87 664.20,193.03 665.04,193.65 665.88,193.03 666.72,194.89 667.56,194.89 668.40,196.13 669.24,193.03 670.08,189.92 670.92,193.03 671.76,179.35 672.60,194.27 673.44,193.03 674.28,194.27 675.12,191.16 675.96,190.54 676.80,191.16 677.64,191.78 678.48,193.03 679.32,193.03 680.16,195.51 681.00,191.16 681.84,191.78 682.68,191.16 683.52,68.69 684.36,193.03 685.19,193.03 686.03,192.40 686.87,192.40 687.71,192.40 688.55,192.40 689.39,193.03 690.23,193.65 691.07,193.03 691.91,194.89 692.75,194.89 693.59,196.13 694.43,196.13 695.27,197.38 696.11,192.40 696.95,197.38 697.79,192.40 698.63,194.89 699.47,194.89 700.31,193.03 701.15,196.13 701.99,194.89 702.83,182.46 703.67,192.40 704.51,194.89 705.35,194.89 706.19,193.03 707.03,193.03 707.87,193.03 708.71,199.87 709.55,199.87 710.39,199.87 711.23,192.40 712.07,194.89 712.91,193.03 713.75,196.13 714.59,189.92 715.43,196.13 716.27,193.65 717.11,192.40 717.95,192.40 718.79,179.35 719.63,191.16 720.47,194.27 721.31,191.16 722.15,193.03 722.99,191.78 723.83,191.78 724.67,68.69 725.51,193.03 726.35,193.03 727.19,193.03 728.03,192.40 728.86,192.40 729.70,194.89 730.54,193.03 731.38,196.13 732.22,193.03 733.06,194.89 733.90,194.89 734.74,196.13 735.58,197.38 736.42,181.21 737.26,197.38 738.10,197.38 738.94,181.21 739.78,187.43 740.62,191.16 741.46,188.67 742.30,196.13 743.14,193.03 743.98,192.40 744.82,189.92 745.66,197.38 746.50,193.03 747.34,193.03 748.18,193.03 749.02,193.03 749.86,197.38 750.70,197.38 751.54,197.38 752.38,193.03 753.22,193.03 754.06,196.13 754.90,193.65 755.74,192.40 756.58,196.13 757.42,197.38 758.26,193.03 759.10,193.03 759.94,193.03 760.78,193.65 761.62,197.38 762.46,193.65 763.30,192.40 764.14,193.65 764.98,197.38 765.82,193.03 766.66,320.47 767.50,193.65 768.34,193.03 769.18,193.65 770.02,192.40 770.86,194.89 771.70,193.65 772.54,193.03 773.37,193.65 774.21,193.03 775.05,193.03 775.89,194.89 776.73,196.13 777.57,181.21 778.41,197.38 779.25,197.38 780.09,194.89 780.93,196.13 781.77,194.89 782.61,194.89 783.45,193.03 784.29,193.03 785.13,194.89 785.97,196.13 786.81,194.89 787.65,194.89 788.49,194.89 789.33,193.03 790.17,193.03 791.01,193.03 791.85,197.38 792.69,199.87 793.53,199.87 794.37,199.87 795.21,193.65 796.05,180.59 796.89,193.03 797.73,191.78 798.57,194.27 799.41,194.27 800.25,195.51 801.09,195.51 801.93,191.78 802.77,68.69 803.61,193.03 804.45,193.03 805.29,193.03 806.13,192.40 806.97,192.40 807.81,194.89 808.65,193.65 809.49,193.65 810.33,193.65 811.17,192.40 812.01,194.89 812.85,196.13 813.69,197.38 814.53,200.49 815.37,202.97 816.21,200.49 817.04,200.49 817.88,200.49 818.72,200.49 819.56,200.49 820.40,198.00 821.24,200.49 822.08,188.05 822.92,200.49 823.76,200.49 824.60,200.49 825.44,198.62 826.28,193.03 827.12,201.73 827.96,205.46 828.80,205.46 829.64,205.46 830.48,205.46 831.32,198.00 832.16,205.46 833.00,193.03 833.84,196.13 834.68,192.40 835.52,193.65 836.36,193.03 837.20,197.38 838.04,196.13 838.88,194.89 839.72,192.40 840.56,192.40 841.40,196.13 842.24,193.03 843.08,192.40 843.92,194.89 844.76,316.74" fill="none" stroke="#2f6fed" stroke-width="2.5" stroke-linejoin="round" stroke-linecap="round" />
  <line x1="738" y1="68" x2="774" y2="68" stroke="#2f6fed" stroke-width="3" /><text x="782" y="72" font-size="13" fill="#263241">step reward</text>
</svg>
