<svg xmlns="http://www.w3.org/2000/svg" width="960" height="420" viewBox="0 0 960 420">
  <rect width="100%" height="100%" fill="#ffffff" />
  <text x="72" y="28" font-size="22" font-weight="700" fill="#17202a">Training Loss</text>
  <line x1="72" y1="348.00" x2="902" y2="348.00" stroke="#e7eaf0" stroke-width="1" /><text x="60" y="352.00" text-anchor="end" font-size="12" fill="#526071">0.82</text><line x1="72" y1="288.00" x2="902" y2="288.00" stroke="#e7eaf0" stroke-width="1" /><text x="60" y="292.00" text-anchor="end" font-size="12" fill="#526071">1.05</text><line x1="72" y1="228.00" x2="902" y2="228.00" stroke="#e7eaf0" stroke-width="1" /><text x="60" y="232.00" text-anchor="end" font-size="12" fill="#526071">1.28</text><line x1="72" y1="168.00" x2="902" y2="168.00" stroke="#e7eaf0" stroke-width="1" /><text x="60" y="172.00" text-anchor="end" font-size="12" fill="#526071">1.50</text><line x1="72" y1="108.00" x2="902" y2="108.00" stroke="#e7eaf0" stroke-width="1" /><text x="60" y="112.00" text-anchor="end" font-size="12" fill="#526071">1.73</text><line x1="72" y1="48.00" x2="902" y2="48.00" stroke="#e7eaf0" stroke-width="1" /><text x="60" y="52.00" text-anchor="end" font-size="12" fill="#526071">1.96</text>
  <line x1="72" y1="48" x2="72" y2="348" stroke="#2f3a45" stroke-width="1.4" />
  <line x1="72" y1="348" x2="902" y2="348" stroke="#2f3a45" stroke-width="1.4" />
  <text x="487.0" y="392" text-anchor="middle" font-size="14" fill="#344052">Episode</text>
  <text x="18" y="198.0" text-anchor="middle" font-size="14" fill="#344052" transform="rotate(-90 18 198.0)">Mean TD loss</text>
  <text x="72" y="370" text-anchor="middle" font-size="12" fill="#526071">-5</text>
  <text x="902" y="370" text-anchor="middle" font-size="12" fill="#526071">86</text>
  <polyline points="129.24,283.63 138.30,261.90 147.36,260.30 156.41,267.43 165.47,268.98 174.53,225.63 183.58,270.96 192.64,243.82 201.70,229.54 210.76,244.03 219.81,228.69 228.87,218.41 237.93,223.76 246.98,221.67 256.04,258.95 265.10,249.95 274.16,259.53 283.21,239.51 292.27,243.23 301.33,242.53 310.38,146.21 319.44,243.82 328.50,227.02 337.56,181.45 346.61,233.89 355.67,213.61 364.73,207.74 373.79,148.17 382.84,276.55 391.90,180.54 400.96,179.13 410.01,207.46 419.07,109.70 428.13,203.95 437.19,165.74 446.24,183.14 455.30,327.31 464.36,146.12 473.41,141.47 482.47,82.79 491.53,160.73 500.59,129.27 509.64,85.61 518.70,133.89 527.76,141.91 536.81,147.36 545.87,132.57 554.93,150.44 563.99,183.70 573.04,135.38 582.10,115.45 591.16,132.64 600.21,148.80 609.27,140.37 618.33,155.11 627.39,134.34 636.44,149.32 645.50,129.23 654.56,98.04 663.62,95.41 672.67,111.36 681.73,86.80 690.79,155.49 699.84,74.97 708.90,148.38 717.96,157.67 727.02,87.72 736.07,181.47 745.13,100.69 754.19,104.62 763.24,105.02 772.30,88.10 781.36,105.58 790.42,68.69 799.47,141.61 808.53,159.97 817.59,196.38 826.64,154.36 835.70,158.61 844.76,102.36" fill="none" stroke="#6f4cc3" stroke-width="2.5" stroke-linejoin="round" stroke-linecap="round" /><polyline points="129.24,283.63 138.30,272.76 147.36,268.61 156.41,268.31 165.47,268.45 174.53,261.31 183.58,262.69 192.64,260.33 201.70,256.91 210.76,255.62 219.81,253.17 228.87,250.28 237.93,248.24 246.98,246.34 256.04,247.18 265.10,247.35 274.16,248.07 283.21,247.59 292.27,247.36 301.33,247.12 310.38,240.25 319.44,239.35 328.50,237.68 337.56,233.38 346.61,231.63 355.67,231.03 364.73,227.87 373.79,223.09 382.84,225.44 391.90,222.26 400.96,219.78 410.01,219.24 419.07,213.53 428.13,212.65 437.19,207.99 446.24,204.65 455.30,208.04 464.36,203.37 473.41,198.28 482.47,190.29 491.53,191.02 500.59,185.29 509.64,178.22 518.70,175.84 527.76,171.24 536.81,167.93 545.87,164.17 554.93,164.28 563.99,159.64 573.04,157.38 582.10,154.20 591.16,150.46 600.21,152.41 609.27,149.23 618.33,148.70 627.39,146.26 636.44,137.36 645.50,136.52 654.56,134.35 663.62,134.98 672.67,132.51 681.73,130.39 690.79,133.88 699.84,130.93 708.90,131.26 717.96,131.77 727.02,129.53 736.07,131.08 745.13,126.93 754.19,125.39 763.24,124.87 772.30,122.65 781.36,120.48 790.42,116.90 799.47,116.23 808.53,117.51 817.59,119.86 826.64,121.12 835.70,124.14 844.76,124.49" fill="none" stroke="#209a72" stroke-width="2.5" stroke-linejoin="round" stroke-linecap="round" />
  <line x1="738" y1="68" x2="774" y2="68" stroke="#6f4cc3" stroke-width="3" /><text x="782" y="72" font-size="13" fill="#263241">episode loss</text><line x1="738" y1="90" x2="774" y2="90" stroke="#209a72" stroke-width="3" /><text x="782" y="94" font-size="13" fill="#263241">20 episode average</text>
</svg>
