<svg xmlns="http://www.w3.org/2000/svg" width="960" height="420" viewBox="0 0 960 420">
  <rect width="100%" height="100%" fill="#ffffff" />
  <text x="72" y="28" font-size="22" font-weight="700" fill="#17202a">Training Reward</text>
  <line x1="72" y1="348.00" x2="902" y2="348.00" stroke="#e7eaf0" stroke-width="1" /><text x="60" y="352.00" text-anchor="end" font-size="12" fill="#526071">-35.06</text><line x1="72" y1="288.00" x2="902" y2="288.00" stroke="#e7eaf0" stroke-width="1" /><text x="60" y="292.00" text-anchor="end" font-size="12" fill="#526071">-26.19</text><line x1="72" y1="228.00" x2="902" y2="228.00" stroke="#e7eaf0" stroke-width="1" /><text x="60" y="232.00" text-anchor="end" font-size="12" fill="#526071">-17.31</text><line x1="72" y1="168.00" x2="902" y2="168.00" stroke="#e7eaf0" stroke-width="1" /><text x="60" y="172.00" text-anchor="end" font-size="12" fill="#526071">-8.44</text><line x1="72" y1="108.00" x2="902" y2="108.00" stroke="#e7eaf0" stroke-width="1" /><text x="60" y="112.00" text-anchor="end" font-size="12" fill="#526071">0.44</text><line x1="72" y1="48.00" x2="902" y2="48.00" stroke="#e7eaf0" stroke-width="1" /><text x="60" y="52.00" text-anchor="end" font-size="12" fill="#526071">9.31</text>
  <line x1="72" y1="48" x2="72" y2="348" stroke="#2f3a45" stroke-width="1.4" />
  <line x1="72" y1="348" x2="902" y2="348" stroke="#2f3a45" stroke-width="1.4" />
  <text x="487.0" y="392" text-anchor="middle" font-size="14" fill="#344052">Episode</text>
  <text x="18" y="198.0" text-anchor="middle" font-size="14" fill="#344052" transform="rotate(-90 18 198.0)">Total reward</text>
  <text x="72" y="370" text-anchor="middle" font-size="12" fill="#526071">-5</text>
  <text x="902" y="370" text-anchor="middle" font-size="12" fill="#526071">86</text>
  <polyline points="129.24,212.71 138.30,252.94 147.36,185.66 156.41,221.50 165.47,221.50 174.53,318.86 183.58,202.56 192.64,206.62 201.70,211.35 210.76,262.06 219.81,281.33 228.87,265.78 237.93,194.11 246.98,305.00 256.04,235.02 265.10,204.59 274.16,218.11 283.21,279.30 292.27,260.71 301.33,194.45 310.38,285.39 319.44,327.31 328.50,209.33 337.56,199.52 346.61,216.09 355.67,227.24 364.73,230.29 373.79,179.58 382.84,192.08 391.90,194.79 400.96,224.54 410.01,222.85 419.07,182.62 428.13,281.33 437.19,171.80 446.24,204.93 455.30,68.69 464.36,216.09 473.41,201.89 482.47,182.62 491.53,288.43 500.59,194.79 509.64,186.34 518.70,210.68 527.76,207.63 536.81,306.35 545.87,222.17 554.93,166.39 563.99,238.06 573.04,178.56 582.10,198.51 591.16,203.58 600.21,243.47 609.27,242.46 618.33,242.79 627.39,214.73 636.44,221.83 645.50,207.30 654.56,198.51 663.62,197.49 672.67,197.15 681.73,293.84 690.79,234.34 699.84,191.07 708.90,244.48 717.96,216.76 727.02,203.58 736.07,233.67 745.13,182.96 754.19,208.31 763.24,177.21 772.30,171.46 781.36,198.51 790.42,194.45 799.47,186.67 808.53,233.67 817.59,253.61 826.64,190.73 835.70,319.53 844.76,195.46" fill="none" stroke="#2f6fed" stroke-width="2.5" stroke-linejoin="round" stroke-linecap="round" /><polyline points="129.24,212.71 138.30,232.82 147.36,217.10 156.41,218.20 165.47,218.86 174.53,235.53 183.58,230.82 192.64,227.79 201.70,225.97 210.76,229.58 219.81,234.28 228.87,236.91 237.93,233.61 246.98,238.71 256.04,238.47 265.10,236.35 274.16,235.28 283.21,237.72 292.27,238.93 301.33,236.71 310.38,240.34 319.44,244.06 328.50,245.24 337.56,244.15 346.61,243.88 355.67,239.29 364.73,240.68 373.79,239.33 382.84,238.37 391.90,235.00 400.96,232.16 410.01,230.01 419.07,229.44 428.13,228.26 437.19,225.10 446.24,225.11 455.30,217.64 464.36,214.48 473.41,211.54 482.47,210.95 491.53,211.10 500.59,204.47 509.64,203.32 518.70,203.88 527.76,203.46 536.81,207.42 545.87,207.01 554.93,206.35 563.99,208.65 573.04,207.84 582.10,206.54 591.16,205.57 600.21,208.62 609.27,206.67 618.33,210.22 627.39,210.71 636.44,218.37 645.50,217.93 654.56,217.76 663.62,218.50 672.67,213.94 681.73,218.89 690.79,221.29 699.84,220.31 708.90,222.15 717.96,217.68 727.02,216.75 736.07,220.11 745.13,217.35 754.19,218.84 763.24,217.78 772.30,216.17 781.36,213.92 790.42,211.52 799.47,208.72 808.53,209.66 817.59,211.25 826.64,210.42 835.70,216.48 844.76,216.37" fill="none" stroke="#e05d2f" stroke-width="2.5" stroke-linejoin="round" stroke-linecap="round" />
  <line x1="738" y1="68" x2="774" y2="68" stroke="#2f6fed" stroke-width="3" /><text x="782" y="72" font-size="13" fill="#263241">episode reward</text><line x1="738" y1="90" x2="774" y2="90" stroke="#e05d2f" stroke-width="3" /><text x="782" y="94" font-size="13" fill="#263241">20 episode average</text>
</svg>
