<svg xmlns="http://www.w3.org/2000/svg" width="960" height="420" viewBox="0 0 960 420">
  <rect width="100%" height="100%" fill="#ffffff" />
  <text x="72" y="28" font-size="22" font-weight="700" fill="#17202a">Per-step Reward (all episodes)</text>
  <line x1="72" y1="348.00" x2="902" y2="348.00" stroke="#e7eaf0" stroke-width="1" /><text x="60" y="352.00" text-anchor="end" font-size="12" fill="#526071">-12.68</text><line x1="72" y1="288.00" x2="902" y2="288.00" stroke="#e7eaf0" stroke-width="1" /><text x="60" y="292.00" text-anchor="end" font-size="12" fill="#526071">-7.81</text><line x1="72" y1="228.00" x2="902" y2="228.00" stroke="#e7eaf0" stroke-width="1" /><text x="60" y="232.00" text-anchor="end" font-size="12" fill="#526071">-2.94</text><line x1="72" y1="168.00" x2="902" y2="168.00" stroke="#e7eaf0" stroke-width="1" /><text x="60" y="172.00" text-anchor="end" font-size="12" fill="#526071">1.94</text><line x1="72" y1="108.00" x2="902" y2="108.00" stroke="#e7eaf0" stroke-width="1" /><text x="60" y="112.00" text-anchor="end" font-size="12" fill="#526071">6.81</text><line x1="72" y1="48.00" x2="902" y2="48.00" stroke="#e7eaf0" stroke-width="1" /><text x="60" y="52.00" text-anchor="end" font-size="12" fill="#526071">11.68</text>
  <line x1="72" y1="48" x2="72" y2="348" stroke="#2f3a45" stroke-width="1.4" />
  <line x1="72" y1="348" x2="902" y2="348" stroke="#2f3a45" stroke-width="1.4" />
  <text x="487.0" y="392" text-anchor="middle" font-size="14" fill="#344052">Step index</text>
  <text x="18" y="198.0" text-anchor="middle" font-size="14" fill="#344052" transform="rotate(-90 18 198.0)">Reward</text>
  <text x="72" y="370" text-anchor="middle" font-size="12" fill="#526071">-317</text>
  <text x="902" y="370" text-anchor="middle" font-size="12" fill="#526071">4293</text>
  <polyline points="129.24,192.46 129.42,194.92 129.60,194.92 129.78,192.46 129.96,196.15 130.14,191.23 130.32,198.62 130.50,194.92 130.68,191.23 130.86,192.46 131.04,194.92 131.22,194.92 131.40,191.84 131.58,192.46 131.76,191.23 131.94,194.92 132.12,192.46 132.30,191.23 132.48,194.92 132.66,193.69 132.84,193.69 133.02,191.23 133.20,194.92 133.38,192.46 133.56,193.69 133.74,191.84 133.92,193.69 134.10,187.53 134.28,191.84 134.46,194.92 134.64,192.46 134.82,191.23 135.00,191.23 135.18,191.84 135.36,191.23 135.54,191.84 135.72,193.69 135.90,194.92 136.08,194.92 136.26,194.92 136.44,191.84 136.62,191.84 136.80,194.92 136.98,191.23 137.16,191.84 137.34,194.92 137.52,194.92 137.70,316.23 137.88,190.00 138.06,191.84 138.24,196.15 138.42,192.46 138.60,191.23 138.78,191.84 138.96,192.46 139.14,192.46 139.32,196.15 139.50,193.69 139.68,194.92 139.86,191.23 140.04,191.23 140.22,194.92 140.40,194.92 140.58,191.84 140.76,193.69 140.94,193.69 141.12,191.84 141.30,198.62 141.48,196.15 141.66,192.46 141.84,198.62 142.02,191.23 142.20,191.84 142.39,191.23 142.57,191.84 142.75,194.92 142.93,191.84 143.11,194.92 143.29,196.15 143.47,194.92 143.65,191.23 143.83,194.92 144.01,194.92 144.19,194.92 144.37,191.23 144.55,191.23 144.73,191.23 144.91,204.16 145.09,198.00 145.27,197.38 145.45,197.38 145.63,198.00 145.81,196.77 145.99,201.69 146.17,197.38 146.35,201.69 146.53,197.38 146.71,319.92 146.89,193.69 147.07,191.84 147.25,194.92 147.43,191.84 147.61,191.23 147.79,191.84 147.97,194.92 148.15,188.76 148.33,194.92 148.51,198.62 148.69,198.62 148.87,188.76 149.05,191.84 149.23,188.76 149.41,194.92 149.59,191.84 149.77,186.30 149.95,191.84 150.13,196.15 150.31,188.76 150.49,188.76 150.67,191.84 150.85,191.23 151.03,191.84 151.21,194.92 151.39,188.76 151.57,194.92 151.75,194.92 151.93,191.84 152.11,191.84 152.29,191.23 152.47,191.84 152.65,191.23 152.83,191.84 153.01,191.23 153.19,191.84 153.37,192.46 153.55,191.84 153.73,191.23 153.91,191.84 154.09,191.84 154.27,196.15 154.45,180.14 154.63,192.46 154.81,192.46 154.99,194.92 155.17,191.23 155.35,191.84 155.53,191.23 155.71,318.07 155.89,192.46 156.07,191.84 156.25,198.62 156.43,196.15 156.61,192.46 156.79,188.76 156.97,192.46 157.15,191.84 157.33,192.46 157.51,191.84 157.69,194.92 157.87,194.92 158.05,191.84 158.23,191.84 158.41,192.46 158.59,192.46 158.77,188.76 158.95,193.69 159.13,192.46 159.31,191.84 159.49,196.15 159.67,194.92 159.85,198.62 160.03,194.92 160.21,194.92 160.39,194.92 160.57,191.84 160.75,191.84 160.93,194.92 161.11,191.84 161.29,198.62 161.47,191.84 161.65,191.23 161.83,194.92 162.01,194.92 162.19,187.53 162.37,191.23 162.55,191.84 162.73,196.15 162.91,191.84 163.09,194.92 163.27,194.92 163.45,191.84 163.63,196.15 163.81,194.92 163.99,194.92 164.17,191.84 164.35,191.23 164.53,194.92 164.71,318.69 164.89,191.23 165.07,196.15 165.25,194.92 165.43,196.15 165.61,193.69 165.79,194.92 165.97,191.84 166.15,188.76 166.33,191.23 166.51,194.92 166.69,196.15 166.87,194.92 167.05,191.84 167.23,188.76 167.41,188.76 167.59,193.69 167.77,191.23 167.95,191.84 168.13,191.23 168.31,194.92 168.49,191.84 168.67,191.84 168.85,196.15 169.03,192.46 169.21,194.92 169.39,196.15 169.57,193.69 169.75,191.84 169.93,188.76 170.11,192.46 170.29,193.69 170.47,196.15 170.65,192.46 170.83,194.92 171.01,196.15 171.19,198.62 171.37,194.92 171.55,191.84 171.73,194.92 171.91,191.84 172.09,196.15 172.27,193.69 172.45,194.92 172.63,191.23 172.81,191.84 172.99,194.92 173.17,191.23 173.35,196.15 173.53,192.46 173.71,318.07 173.89,192.46 174.07,186.30 174.25,191.23 174.43,196.15 174.61,193.69 174.79,196.15 174.97,196.15 175.15,191.84 175.33,196.15 175.51,191.84 175.69,192.46 175.87,200.46 176.05,194.31 176.23,198.00 176.41,198.00 176.59,199.23 176.77,194.31 176.95,196.77 177.13,198.00 177.31,200.46 177.49,191.84 177.67,199.23 177.85,197.38 178.03,197.38 178.21,197.38 178.39,200.46 178.57,199.23 178.76,196.77 178.94,200.46 179.12,200.46 179.30,191.84 179.48,200.46 179.66,196.77 179.84,188.15 180.02,201.69 180.20,196.77 180.38,201.69 180.56,198.00 180.74,191.84 180.92,200.46 181.10,200.46 181.28,197.38 181.46,198.00 181.64,201.69 181.82,200.46 182.00,198.00 182.18,204.16 182.36,196.77 182.54,198.00 182.72,323.62 182.90,188.76 183.08,191.84 183.26,188.76 183.44,191.84 183.62,198.62 183.80,194.92 183.98,191.23 184.16,186.30 184.34,194.92 184.52,191.84 184.70,188.76 184.88,191.84 185.06,191.23 185.24,191.84 185.42,191.84 185.60,194.92 185.78,194.92 185.96,194.92 186.14,191.84 186.32,194.92 186.50,191.84 186.68,192.46 186.86,182.61 187.04,192.46 187.22,191.23 187.40,192.46 187.58,196.15 187.76,191.84 187.94,191.84 188.12,198.62 188.30,196.15 188.48,191.23 188.66,192.46 188.84,191.84 189.02,198.62 189.20,191.84 189.38,194.92 189.56,192.46 189.74,191.23 189.92,191.84 190.10,191.23 190.28,194.92 190.46,191.23 190.64,193.69 190.82,192.46 191.00,191.23 191.18,194.92 191.36,196.15 191.54,194.92 191.72,318.07 191.90,191.23 192.08,194.92 192.26,191.84 192.44,192.46 192.62,191.23 192.80,196.15 192.98,194.92 193.16,196.15 193.34,196.15 193.52,188.76 193.70,191.84 193.88,191.23 194.06,194.92 194.24,193.69 194.42,194.92 194.60,191.84 194.78,188.76 194.96,193.69 195.14,196.15 195.32,191.23 195.50,191.23 195.68,191.23 195.86,196.15 196.04,192.46 196.22,191.23 196.40,191.23 196.58,194.92 196.76,192.46 196.94,191.84 197.12,191.23 197.30,194.92 197.48,191.23 197.66,196.15 197.84,191.84 198.02,196.15 198.20,196.15 198.38,188.76 198.56,194.92 198.74,191.23 198.92,180.14 199.10,194.92 199.28,191.84 199.46,194.92 199.64,191.84 199.82,192.46 200.00,194.92 200.18,196.15 200.36,191.23 200.54,194.92 200.72,315.61 200.90,191.84 201.08,198.62 201.26,191.23 201.44,192.46 201.62,194.92 201.80,198.62 201.98,180.14 202.16,191.84 202.34,194.92 202.52,193.69 202.70,191.23 202.88,196.15 203.06,191.84 203.24,194.92 203.42,196.15 203.60,191.23 203.78,194.92 203.96,194.92 204.14,192.46 204.32,191.84 204.50,194.92 204.68,191.23 204.86,193.69 205.04,191.84 205.22,192.46 205.40,191.84 205.58,194.92 205.76,192.46 205.94,196.15 206.12,191.23 206.30,191.84 206.48,191.84 206.66,193.69 206.84,194.92 207.02,194.92 207.20,191.23 207.38,192.46 207.56,191.23 207.74,191.84 207.92,193.69 208.10,188.76 208.28,191.84 208.46,196.15 208.64,191.23 208.82,191.84 209.00,196.15 209.18,193.69 209.36,193.69 209.54,191.23 209.72,318.07 209.90,192.46 210.08,193.69 210.26,191.23 210.44,191.84 210.62,194.92 210.80,190.00 210.98,193.69 211.16,192.46 211.34,191.23 211.52,194.92 211.70,194.92 211.88,194.92 212.06,194.92 212.24,191.23 212.42,191.23 212.60,194.92 212.78,194.92 212.96,194.92 213.14,194.92 213.32,187.53 213.50,191.84 213.68,192.46 213.86,194.92 214.04,198.62 214.22,191.23 214.40,193.69 214.58,194.92 214.76,191.23 214.95,194.92 215.13,181.37 215.31,200.46 215.49,196.77 215.67,198.00 215.85,197.38 216.03,200.46 216.21,197.38 216.39,197.38 216.57,200.46 216.75,199.23 216.93,198.00 217.11,197.38 217.29,198.00 217.47,201.69 217.65,193.07 217.83,200.46 218.01,198.00 218.19,200.46 218.37,197.38 218.55,317.46 218.73,196.15 218.91,191.84 219.09,192.46 219.27,196.15 219.45,190.00 219.63,194.92 219.81,191.84 219.99,191.23 220.17,196.15 220.35,191.23 220.53,191.84 220.71,182.61 220.89,198.62 221.07,190.00 221.25,198.00 221.43,200.46 221.61,204.16 221.79,198.00 221.97,194.31 222.15,198.00 222.33,194.31 222.51,191.84 222.69,196.77 222.87,196.77 223.05,198.00 223.23,196.77 223.41,194.31 223.59,200.46 223.77,200.46 223.95,199.23 224.13,198.00 224.31,200.46 224.49,194.31 224.67,198.00 224.85,196.77 225.03,197.38 225.21,197.38 225.39,204.16 225.57,204.16 225.75,191.84 225.93,191.23 226.11,194.92 226.29,198.62 226.47,196.15 226.65,191.23 226.83,191.84 227.01,192.46 227.19,194.92 227.37,193.69 227.55,318.07 227.73,194.92 227.91,193.69 228.09,192.46 228.27,193.69 228.45,192.46 228.63,193.69 228.81,192.46 228.99,194.92 229.17,193.69 229.35,194.92 229.53,194.92 229.71,191.23 229.89,191.23 230.07,191.84 230.25,194.92 230.43,192.46 230.61,191.84 230.79,192.46 230.97,194.92 231.15,194.92 231.33,194.92 231.51,194.92 231.69,191.23 231.87,192.46 232.05,191.23 232.23,192.46 232.41,191.23 232.59,192.46 232.77,194.92 232.95,192.46 233.13,194.92 233.31,191.84 233.49,196.77 233.67,197.38 233.85,197.38 234.03,198.00 234.21,201.69 234.39,200.46 234.57,200.46 234.75,199.23 234.93,200.46 235.11,198.00 235.29,198.00 235.47,191.84 235.65,196.77 235.83,196.77 236.01,200.46 236.19,196.77 236.37,197.38 236.55,323.62 236.73,193.69 236.91,196.15 237.09,193.69 237.27,191.23 237.45,191.84 237.63,191.23 237.81,198.62 237.99,194.92 238.17,193.69 238.35,191.23 238.53,188.76 238.71,192.46 238.89,191.23 239.07,191.23 239.25,191.84 239.43,188.76 239.61,191.84 239.79,191.84 239.97,191.23 240.15,192.46 240.33,192.46 240.51,188.76 240.69,188.76 240.87,191.84 241.05,188.76 241.23,188.76 241.41,191.84 241.59,191.84 241.77,196.15 241.95,196.15 242.13,191.84 242.31,191.84 242.49,180.14 242.67,194.92 242.85,194.92 243.03,194.92 243.21,192.46 243.39,191.23 243.57,180.14 243.75,196.15 243.93,192.46 244.11,196.15 244.29,196.15 244.47,194.92 244.65,192.46 244.83,192.46 245.01,194.92 245.19,192.46 245.37,194.92 245.55,324.85 245.73,191.84 245.91,198.62 246.09,194.92 246.27,188.76 246.45,192.46 246.63,192.46 246.81,194.92 246.99,198.62 247.17,193.69 247.35,192.46 247.53,192.46 247.71,192.46 247.89,194.92 248.07,196.15 248.25,200.46 248.43,198.00 248.61,197.38 248.79,197.38 248.97,191.84 249.15,191.84 249.33,198.00 249.51,198.00 249.69,196.77 249.87,196.77 250.05,198.00 250.23,199.23 250.41,197.38 250.59,194.31 250.77,200.46 250.95,188.15 251.13,198.00 251.32,200.46 251.50,200.46 251.68,197.38 251.86,196.77 252.04,198.00 252.22,196.77 252.40,198.00 252.58,196.77 252.76,198.00 252.94,200.46 253.12,197.38 253.30,194.31 253.48,200.46 253.66,199.23 253.84,198.00 254.02,197.38 254.20,200.46 254.38,198.00 254.56,320.54 254.74,192.46 254.92,196.15 255.10,191.23 255.28,192.46 255.46,194.92 255.64,193.69 255.82,194.92 256.00,192.46 256.18,193.69 256.36,192.46 256.54,194.92 256.72,194.92 256.90,191.23 257.08,191.23 257.26,186.30 257.44,192.46 257.62,191.23 257.80,196.15 257.98,191.84 258.16,191.84 258.34,192.46 258.52,191.23 258.70,194.92 258.88,191.23 259.06,194.92 259.24,194.92 259.42,191.23 259.60,192.46 259.78,196.15 259.96,193.69 260.14,187.53 260.32,193.69 260.50,194.92 260.68,191.23 260.86,190.00 261.04,194.92 261.22,196.15 261.40,196.15 261.58,194.92 261.76,193.69 261.94,192.46 262.12,191.23 262.30,195.54 262.48,197.38 262.66,201.69 262.84,197.38 263.02,197.38 263.20,198.00 263.38,200.46 263.56,323.62 263.74,191.84 263.92,191.84 264.10,193.69 264.28,193.69 264.46,193.69 264.64,194.92 264.82,191.84 265.00,192.46 265.18,191.23 265.36,191.84 265.54,193.69 265.72,192.46 265.90,194.92 266.08,193.69 266.26,191.84 266.44,196.15 266.62,191.23 266.80,192.46 266.98,191.84 267.16,194.92 267.34,191.84 267.52,194.92 267.70,191.23 267.88,194.92 268.06,191.23 268.24,191.84 268.42,191.84 268.60,191.23 268.78,191.84 268.96,191.84 269.14,191.84 269.32,192.46 269.50,191.84 269.68,194.92 269.86,191.23 270.04,191.84 270.22,194.92 270.40,194.92 270.58,191.23 270.76,194.92 270.94,192.46 271.12,191.23 271.30,191.23 271.48,194.92 271.66,191.84 271.84,191.23 272.02,194.92 272.20,191.84 272.38,194.92 272.56,315.00 272.74,194.92 272.92,191.23 273.10,191.84 273.28,194.92 273.46,192.46 273.64,194.92 273.82,191.23 274.00,193.69 274.18,194.92 274.36,194.92 274.54,191.84 274.72,191.84 274.90,191.23 275.08,193.69 275.26,198.62 275.44,194.92 275.62,192.46 275.80,191.23 275.98,191.84 276.16,194.92 276.34,191.23 276.52,192.46 276.70,191.84 276.88,191.84 277.06,198.62 277.24,191.84 277.42,191.23 277.60,191.84 277.78,192.46 277.96,198.62 278.14,196.15 278.32,193.69 278.50,194.92 278.68,191.84 278.86,191.84 279.04,191.84 279.22,192.46 279.40,191.23 279.58,191.23 279.76,194.92 279.94,194.92 280.12,191.23 280.30,191.23 280.48,192.46 280.66,194.92 280.84,194.92 281.02,193.69 281.20,193.69 281.38,193.69 281.56,316.84 281.74,194.92 281.92,191.23 282.10,194.92 282.28,194.92 282.46,193.69 282.64,190.00 282.82,193.69 283.00,196.15 283.18,193.69 283.36,191.84 283.54,191.84 283.72,191.84 283.90,194.92 284.08,198.62 284.26,194.92 284.44,196.15 284.62,194.92 284.80,194.92 284.98,194.92 285.16,191.84 285.34,191.23 285.52,191.84 285.70,191.84 285.88,191.23 286.06,196.77 286.24,199.23 286.42,197.38 286.60,197.38 286.78,194.31 286.96,196.77 287.14,196.77 287.32,201.69 287.51,196.77 287.69,199.23 287.87,197.38 288.05,196.77 288.23,197.38 288.41,204.16 288.59,198.00 288.77,196.77 288.95,200.46 289.13,200.46 289.31,191.84 289.49,194.31 289.67,194.31 289.85,194.31 290.03,197.38 290.21,200.46 290.39,196.77 290.57,315.61 290.75,194.92 290.93,193.69 291.11,192.46 291.29,193.69 291.47,191.84 291.65,191.84 291.83,191.23 292.01,193.69 292.19,192.46 292.37,192.46 292.55,194.92 292.73,192.46 292.91,192.46 293.09,193.69 293.27,193.69 293.45,193.69 293.63,193.69 293.81,194.92 293.99,194.92 294.17,191.23 294.35,191.23 294.53,193.69 294.71,191.84 294.89,191.23 295.07,191.84 295.25,193.69 295.43,192.46 295.61,192.46 295.79,191.84 295.97,192.46 296.15,192.46 296.33,194.92 296.51,191.84 296.69,193.69 296.87,191.23 297.05,200.46 297.23,197.38 297.41,200.46 297.59,201.69 297.77,198.00 297.95,197.38 298.13,198.00 298.31,196.77 298.49,200.46 298.67,200.46 298.85,198.00 299.03,196.77 299.21,200.46 299.39,204.16 299.57,323.62 299.75,191.84 299.93,194.92 300.11,188.76 300.29,191.84 300.47,193.69 300.65,193.69 300.83,194.92 301.01,193.69 301.19,198.62 301.37,194.92 301.55,191.23 301.73,191.23 301.91,191.23 302.09,193.69 302.27,191.23 302.45,191.84 302.63,191.84 302.81,191.84 302.99,192.46 303.17,180.14 303.35,192.46 303.53,181.37 303.71,192.46 303.89,196.15 304.07,191.84 304.25,193.69 304.43,191.84 304.61,194.92 304.79,193.69 304.97,192.46 305.15,191.84 305.33,193.69 305.51,196.15 305.69,192.46 305.87,191.23 306.05,192.46 306.23,192.46 306.41,196.15 306.59,191.84 306.77,191.23 306.95,194.92 307.13,191.84 307.31,193.69 307.49,191.23 307.67,192.46 307.85,194.92 308.03,191.84 308.21,191.23 308.39,192.46 308.57,315.61 308.75,194.92 308.93,191.84 309.11,190.00 309.29,191.84 309.47,191.84 309.65,191.84 309.83,192.46 310.01,194.92 310.19,199.23 310.37,196.77 310.55,196.77 310.73,193.07 310.91,200.46 311.09,198.00 311.27,200.46 311.45,197.38 311.63,196.77 311.81,196.77 311.99,204.16 312.17,196.77 312.35,194.31 312.53,197.38 312.71,197.38 312.89,198.00 313.07,198.00 313.25,204.16 313.43,191.84 313.61,198.00 313.79,191.84 313.97,200.46 314.15,200.46 314.33,197.38 314.51,200.46 314.69,204.16 314.87,200.46 315.05,200.46 315.23,198.00 315.41,318.69 315.59,191.23 315.77,192.46 315.95,196.15 316.13,193.69 316.31,191.84 316.49,191.23 316.67,194.92 316.85,197.38 317.03,198.00 317.21,201.69 317.39,197.38 317.57,200.46 317.75,197.38 317.93,196.77 318.11,199.23 318.29,191.84 318.47,198.00 318.65,197.38 318.83,197.38 319.01,198.00 319.19,197.38 319.37,200.46 319.55,198.00 319.73,199.23 319.91,197.38 320.09,196.77 320.27,197.38 320.45,198.00 320.63,197.38 320.81,201.69 320.99,197.38 321.17,196.77 321.35,191.84 321.53,196.77 321.71,197.38 321.89,198.00 322.07,196.77 322.25,191.84 322.43,197.38 322.61,198.00 322.79,201.69 322.97,196.77 323.15,197.38 323.33,197.38 323.51,201.69 323.69,201.69 323.88,196.77 324.06,198.00 324.24,201.69 324.42,324.85 324.60,191.84 324.78,190.00 324.96,188.76 325.14,194.92 325.32,191.84 325.50,188.76 325.68,194.92 325.86,194.92 326.04,194.92 326.22,192.46 326.40,192.46 326.58,180.14 326.76,186.30 326.94,191.23 327.12,196.15 327.30,194.92 327.48,192.46 327.66,196.15 327.84,196.15 328.02,193.69 328.20,194.92 328.38,191.23 328.56,198.62 328.74,192.46 328.92,194.92 329.10,193.69 329.28,194.92 329.46,194.92 329.64,191.23 329.82,191.84 330.00,194.92 330.18,192.46 330.36,192.46 330.54,191.23 330.72,196.15 330.90,194.92 331.08,193.69 331.26,193.69 331.44,192.46 331.62,194.92 331.80,191.23 331.98,192.46 332.16,193.69 332.34,192.46 332.52,194.92 332.70,194.92 332.88,194.92 333.06,191.84 333.24,191.84 333.42,314.38 333.60,188.76 333.78,191.23 333.96,191.84 334.14,193.69 334.32,193.69 334.50,192.46 334.68,188.76 334.86,191.23 335.04,192.46 335.22,191.23 335.40,191.84 335.58,191.23 335.76,191.84 335.94,191.23 336.12,192.46 336.30,191.23 336.48,196.15 336.66,191.23 336.84,191.23 337.02,191.23 337.20,188.76 337.38,186.30 337.56,182.61 337.74,191.23 337.92,194.92 338.10,181.37 338.28,191.84 338.46,196.15 338.64,191.23 338.82,194.92 339.00,196.15 339.18,191.23 339.36,194.92 339.54,191.84 339.72,193.69 339.90,191.23 340.08,193.69 340.26,194.92 340.44,191.23 340.62,194.92 340.80,194.92 340.98,194.92 341.16,192.46 341.34,193.69 341.52,191.23 341.70,200.46 341.88,198.00 342.06,199.23 342.24,196.77 342.42,323.62 342.60,194.92 342.78,191.84 342.96,194.92 343.14,191.84 343.32,194.92 343.50,192.46 343.68,191.23 343.86,191.84 344.04,194.92 344.22,194.92 344.40,198.62 344.58,191.23 344.76,192.46 344.94,190.00 345.12,194.92 345.30,194.92 345.48,194.92 345.66,190.00 345.84,191.23 346.02,193.69 346.20,191.84 346.38,194.92 346.56,192.46 346.74,191.23 346.92,191.23 347.10,194.92 347.28,194.92 347.46,194.92 347.64,191.84 347.82,193.69 348.00,191.23 348.18,191.84 348.36,193.69 348.54,193.69 348.72,194.92 348.90,191.23 349.08,196.15 349.26,191.84 349.44,194.92 349.62,191.23 349.80,191.23 349.98,192.46 350.16,193.69 350.34,194.92 350.52,191.23 350.70,191.23 350.88,194.92 351.06,192.46 351.24,198.62 351.42,314.38 351.60,191.84 351.78,196.15 351.96,194.92 352.14,191.84 352.32,193.69 352.50,194.92 352.68,191.84 352.86,194.92 353.04,194.92 353.22,192.46 353.40,193.69 353.58,192.46 353.76,192.46 353.94,194.92 354.12,191.23 354.30,188.76 354.48,191.84 354.66,191.23 354.84,193.69 355.02,191.23 355.20,191.23 355.38,194.92 355.56,194.92 355.74,191.23 355.92,192.46 356.10,193.69 356.28,191.23 356.46,192.46 356.64,196.15 356.82,191.23 357.00,192.46 357.18,194.92 357.36,193.69 357.54,191.23 357.72,193.69 357.90,191.84 358.08,194.92 358.26,194.92 358.44,191.23 358.62,196.15 358.80,191.84 358.98,192.46 359.16,192.46 359.34,191.84 359.52,194.92 359.70,198.00 359.88,198.00 360.07,199.23 360.25,199.23 360.43,322.38 360.61,192.46 360.79,194.92 360.97,196.15 361.15,191.84 361.33,194.92 361.51,196.15 361.69,191.23 361.87,194.92 362.05,193.69 362.23,198.00 362.41,196.77 362.59,197.38 362.77,194.31 362.95,191.84 363.13,199.23 363.31,191.84 363.49,198.00 363.67,191.84 363.85,198.00 364.03,196.77 364.21,197.38 364.39,197.38 364.57,191.84 364.75,180.14 364.93,191.84 365.11,191.23 365.29,191.23 365.47,194.92 365.65,196.15 365.83,191.84 366.01,191.23 366.19,191.23 366.37,198.62 366.55,196.15 366.73,192.46 366.91,198.62 367.09,193.69 367.27,191.23 367.45,191.23 367.63,191.23 367.81,192.46 367.99,194.92 368.17,194.92 368.35,191.84 368.53,191.84 368.71,191.84 368.89,191.84 369.07,191.23 369.25,193.69 369.43,315.00 369.61,193.69 369.79,191.23 369.97,191.84 370.15,190.00 370.33,193.69 370.51,196.15 370.69,188.76 370.87,191.23 371.05,194.92 371.23,188.76 371.41,188.76 371.59,193.69 371.77,186.30 371.95,191.23 372.13,191.84 372.31,194.92 372.49,191.84 372.67,188.76 372.85,194.92 373.03,193.69 373.21,191.84 373.39,196.15 373.57,191.84 373.75,193.69 373.93,191.84 374.11,198.62 374.29,191.23 374.47,191.23 374.65,198.62 374.83,192.46 375.01,196.15 375.19,191.84 375.37,196.15 375.55,191.84 375.73,188.76 375.91,191.84 376.09,188.76 376.27,188.76 376.45,196.15 376.63,188.76 376.81,191.84 376.99,188.76 377.17,188.76 377.35,188.76 377.53,191.84 377.71,188.76 377.89,188.76 378.07,193.69 378.25,191.23 378.43,311.92 378.61,196.15 378.79,188.76 378.97,193.69 379.15,192.46 379.33,191.23 379.51,193.69 379.69,191.84 379.87,191.23 380.05,192.46 380.23,192.46 380.41,191.23 380.59,191.84 380.77,194.92 380.95,191.23 381.13,186.30 381.31,191.23 381.49,191.23 381.67,192.46 381.85,191.23 382.03,191.84 382.21,191.23 382.39,192.46 382.57,182.61 382.75,194.92 382.93,194.92 383.11,191.23 383.29,191.23 383.47,191.23 383.65,194.92 383.83,194.92 384.01,193.69 384.19,193.69 384.37,194.92 384.55,194.92 384.73,192.46 384.91,192.46 385.09,191.84 385.27,191.23 385.45,191.84 385.63,191.84 385.81,191.84 385.99,193.69 386.17,193.69 386.35,193.69 386.53,194.92 386.71,193.69 386.89,191.84 387.07,192.46 387.25,192.46 387.43,315.61 387.61,191.84 387.79,191.84 387.97,191.84 388.15,191.84 388.33,191.23 388.51,193.69 388.69,192.46 388.87,198.62 389.05,191.84 389.23,191.84 389.41,191.23 389.59,191.84 389.77,194.92 389.95,196.15 390.13,192.46 390.31,192.46 390.49,194.92 390.67,191.23 390.85,191.84 391.03,192.46 391.21,194.92 391.39,191.23 391.57,193.69 391.75,191.84 391.93,191.23 392.11,191.23 392.29,191.23 392.47,191.23 392.65,192.46 392.83,194.92 393.01,191.23 393.19,191.23 393.37,191.23 393.55,192.46 393.73,191.23 393.91,192.46 394.09,192.46 394.27,191.23 394.45,194.92 394.63,192.46 394.81,191.23 394.99,191.84 395.17,194.92 395.35,180.14 395.53,193.69 395.71,194.92 395.89,192.46 396.07,193.69 396.25,192.46 396.44,318.07 396.62,193.69 396.80,193.69 396.98,194.92 397.16,193.69 397.34,191.23 397.52,191.84 397.70,194.92 397.88,191.84 398.06,191.84 398.24,191.84 398.42,191.84 398.60,192.46 398.78,198.62 398.96,191.84 399.14,193.69 399.32,191.23 399.50,181.37 399.68,191.23 399.86,191.84 400.04,198.62 400.22,191.84 400.40,191.84 400.58,192.46 400.76,193.69 400.94,191.23 401.12,188.76 401.30,188.76 401.48,191.84 401.66,191.84 401.84,191.23 402.02,194.92 402.20,191.84 402.38,192.46 402.56,191.84 402.74,194.92 402.92,198.62 403.10,191.84 403.28,191.84 403.46,196.15 403.64,194.92 403.82,191.84 404.00,191.84 404.18,201.69 404.36,196.77 404.54,185.68 404.72,201.69 404.90,197.38 405.08,201.69 405.26,200.46 405.44,324.85 405.62,193.69 405.80,194.92 405.98,191.23 406.16,193.69 406.34,191.23 406.52,191.23 406.70,191.84 406.88,192.46 407.06,191.23 407.24,191.84 407.42,194.92 407.60,196.15 407.78,191.23 407.96,191.84 408.14,191.84 408.32,193.69 408.50,194.92 408.68,191.84 408.86,193.69 409.04,191.23 409.22,191.84 409.40,191.84 409.58,191.23 409.76,194.92 409.94,193.69 410.12,192.46 410.30,186.92 410.48,196.77 410.66,200.46 410.84,201.69 411.02,199.23 411.20,196.77 411.38,200.46 411.56,198.00 411.74,193.07 411.92,194.92 412.10,193.69 412.28,191.84 412.46,194.92 412.64,191.84 412.82,191.84 413.00,191.23 413.18,194.92 413.36,193.69 413.54,191.23 413.72,194.92 413.90,191.23 414.08,188.76 414.26,191.84 414.44,315.00 414.62,191.84 414.80,188.76 414.98,191.23 415.16,188.76 415.34,193.69 415.52,194.92 415.70,191.23 415.88,196.15 416.06,191.23 416.24,194.92 416.42,188.76 416.60,191.23 416.78,191.23 416.96,192.46 417.14,192.46 417.32,192.46 417.50,191.23 417.68,191.23 417.86,191.23 418.04,191.84 418.22,192.46 418.40,192.46 418.58,191.84 418.76,191.84 418.94,192.46 419.12,193.69 419.30,188.76 419.48,194.92 419.66,191.23 419.84,191.23 420.02,194.92 420.20,191.84 420.38,192.46 420.56,191.23 420.74,196.15 420.92,188.76 421.10,191.23 421.28,191.23 421.46,186.30 421.64,191.84 421.82,194.92 422.00,196.15 422.18,194.92 422.36,188.76 422.54,191.84 422.72,191.23 422.90,193.69 423.08,191.23 423.26,191.84 423.44,314.38 423.62,193.69 423.80,191.23 423.98,194.92 424.16,193.69 424.34,198.62 424.52,192.46 424.70,196.15 424.88,191.23 425.06,196.15 425.24,191.23 425.42,198.62 425.60,194.92 425.78,188.76 425.96,191.23 426.14,191.23 426.32,196.15 426.50,193.69 426.68,196.15 426.86,191.23 427.04,191.84 427.22,191.23 427.40,193.69 427.58,193.69 427.76,191.23 427.94,197.38 428.12,200.46 428.30,204.16 428.48,196.77 428.66,197.38 428.84,186.92 429.02,191.84 429.20,196.77 429.38,200.46 429.56,191.84 429.74,197.38 429.92,200.46 430.10,196.77 430.28,194.31 430.46,197.38 430.64,197.38 430.82,196.77 431.00,204.16 431.18,197.38 431.36,197.38 431.54,197.38 431.72,198.00 431.90,199.23 432.08,197.38 432.26,200.46 432.44,323.62 432.63,188.76 432.81,194.92 432.99,191.84 433.17,192.46 433.35,186.30 433.53,196.15 433.71,188.76 433.89,193.69 434.07,191.84 434.25,191.84 434.43,191.23 434.61,191.23 434.79,193.69 434.97,191.23 435.15,194.92 435.33,191.84 435.51,192.46 435.69,194.92 435.87,188.76 436.05,191.84 436.23,182.61 436.41,194.92 436.59,194.92 436.77,193.69 436.95,191.84 437.13,192.46 437.31,194.92 437.49,196.15 437.67,194.92 437.85,191.84 438.03,191.84 438.21,178.30 438.39,194.31 438.57,189.38 438.75,191.84 438.93,189.38 439.11,186.92 439.29,189.38 439.47,189.38 439.65,189.38 439.83,189.38 440.01,193.07 440.19,191.84 440.37,190.00 440.55,194.31 440.73,193.07 440.91,193.07 441.09,191.84 441.27,193.07 441.45,316.23 441.63,194.92 441.81,191.23 441.99,194.92 442.17,188.76 442.35,193.69 442.53,194.92 442.71,194.92 442.89,191.23 443.07,191.23 443.25,191.23 443.43,196.15 443.61,198.62 443.79,194.92 443.97,191.23 444.15,193.69 444.33,188.76 444.51,193.69 444.69,191.23 444.87,191.23 445.05,193.69 445.23,188.76 445.41,191.84 445.59,194.92 445.77,194.92 445.95,194.92 446.13,191.84 446.31,192.46 446.49,191.23 446.67,188.76 446.85,181.37 447.03,191.84 447.21,191.84 447.39,193.69 447.57,198.62 447.75,194.92 447.93,191.84 448.11,191.84 448.29,194.92 448.47,193.69 448.65,191.84 448.83,191.23 449.01,193.69 449.19,191.84 449.37,193.69 449.55,198.62 449.73,188.76 449.91,194.92 450.09,194.92 450.27,194.92 450.45,314.38 450.63,191.84 450.81,194.92 450.99,194.92 451.17,194.92 451.35,191.84 451.53,194.92 451.71,191.84 451.89,194.92 452.07,191.84 452.25,192.46 452.43,194.92 452.61,191.23 452.79,192.46 452.97,191.84 453.15,192.46 453.33,194.92 453.51,192.46 453.69,198.62 453.87,194.92 454.05,192.46 454.23,196.15 454.41,191.23 454.59,192.46 454.77,192.46 454.95,191.23 455.13,192.46 455.31,191.23 455.49,191.84 455.67,198.62 455.85,188.76 456.03,194.92 456.21,191.23 456.39,191.23 456.57,198.62 456.75,191.23 456.93,192.46 457.11,182.61 457.29,191.84 457.47,192.46 457.65,194.92 457.83,192.46 458.01,191.84 458.19,192.46 458.37,191.84 458.55,192.46 458.73,191.23 458.91,191.84 459.09,191.84 459.27,68.69 459.45,191.84 459.63,198.62 459.81,188.76 459.99,196.15 460.17,193.69 460.35,196.15 460.53,191.84 460.71,198.62 460.89,196.15 461.07,193.69 461.25,198.62 461.43,191.84 461.61,188.76 461.79,191.84 461.97,191.84 462.15,191.84 462.33,196.15 462.51,193.69 462.69,191.23 462.87,193.69 463.05,191.23 463.23,192.46 463.41,194.92 463.59,198.62 463.77,192.46 463.95,191.84 464.13,196.15 464.31,194.92 464.49,191.84 464.67,191.23 464.85,193.69 465.03,181.37 465.21,198.62 465.39,191.84 465.57,191.84 465.75,191.84 465.93,191.84 466.11,193.69 466.29,191.23 466.47,191.84 466.65,191.23 466.83,191.84 467.01,192.46 467.19,191.84 467.37,194.92 467.55,194.92 467.73,194.92 467.91,191.23 468.09,194.92 468.27,316.84 468.45,193.69 468.63,191.84 468.81,194.92 469.00,196.15 469.18,191.84 469.36,192.46 469.54,194.92 469.72,191.23 469.90,194.92 470.08,191.84 470.26,191.23 470.44,191.84 470.62,192.46 470.80,191.23 470.98,192.46 471.16,191.84 471.34,191.84 471.52,191.84 471.70,194.92 471.88,191.84 472.06,193.69 472.24,191.23 472.42,190.00 472.60,191.84 472.78,191.23 472.96,192.46 473.14,194.92 473.32,192.46 473.50,191.23 473.68,193.69 473.86,192.46 474.04,192.46 474.22,193.69 474.40,191.84 474.58,192.46 474.76,187.53 474.94,190.00 475.12,191.23 475.30,194.92 475.48,191.23 475.66,193.69 475.84,191.84 476.02,191.84 476.20,198.62 476.38,191.84 476.56,196.15 476.74,194.92 476.92,192.46 477.10,194.92 477.28,315.61 477.46,194.92 477.64,191.84 477.82,194.92 478.00,191.84 478.18,192.46 478.36,191.84 478.54,191.84 478.72,191.84 478.90,193.69 479.08,193.69 479.26,191.84 479.44,184.45 479.62,193.07 479.80,190.00 479.98,194.31 480.16,190.00 480.34,190.00 480.52,191.84 480.70,193.07 480.88,190.61 481.06,189.38 481.24,190.00 481.42,190.00 481.60,193.07 481.78,189.38 481.96,190.00 482.14,190.61 482.32,191.84 482.50,190.00 482.68,190.00 482.86,194.92 483.04,191.23 483.22,191.84 483.40,191.23 483.58,190.00 483.76,194.92 483.94,191.84 484.12,196.15 484.30,191.23 484.48,192.46 484.66,196.15 484.84,190.00 485.02,196.15 485.20,191.84 485.38,193.69 485.56,191.23 485.74,194.92 485.92,194.92 486.10,191.23 486.28,314.38 486.46,191.23 486.64,194.92 486.82,191.23 487.00,193.69 487.18,191.84 487.36,196.15 487.54,191.84 487.72,191.84 487.90,191.84 488.08,187.53 488.26,191.84 488.44,191.84 488.62,196.15 488.80,193.69 488.98,191.84 489.16,198.62 489.34,192.46 489.52,194.92 489.70,196.77 489.88,197.38 490.06,197.38 490.24,200.46 490.42,198.00 490.60,197.38 490.78,197.38 490.96,200.46 491.14,198.00 491.32,198.00 491.50,196.77 491.68,201.69 491.86,196.77 492.04,191.84 492.22,200.46 492.40,185.68 492.58,200.46 492.76,197.38 492.94,199.23 493.12,200.46 493.30,196.77 493.48,196.77 493.66,200.46 493.84,197.38 494.02,197.38 494.20,196.77 494.38,200.46 494.56,200.46 494.74,200.46 494.92,196.77 495.10,191.84 495.28,314.38 495.46,190.00 495.64,193.69 495.82,194.92 496.00,191.84 496.18,191.23 496.36,194.92 496.54,194.92 496.72,191.84 496.90,191.84 497.08,191.23 497.26,188.76 497.44,193.69 497.62,188.76 497.80,191.84 497.98,191.23 498.16,193.69 498.34,191.84 498.52,191.23 498.70,191.23 498.88,193.69 499.06,191.23 499.24,193.69 499.42,200.46 499.60,201.69 499.78,196.77 499.96,188.76 500.14,197.38 500.32,197.38 500.50,197.38 500.68,196.77 500.86,194.31 501.04,188.76 501.22,191.84 501.40,188.76 501.58,192.46 501.76,180.14 501.94,191.84 502.12,188.76 502.30,191.23 502.48,197.38 502.66,188.76 502.84,191.84 503.02,191.84 503.20,191.84 503.38,194.92 503.56,192.46 503.74,186.30 503.92,191.84 504.10,191.23 504.28,314.38 504.46,188.76 504.64,194.92 504.82,192.46 505.00,194.92 505.19,192.46 505.37,194.92 505.55,191.23 505.73,191.23 505.91,191.23 506.09,186.30 506.27,193.69 506.45,194.92 506.63,191.23 506.81,191.23 506.99,196.15 507.17,196.15 507.35,192.46 507.53,191.23 507.71,191.84 507.89,192.46 508.07,191.23 508.25,191.84 508.43,192.46 508.61,191.84 508.79,191.23 508.97,191.23 509.15,191.23 509.33,191.84 509.51,193.69 509.69,193.69 509.87,191.23 510.05,191.84 510.23,188.76 510.41,191.23 510.59,191.23 510.77,192.46 510.95,191.84 511.13,182.61 511.31,194.92 511.49,196.15 511.67,191.23 511.85,191.84 512.03,192.46 512.21,191.23 512.39,194.92 512.57,191.23 512.75,191.23 512.93,193.69 513.11,194.92 513.29,314.38 513.47,190.00 513.65,192.46 513.83,198.62 514.01,188.76 514.19,194.92 514.37,191.23 514.55,188.76 514.73,194.92 514.91,194.92 515.09,192.46 515.27,188.76 515.45,193.69 515.63,191.23 515.81,192.46 515.99,186.30 516.17,194.92 516.35,191.84 516.53,196.15 516.71,191.23 516.89,193.69 517.07,191.23 517.25,194.92 517.43,191.23 517.61,194.92 517.79,193.69 517.97,193.69 518.15,194.92 518.33,196.15 518.51,198.62 518.69,192.46 518.87,194.92 519.05,192.46 519.23,191.23 519.41,192.46 519.59,194.92 519.77,191.23 519.95,192.46 520.13,194.92 520.31,193.69 520.49,192.46 520.67,191.84 520.85,191.23 521.03,194.92 521.21,191.23 521.39,191.84 521.57,196.15 521.75,192.46 521.93,196.15 522.11,192.46 522.29,315.61 522.47,191.23 522.65,192.46 522.83,193.69 523.01,194.92 523.19,191.23 523.37,194.92 523.55,192.46 523.73,191.23 523.91,193.69 524.09,191.84 524.27,192.46 524.45,191.23 524.63,191.84 524.81,191.23 524.99,191.23 525.17,198.62 525.35,194.92 525.53,191.23 525.71,191.84 525.89,191.23 526.07,191.23 526.25,192.46 526.43,191.23 526.61,194.92 526.79,191.84 526.97,194.92 527.15,192.46 527.33,194.92 527.51,192.46 527.69,191.84 527.87,192.46 528.05,194.92 528.23,181.37 528.41,191.84 528.59,193.69 528.77,191.84 528.95,194.92 529.13,194.92 529.31,192.46 529.49,192.46 529.67,194.92 529.85,191.23 530.03,192.46 530.21,196.15 530.39,196.15 530.57,194.92 530.75,194.92 530.93,194.92 531.11,191.84 531.29,318.07 531.47,194.92 531.65,191.23 531.83,194.92 532.01,191.23 532.19,191.84 532.37,191.84 532.55,191.84 532.73,180.14 532.91,192.46 533.09,191.84 533.27,193.69 533.45,191.84 533.63,192.46 533.81,194.92 533.99,193.69 534.17,194.92 534.35,199.23 534.53,200.46 534.71,200.46 534.89,196.77 535.07,197.38 535.25,196.77 535.43,198.00 535.61,200.46 535.79,200.46 535.97,198.00 536.15,201.69 536.33,197.38 536.51,197.38 536.69,196.77 536.87,191.84 537.05,197.38 537.23,199.23 537.41,196.77 537.59,200.46 537.77,196.77 537.95,199.23 538.13,198.00 538.31,196.77 538.49,204.16 538.67,201.69 538.85,200.46 539.03,197.38 539.21,196.77 539.39,201.69 539.57,196.77 539.75,199.23 539.93,200.46 540.11,198.00 540.29,319.92 540.47,194.92 540.65,191.23 540.83,194.92 541.01,193.69 541.19,191.23 541.37,194.92 541.56,193.69 541.74,186.30 541.92,188.76 542.10,193.69 542.28,194.92 542.46,196.15 542.64,193.69 542.82,192.46 543.00,191.84 543.18,191.23 543.36,192.46 543.54,192.46 543.72,192.46 543.90,193.69 544.08,191.23 544.26,191.23 544.44,194.92 544.62,191.23 544.80,194.92 544.98,191.84 545.16,192.46 545.34,191.84 545.52,191.84 545.70,180.14 545.88,190.00 546.06,191.84 546.24,187.53 546.42,194.92 546.60,191.84 546.78,191.84 546.96,196.15 547.14,196.15 547.32,196.15 547.50,194.92 547.68,192.46 547.86,191.84 548.04,197.38 548.22,201.69 548.40,200.46 548.58,197.38 548.76,196.77 548.94,201.69 549.12,196.77 549.30,320.54 549.48,196.15 549.66,191.84 549.84,194.92 550.02,187.53 550.20,194.92 550.38,193.69 550.56,191.84 550.74,191.23 550.92,194.92 551.10,194.92 551.28,191.84 551.46,193.69 551.64,192.46 551.82,193.69 552.00,184.45 552.18,190.00 552.36,191.84 552.54,190.00 552.72,194.31 552.90,190.00 553.08,190.00 553.26,191.84 553.44,190.61 553.62,193.07 553.80,190.00 553.98,189.38 554.16,192.46 554.34,188.15 554.52,190.61 554.70,190.00 554.88,190.00 555.06,193.07 555.24,188.15 555.42,190.61 555.60,190.00 555.78,190.00 555.96,191.84 556.14,189.38 556.32,194.31 556.50,191.84 556.68,190.61 556.86,190.61 557.04,190.00 557.22,191.84 557.40,190.00 557.58,191.84 557.76,190.61 557.94,190.61 558.12,190.00 558.30,317.46 558.48,192.46 558.66,191.84 558.84,191.84 559.02,191.23 559.20,193.69 559.38,191.23 559.56,193.69 559.74,192.46 559.92,194.92 560.10,192.46 560.28,191.84 560.46,192.46 560.64,193.69 560.82,191.23 561.00,191.23 561.18,192.46 561.36,191.84 561.54,193.69 561.72,191.84 561.90,193.69 562.08,192.46 562.26,191.23 562.44,191.23 562.62,194.92 562.80,198.62 562.98,191.23 563.16,194.92 563.34,191.23 563.52,193.69 563.70,196.15 563.88,191.84 564.06,194.92 564.24,191.23 564.42,191.23 564.60,191.23 564.78,194.92 564.96,191.84 565.14,192.46 565.32,194.92 565.50,193.69 565.68,197.38 565.86,197.38 566.04,200.46 566.22,197.38 566.40,198.00 566.58,197.38 566.76,200.46 566.94,197.38 567.12,200.46 567.30,323.62 567.48,196.15 567.66,191.84 567.84,191.84 568.02,188.76 568.20,187.53 568.38,196.15 568.56,191.84 568.74,193.69 568.92,188.76 569.10,194.92 569.28,191.23 569.46,192.46 569.64,191.23 569.82,191.23 570.00,191.23 570.18,191.23 570.36,193.69 570.54,190.00 570.72,191.23 570.90,193.69 571.08,186.30 571.26,191.23 571.44,194.92 571.62,191.23 571.80,194.92 571.98,191.84 572.16,196.15 572.34,191.84 572.52,188.76 572.70,191.23 572.88,196.15 573.06,193.69 573.24,191.23 573.42,194.92 573.60,191.23 573.78,191.23 573.96,188.76 574.14,193.69 574.32,191.84 574.50,191.23 574.68,188.76 574.86,191.84 575.04,188.76 575.22,194.92 575.40,191.23 575.58,193.69 575.76,180.14 575.94,196.15 576.12,193.69 576.30,315.00 576.48,188.76 576.66,194.92 576.84,191.84 577.02,196.15 577.20,191.84 577.38,194.92 577.56,192.46 577.75,198.62 577.93,191.84 578.11,192.46 578.29,191.23 578.47,196.15 578.65,194.92 578.83,192.46 579.01,191.23 579.19,191.84 579.37,191.84 579.55,191.84 579.73,192.46 579.91,191.23 580.09,191.23 580.27,191.84 580.45,193.69 580.63,191.84 580.81,192.46 580.99,194.92 581.17,194.92 581.35,194.92 581.53,191.84 581.71,191.23 581.89,188.76 582.07,192.46 582.25,191.23 582.43,192.46 582.61,191.84 582.79,191.23 582.97,194.92 583.15,191.23 583.33,191.84 583.51,188.76 583.69,194.92 583.87,191.23 584.05,192.46 584.23,192.46 584.41,196.15 584.59,194.92 584.77,191.84 584.95,191.23 585.13,191.84 585.31,311.92 585.49,192.46 585.67,188.76 585.85,194.92 586.03,192.46 586.21,191.84 586.39,196.15 586.57,194.92 586.75,193.69 586.93,191.23 587.11,194.92 587.29,191.23 587.47,191.84 587.65,191.84 587.83,193.69 588.01,191.23 588.19,196.15 588.37,191.23 588.55,192.46 588.73,194.92 588.91,192.46 589.09,191.23 589.27,192.46 589.45,191.23 589.63,191.23 589.81,191.23 589.99,191.23 590.17,192.46 590.35,198.62 590.53,193.69 590.71,191.23 590.89,180.14 591.07,196.15 591.25,191.23 591.43,194.92 591.61,191.23 591.79,191.23 591.97,194.92 592.15,191.84 592.33,194.92 592.51,193.69 592.69,191.84 592.87,193.69 593.05,196.15 593.23,193.69 593.41,194.92 593.59,193.69 593.77,191.84 593.95,191.84 594.13,191.84 594.31,318.07 594.49,192.46 594.67,196.15 594.85,191.84 595.03,191.23 595.21,191.84 595.39,192.46 595.57,192.46 595.75,194.92 595.93,193.69 596.11,194.92 596.29,191.84 596.47,191.84 596.65,191.84 596.83,191.23 597.01,192.46 597.19,193.69 597.37,191.84 597.55,191.23 597.73,191.23 597.91,191.84 598.09,196.15 598.27,192.46 598.45,194.92 598.63,191.23 598.81,193.69 598.99,193.69 599.17,191.84 599.35,191.84 599.53,191.23 599.71,193.69 599.89,191.84 600.07,194.92 600.25,191.23 600.43,193.69 600.61,191.84 600.79,194.92 600.97,198.00 601.15,200.46 601.33,200.46 601.51,200.46 601.69,196.77 601.87,196.77 602.05,196.77 602.23,204.16 602.41,197.38 602.59,185.68 602.77,200.46 602.95,196.77 603.13,198.00 603.31,321.15 603.49,191.84 603.67,182.61 603.85,192.46 604.03,193.69 604.21,194.92 604.39,191.84 604.57,188.76 604.75,191.23 604.93,194.92 605.11,196.15 605.29,191.23 605.47,194.92 605.65,194.92 605.83,191.23 606.01,188.76 606.19,191.23 606.37,191.84 606.55,191.23 606.73,196.15 606.91,191.84 607.09,191.23 607.27,191.23 607.45,196.15 607.63,188.76 607.81,191.23 607.99,191.84 608.17,194.92 608.35,188.76 608.53,191.84 608.71,191.84 608.89,191.23 609.07,198.62 609.25,191.84 609.43,196.15 609.61,196.15 609.79,196.77 609.97,198.00 610.15,201.69 610.33,204.16 610.51,196.77 610.69,197.38 610.87,200.46 611.05,197.38 611.23,201.69 611.41,196.77 611.59,194.31 611.77,197.38 611.95,200.46 612.13,197.38 612.31,317.46 612.49,194.92 612.67,194.92 612.85,194.92 613.03,191.23 613.21,194.92 613.39,196.15 613.57,191.23 613.75,193.69 613.93,192.46 614.12,194.92 614.30,192.46 614.48,193.69 614.66,191.23 614.84,191.84 615.02,198.62 615.20,191.23 615.38,194.92 615.56,193.69 615.74,192.46 615.92,193.69 616.10,194.92 616.28,194.92 616.46,194.92 616.64,191.23 616.82,191.23 617.00,192.46 617.18,191.23 617.36,191.23 617.54,191.23 617.72,196.15 617.90,191.23 618.08,191.84 618.26,191.23 618.44,194.92 618.62,194.92 618.80,196.15 618.98,191.23 619.16,194.92 619.34,196.15 619.52,194.92 619.70,191.84 619.88,194.92 620.06,191.23 620.24,201.69 620.42,198.00 620.60,200.46 620.78,196.77 620.96,200.46 621.14,196.77 621.32,319.92 621.50,193.69 621.68,193.69 621.86,193.69 622.04,193.69 622.22,191.23 622.40,191.23 622.58,193.69 622.76,193.69 622.94,194.92 623.12,191.23 623.30,191.23 623.48,193.69 623.66,188.76 623.84,191.84 624.02,193.69 624.20,191.23 624.38,193.69 624.56,191.84 624.74,194.92 624.92,194.92 625.10,191.23 625.28,192.46 625.46,191.23 625.64,198.62 625.82,193.69 626.00,192.46 626.18,198.62 626.36,192.46 626.54,198.62 626.72,192.46 626.90,194.92 627.08,193.69 627.26,194.92 627.44,191.23 627.62,192.46 627.80,191.84 627.98,192.46 628.16,191.23 628.34,192.46 628.52,194.92 628.70,194.92 628.88,191.23 629.06,193.69 629.24,194.92 629.42,192.46 629.60,193.69 629.78,194.92 629.96,191.23 630.14,191.23 630.32,314.38 630.50,191.84 630.68,194.92 630.86,194.92 631.04,191.23 631.22,191.84 631.40,191.84 631.58,196.15 631.76,182.61 631.94,194.92 632.12,187.53 632.30,192.46 632.48,193.69 632.66,194.92 632.84,200.46 633.02,198.00 633.20,198.00 633.38,197.38 633.56,195.54 633.74,198.00 633.92,199.23 634.10,196.77 634.28,197.38 634.46,194.92 634.64,191.23 634.82,191.23 635.00,191.84 635.18,193.69 635.36,191.23 635.54,191.84 635.72,193.69 635.90,191.23 636.08,194.92 636.26,191.23 636.44,191.23 636.62,191.23 636.80,191.23 636.98,196.15 637.16,191.84 637.34,191.84 637.52,186.30 637.70,191.23 637.88,191.23 638.06,191.23 638.24,191.23 638.42,191.23 638.60,191.23 638.78,193.69 638.96,196.15 639.14,200.46 639.32,319.92 639.50,194.92 639.68,191.84 639.86,191.23 640.04,191.84 640.22,193.69 640.40,193.69 640.58,191.23 640.76,191.23 640.94,194.92 641.12,191.23 641.30,188.76 641.48,191.84 641.66,194.92 641.84,193.69 642.02,193.69 642.20,191.23 642.38,191.23 642.56,193.69 642.74,191.23 642.92,192.46 643.10,193.69 643.28,191.84 643.46,191.23 643.64,194.92 643.82,191.84 644.00,194.92 644.18,194.92 644.36,191.23 644.54,194.92 644.72,192.46 644.90,191.84 645.08,192.46 645.26,194.92 645.44,192.46 645.62,194.92 645.80,191.84 645.98,192.46 646.16,194.92 646.34,193.69 646.52,191.84 646.70,193.69 646.88,191.84 647.06,191.23 647.24,194.92 647.42,191.23 647.60,193.69 647.78,191.84 647.96,191.23 648.14,192.46 648.32,323.62 648.50,192.46 648.68,188.76 648.86,191.84 649.04,192.46 649.22,191.23 649.40,191.23 649.58,188.76 649.76,192.46 649.94,191.23 650.12,181.37 650.31,194.92 650.49,192.46 650.67,191.84 650.85,192.46 651.03,188.76 651.21,180.76 651.39,190.61 651.57,189.38 651.75,190.61 651.93,193.07 652.11,190.00 652.29,190.61 652.47,190.00 652.65,194.31 652.83,190.00 653.01,193.07 653.19,193.07 653.37,189.38 653.55,194.31 653.73,186.92 653.91,190.00 654.09,193.07 654.27,190.61 654.45,193.07 654.63,193.07 654.81,189.38 654.99,191.84 655.17,190.61 655.35,197.38 655.53,196.77 655.71,197.38 655.89,194.31 656.07,200.46 656.25,196.77 656.43,196.77 656.61,196.77 656.79,201.69 656.97,196.77 657.15,201.69 657.33,324.85 657.51,191.84 657.69,190.00 657.87,196.15 658.05,192.46 658.23,191.84 658.41,196.15 658.59,192.46 658.77,194.92 658.95,191.84 659.13,188.76 659.31,191.23 659.49,194.92 659.67,191.84 659.85,192.46 660.03,194.92 660.21,188.76 660.39,191.23 660.57,191.23 660.75,191.23 660.93,191.84 661.11,194.92 661.29,191.84 661.47,191.84 661.65,188.76 661.83,191.23 662.01,194.92 662.19,191.84 662.37,191.84 662.55,188.76 662.73,191.23 662.91,194.92 663.09,191.84 663.27,191.23 663.45,188.76 663.63,196.15 663.81,194.92 663.99,191.23 664.17,194.92 664.35,191.84 664.53,198.62 664.71,186.30 664.89,191.23 665.07,191.23 665.25,191.23 665.43,191.84 665.61,194.92 665.79,196.15 665.97,198.62 666.15,191.23 666.33,319.31 666.51,192.46 666.69,193.69 666.87,191.23 667.05,191.23 667.23,191.23 667.41,191.23 667.59,194.92 667.77,191.84 667.95,191.23 668.13,192.46 668.31,191.84 668.49,191.84 668.67,194.92 668.85,191.84 669.03,192.46 669.21,191.23 669.39,192.46 669.57,192.46 669.75,192.46 669.93,194.92 670.11,191.23 670.29,193.69 670.47,192.46 670.65,192.46 670.83,191.23 671.01,191.84 671.19,192.46 671.37,192.46 671.55,196.15 671.73,192.46 671.91,192.46 672.09,194.92 672.27,193.69 672.45,191.23 672.63,193.69 672.81,192.46 672.99,192.46 673.17,192.46 673.35,191.84 673.53,191.84 673.71,194.92 673.89,192.46 674.07,191.23 674.25,191.23 674.43,191.23 674.61,192.46 674.79,191.84 674.97,196.15 675.15,191.23 675.33,315.00 675.51,194.92 675.69,191.84 675.87,192.46 676.05,191.23 676.23,191.23 676.41,190.00 676.59,188.76 676.77,191.23 676.95,191.84 677.13,191.23 677.31,191.84 677.49,191.23 677.67,196.15 677.85,199.23 678.03,196.77 678.21,196.77 678.39,197.38 678.57,196.77 678.75,196.77 678.93,199.23 679.11,201.69 679.29,199.23 679.47,196.77 679.65,185.68 679.83,191.84 680.01,196.77 680.19,196.77 680.37,196.77 680.55,197.38 680.73,196.77 680.91,197.38 681.09,196.77 681.27,193.07 681.45,201.69 681.63,196.77 681.81,197.38 681.99,194.31 682.17,196.77 682.35,201.69 682.53,198.00 682.71,196.77 682.89,197.38 683.07,200.46 683.25,196.77 683.43,200.46 683.61,201.69 683.79,200.46 683.97,204.16 684.15,191.84 684.33,324.85 684.51,191.23 684.69,191.23 684.87,192.46 685.05,194.92 685.23,194.92 685.41,191.23 685.59,194.92 685.77,191.23 685.95,192.46 686.13,193.69 686.31,193.69 686.49,188.76 686.68,194.92 686.86,192.46 687.04,193.69 687.22,191.84 687.40,191.23 687.58,193.69 687.76,191.23 687.94,191.23 688.12,192.46 688.30,191.23 688.48,191.23 688.66,192.46 688.84,194.92 689.02,191.84 689.20,188.76 689.38,194.92 689.56,191.23 689.74,191.23 689.92,191.84 690.10,196.77 690.28,197.38 690.46,196.77 690.64,197.38 690.82,197.38 691.00,194.31 691.18,197.38 691.36,197.38 691.54,196.77 691.72,200.46 691.90,197.38 692.08,197.38 692.26,204.16 692.44,200.46 692.62,315.00 692.80,192.46 692.98,194.92 693.16,188.76 693.34,191.23 693.52,191.23 693.70,192.46 693.88,191.84 694.06,192.46 694.24,191.84 694.42,191.84 694.60,191.84 694.78,191.23 694.96,191.84 695.14,191.23 695.32,191.23 695.50,191.23 695.68,191.23 695.86,191.23 696.04,191.84 696.22,191.84 696.40,192.46 696.58,191.23 696.76,192.46 696.94,192.46 697.12,191.84 697.30,198.62 697.48,191.84 697.66,194.92 697.84,192.46 698.02,196.15 698.20,191.23 698.38,194.92 698.56,188.76 698.74,188.76 698.92,182.61 699.10,192.46 699.28,194.92 699.46,193.69 699.64,193.69 699.82,194.92 700.00,192.46 700.18,196.15 700.36,191.23 700.54,194.92 700.72,192.46 700.90,192.46 701.08,191.23 701.26,194.92 701.44,191.23 701.62,316.84 701.80,196.15 701.98,192.46 702.16,193.69 702.34,194.92 702.52,193.69 702.70,194.92 702.88,191.23 703.06,193.69 703.24,191.23 703.42,193.69 703.60,191.23 703.78,191.23 703.96,194.92 704.14,191.23 704.32,191.23 704.50,191.84 704.68,188.76 704.86,194.92 705.04,194.92 705.22,188.76 705.40,191.23 705.58,191.84 705.76,194.92 705.94,191.84 706.12,191.23 706.30,191.84 706.48,188.76 706.66,193.69 706.84,194.92 707.02,191.23 707.20,191.23 707.38,193.69 707.56,191.23 707.74,191.84 707.92,196.15 708.10,197.38 708.28,194.92 708.46,194.31 708.64,200.46 708.82,196.77 709.00,200.46 709.18,196.77 709.36,196.77 709.54,199.23 709.72,201.69 709.90,197.38 710.08,200.46 710.26,200.46 710.44,198.00 710.62,319.92 710.80,191.23 710.98,191.23 711.16,193.69 711.34,191.23 711.52,192.46 711.70,191.23 711.88,191.23 712.06,191.23 712.24,194.92 712.42,191.23 712.60,192.46 712.78,192.46 712.96,194.92 713.14,193.69 713.32,193.69 713.50,191.23 713.68,191.23 713.86,196.15 714.04,194.92 714.22,188.76 714.40,193.69 714.58,192.46 714.76,191.23 714.94,191.23 715.12,192.46 715.30,191.23 715.48,194.92 715.66,191.23 715.84,191.23 716.02,191.84 716.20,192.46 716.38,191.84 716.56,192.46 716.74,192.46 716.92,194.92 717.10,192.46 717.28,191.23 717.46,191.84 717.64,194.92 717.82,191.23 718.00,194.92 718.18,194.92 718.36,192.46 718.54,198.00 718.72,196.77 718.90,196.77 719.08,196.77 719.26,200.46 719.44,196.77 719.62,320.54 719.80,188.76 719.98,191.84 720.16,192.46 720.34,196.15 720.52,192.46 720.70,194.92 720.88,194.92 721.06,193.69 721.24,194.92 721.42,192.46 721.60,193.69 721.78,193.69 721.96,191.23 722.14,193.69 722.32,191.23 722.50,191.23 722.68,192.46 722.87,191.23 723.05,194.92 723.23,191.84 723.41,194.92 723.59,191.84 723.77,191.23 723.95,198.62 724.13,192.46 724.31,194.92 724.49,191.23 724.67,192.46 724.85,193.69 725.03,191.23 725.21,191.23 725.39,196.15 725.57,191.84 725.75,180.14 725.93,196.15 726.11,193.69 726.29,191.23 726.47,191.23 726.65,191.84 726.83,191.23 727.01,191.84 727.19,193.69 727.37,191.23 727.55,191.84 727.73,194.92 727.91,194.92 728.09,196.15 728.27,191.84 728.45,194.92 728.63,314.38 728.81,191.23 728.99,191.84 729.17,194.92 729.35,193.69 729.53,191.23 729.71,192.46 729.89,194.92 730.07,190.00 730.25,191.84 730.43,194.92 730.61,193.69 730.79,191.23 730.97,191.23 731.15,188.76 731.33,194.92 731.51,188.76 731.69,188.76 731.87,196.15 732.05,188.76 732.23,191.23 732.41,191.23 732.59,191.84 732.77,191.23 732.95,191.23 733.13,194.92 733.31,186.30 733.49,191.84 733.67,191.23 733.85,196.15 734.03,198.62 734.21,193.69 734.39,191.23 734.57,180.14 734.75,191.23 734.93,191.84 735.11,191.84 735.29,200.46 735.47,198.00 735.65,200.46 735.83,197.38 736.01,199.23 736.19,199.23 736.37,201.69 736.55,196.77 736.73,196.77 736.91,200.46 737.09,201.69 737.27,201.69 737.45,196.77 737.63,319.92 737.81,188.76 737.99,193.69 738.17,191.23 738.35,196.15 738.53,191.23 738.71,191.23 738.89,188.76 739.07,193.69 739.25,194.92 739.43,191.84 739.61,188.76 739.79,188.76 739.97,191.84 740.15,191.23 740.33,191.23 740.51,191.23 740.69,191.23 740.87,196.15 741.05,192.46 741.23,196.77 741.41,200.46 741.59,198.00 741.77,186.30 741.95,188.76 742.13,194.92 742.31,191.23 742.49,191.23 742.67,187.53 742.85,188.76 743.03,191.23 743.21,188.76 743.39,198.62 743.57,194.92 743.75,188.76 743.93,196.15 744.11,188.76 744.29,188.76 744.47,188.76 744.65,191.23 744.83,191.84 745.01,192.46 745.19,188.76 745.37,196.15 745.55,192.46 745.73,198.62 745.91,198.62 746.09,188.76 746.27,191.23 746.45,188.76 746.63,311.30 746.81,193.69 746.99,192.46 747.17,194.92 747.35,191.84 747.53,191.84 747.71,193.69 747.89,191.23 748.07,188.76 748.25,193.69 748.43,187.53 748.61,191.84 748.79,191.84 748.97,196.15 749.15,191.84 749.33,192.46 749.51,191.84 749.69,194.92 749.87,191.23 750.05,186.30 750.23,191.23 750.41,192.46 750.59,192.46 750.77,194.92 750.95,193.69 751.13,192.46 751.31,191.84 751.49,191.84 751.67,192.46 751.85,191.84 752.03,198.62 752.21,196.15 752.39,196.15 752.57,198.62 752.75,192.46 752.93,198.62 753.11,192.46 753.29,191.23 753.47,191.84 753.65,198.62 753.83,192.46 754.01,191.23 754.19,192.46 754.37,194.92 754.55,194.92 754.73,191.23 754.91,191.23 755.09,194.92 755.27,194.92 755.45,190.00 755.63,313.15 755.81,193.69 755.99,191.84 756.17,191.84 756.35,191.23 756.53,191.23 756.71,188.76 756.89,191.23 757.07,191.23 757.25,194.92 757.43,191.23 757.61,191.23 757.79,194.92 757.97,191.84 758.15,186.30 758.33,188.76 758.51,191.84 758.69,191.23 758.87,192.46 759.05,194.92 759.24,191.84 759.42,191.84 759.60,191.23 759.78,191.84 759.96,188.76 760.14,191.84 760.32,194.92 760.50,191.23 760.68,188.76 760.86,191.23 761.04,188.76 761.22,191.23 761.40,191.84 761.58,193.69 761.76,192.46 761.94,191.84 762.12,191.84 762.30,196.15 762.48,192.46 762.66,194.92 762.84,196.15 763.02,191.84 763.20,192.46 763.38,188.76 763.56,191.23 763.74,191.84 763.92,191.23 764.10,194.92 764.28,188.76 764.46,191.23 764.64,315.00 764.82,191.84 765.00,192.46 765.18,192.46 765.36,192.46 765.54,193.69 765.72,178.30 765.90,189.38 766.08,194.31 766.26,190.61 766.44,190.61 766.62,193.07 766.80,190.00 766.98,190.00 767.16,190.00 767.34,191.84 767.52,190.00 767.70,190.61 767.88,190.00 768.06,190.00 768.24,190.00 768.42,190.00 768.60,193.07 768.78,190.00 768.96,194.31 769.14,190.00 769.32,193.07 769.50,190.00 769.68,191.84 769.86,189.38 770.04,193.07 770.22,191.84 770.40,190.00 770.58,190.00 770.76,194.31 770.94,194.92 771.12,192.46 771.30,194.92 771.48,192.46 771.66,188.76 771.84,191.23 772.02,192.46 772.20,191.23 772.38,191.23 772.56,192.46 772.74,192.46 772.92,191.23 773.10,196.15 773.28,196.15 773.46,193.69 773.64,318.07 773.82,191.23 774.00,196.15 774.18,194.92 774.36,191.84 774.54,193.69 774.72,192.46 774.90,191.23 775.08,191.23 775.26,184.45 775.44,193.07 775.62,194.31 775.80,193.07 775.98,190.61 776.16,190.61 776.34,191.84 776.52,185.68 776.70,194.92 776.88,191.84 777.06,191.23 777.24,196.15 777.42,190.00 777.60,196.15 777.78,193.69 777.96,196.15 778.14,192.46 778.32,192.46 778.50,194.92 778.68,191.23 778.86,194.92 779.04,188.76 779.22,191.84 779.40,191.23 779.58,193.69 779.76,194.92 779.94,193.69 780.12,191.84 780.30,191.23 780.48,191.23 780.66,191.23 780.84,196.15 781.02,191.23 781.20,191.84 781.38,193.69 781.56,194.92 781.74,191.23 781.92,191.84 782.10,196.15 782.28,196.15 782.46,191.23 782.64,315.00 782.82,191.84 783.00,191.23 783.18,188.76 783.36,191.23 783.54,188.76 783.72,191.84 783.90,188.76 784.08,196.15 784.26,194.92 784.44,194.92 784.62,194.92 784.80,191.84 784.98,191.23 785.16,180.14 785.34,194.31 785.52,198.00 785.70,199.23 785.88,197.38 786.06,186.30 786.24,194.92 786.42,191.84 786.60,191.84 786.78,194.92 786.96,191.84 787.14,192.46 787.32,191.84 787.50,191.84 787.68,191.23 787.86,191.23 788.04,191.84 788.22,191.23 788.40,192.46 788.58,191.23 788.76,196.15 788.94,193.69 789.12,192.46 789.30,191.23 789.48,191.84 789.66,194.92 789.84,191.84 790.02,192.46 790.20,192.46 790.38,194.92 790.56,192.46 790.74,191.23 790.92,318.69 791.10,192.46 791.28,190.00 791.46,196.15 791.64,194.92 791.82,194.92 792.00,188.76 792.18,191.84 792.36,194.92 792.54,191.23 792.72,192.46 792.90,194.92 793.08,188.76 793.26,194.92 793.44,191.23 793.62,186.30 793.80,191.23 793.98,191.84 794.16,198.62 794.34,191.84 794.52,192.46 794.70,196.15 794.88,191.23 795.06,192.46 795.24,188.76 795.43,191.23 795.61,191.23 795.79,194.92 795.97,188.76 796.15,187.53 796.33,196.15 796.51,191.84 796.69,191.23 796.87,191.23 797.05,191.84 797.23,191.23 797.41,191.23 797.59,191.84 797.77,191.23 797.95,191.23 798.13,188.76 798.31,192.46 798.49,188.76 798.67,191.84 798.85,198.62 799.03,193.69 799.21,194.92 799.39,191.84 799.57,191.23 799.75,315.00 799.93,193.69 800.11,191.23 800.29,192.46 800.47,193.69 800.65,193.69 800.83,191.23 801.01,191.23 801.19,193.69 801.37,191.23 801.55,193.69 801.73,192.46 801.91,191.84 802.09,192.46 802.27,192.46 802.45,194.92 802.63,191.23 802.81,196.15 802.99,191.84 803.17,192.46 803.35,191.84 803.53,191.84 803.71,192.46 803.89,191.23 804.07,194.92 804.25,192.46 804.43,193.69 804.61,196.15 804.79,191.84 804.97,194.92 805.15,194.92 805.33,192.46 805.51,191.84 805.69,193.69 805.87,191.23 806.05,191.84 806.23,191.84 806.41,191.84 806.59,193.69 806.77,191.23 806.95,191.84 807.13,191.84 807.31,200.46 807.49,197.38 807.67,201.69 807.85,198.00 808.03,198.00 808.21,198.00 808.39,196.77 808.57,196.77 808.75,327.31 808.93,198.62 809.11,191.84 809.29,191.23 809.47,186.30 809.65,192.46 809.83,191.23 810.01,192.46 810.19,191.84 810.37,192.46 810.55,196.15 810.73,192.46 810.91,194.92 811.09,193.69 811.27,187.53 811.45,191.84 811.63,194.92 811.81,194.92 811.99,191.23 812.17,191.23 812.35,194.92 812.53,194.92 812.71,191.84 812.89,192.46 813.07,191.84 813.25,196.15 813.43,194.92 813.61,193.69 813.79,191.23 813.97,192.46 814.15,193.69 814.33,192.46 814.51,198.62 814.69,194.92 814.87,196.77 815.05,197.38 815.23,196.77 815.41,196.77 815.59,197.38 815.77,197.38 815.95,196.77 816.13,197.38 816.31,197.38 816.49,198.00 816.67,199.23 816.85,197.38 817.03,196.77 817.21,191.84 817.39,200.46 817.57,200.46 817.75,322.38 817.93,190.00 818.11,191.84 818.29,193.69 818.47,180.14 818.65,196.15 818.83,188.76 819.01,191.23 819.19,192.46 819.37,196.15 819.55,194.92 819.73,194.92 819.91,191.84 820.09,194.92 820.27,191.84 820.45,192.46 820.63,191.84 820.81,194.92 820.99,192.46 821.17,191.23 821.35,194.92 821.53,191.84 821.71,196.15 821.89,191.84 822.07,191.23 822.25,198.62 822.43,191.84 822.61,193.69 822.79,191.23 822.97,191.23 823.15,191.23 823.33,191.23 823.51,196.15 823.69,192.46 823.87,192.46 824.05,192.46 824.23,193.69 824.41,191.23 824.59,194.92 824.77,196.15 824.95,191.23 825.13,182.61 825.31,194.92 825.49,192.46 825.67,191.23 825.85,191.84 826.03,191.23 826.21,191.23 826.39,191.23 826.57,191.23 826.75,311.92 826.93,192.46 827.11,193.69 827.29,194.92 827.47,193.69 827.65,194.92 827.83,194.92 828.01,194.92 828.19,193.69 828.37,191.23 828.55,192.46 828.73,191.23 828.91,191.23 829.09,191.23 829.27,197.38 829.45,197.38 829.63,191.84 829.81,200.46 829.99,196.77 830.17,198.00 830.35,199.23 830.53,196.77 830.71,198.00 830.89,197.38 831.07,200.46 831.25,197.38 831.43,196.77 831.61,197.38 831.80,201.69 831.98,200.46 832.16,196.77 832.34,200.46 832.52,199.23 832.70,196.77 832.88,197.38 833.06,197.38 833.24,201.69 833.42,198.00 833.60,201.69 833.78,200.46 833.96,204.16 834.14,199.23 834.32,191.84 834.50,196.77 834.68,198.00 834.86,196.77 835.04,200.46 835.22,197.38 835.40,198.00 835.58,201.69 835.76,319.92 835.94,196.15 836.12,191.23 836.30,191.23 836.48,196.15 836.66,191.23 836.84,194.92 837.02,191.23 837.20,191.23 837.38,191.84 837.56,193.69 837.74,180.14 837.92,191.84 838.10,192.46 838.28,194.92 838.46,191.84 838.64,191.23 838.82,191.23 839.00,191.23 839.18,194.92 839.36,191.84 839.54,194.92 839.72,191.84 839.90,192.46 840.08,191.84 840.26,194.92 840.44,193.69 840.62,191.23 840.80,191.23 840.98,191.84 841.16,188.76 841.34,191.23 841.52,192.46 841.70,191.84 841.88,194.92 842.06,191.23 842.24,191.23 842.42,191.84 842.60,196.15 842.78,194.92 842.96,192.46 843.14,196.15 843.32,191.23 843.50,191.23 843.68,191.84 843.86,191.23 844.04,193.69 844.22,191.23 844.40,193.69 844.58,196.15 844.76,318.07" fill="none" stroke="#2f6fed" stroke-width="2.5" stroke-linejoin="round" stroke-linecap="round" />
  <line x1="738" y1="68" x2="774" y2="68" stroke="#2f6fed" stroke-width="3" /><text x="782" y="72" font-size="13" fill="#263241">step reward</text>
</svg>
