<svg xmlns="http://www.w3.org/2000/svg" width="960" height="420" viewBox="0 0 960 420">
  <rect width="100%" height="100%" fill="#ffffff" />
  <text x="72" y="28" font-size="22" font-weight="700" fill="#17202a">Recovery Success Rate</text>
  <line x1="72" y1="348.00" x2="902" y2="348.00" stroke="#e7eaf0" stroke-width="1" /><text x="60" y="352.00" text-anchor="end" font-size="12" fill="#526071">-0.00</text><line x1="72" y1="288.00" x2="902" y2="288.00" stroke="#e7eaf0" stroke-width="1" /><text x="60" y="292.00" text-anchor="end" font-size="12" fill="#526071">0.01</text><line x1="72" y1="228.00" x2="902" y2="228.00" stroke="#e7eaf0" stroke-width="1" /><text x="60" y="232.00" text-anchor="end" font-size="12" fill="#526071">0.02</text><line x1="72" y1="168.00" x2="902" y2="168.00" stroke="#e7eaf0" stroke-width="1" /><text x="60" y="172.00" text-anchor="end" font-size="12" fill="#526071">0.03</text><line x1="72" y1="108.00" x2="902" y2="108.00" stroke="#e7eaf0" stroke-width="1" /><text x="60" y="112.00" text-anchor="end" font-size="12" fill="#526071">0.04</text><line x1="72" y1="48.00" x2="902" y2="48.00" stroke="#e7eaf0" stroke-width="1" /><text x="60" y="52.00" text-anchor="end" font-size="12" fill="#526071">0.05</text>
  <line x1="72" y1="48" x2="72" y2="348" stroke="#2f3a45" stroke-width="1.4" />
  <line x1="72" y1="348" x2="902" y2="348" stroke="#2f3a45" stroke-width="1.4" />
  <text x="487.0" y="392" text-anchor="middle" font-size="14" fill="#344052">Episode</text>
  <text x="18" y="198.0" text-anchor="middle" font-size="14" fill="#344052" transform="rotate(-90 18 198.0)">Rolling success rate</text>
  <text x="72" y="370" text-anchor="middle" font-size="12" fill="#526071">-5</text>
  <text x="902" y="370" text-anchor="middle" font-size="12" fill="#526071">86</text>
  <polyline points="129.24,327.31 138.30,327.31 147.36,327.31 156.41,327.31 165.47,327.31 174.53,327.31 183.58,327.31 192.64,327.31 201.70,327.31 210.76,327.31 219.81,327.31 228.87,327.31 237.93,327.31 246.98,327.31 256.04,327.31 265.10,327.31 274.16,327.31 283.21,327.31 292.27,327.31 301.33,327.31 310.38,327.31 319.44,327.31 328.50,327.31 337.56,327.31 346.61,327.31 355.67,327.31 364.73,327.31 373.79,327.31 382.84,327.31 391.90,327.31 400.96,327.31 410.01,327.31 419.07,327.31 428.13,327.31 437.19,327.31 446.24,327.31 455.30,68.69 464.36,68.69 473.41,68.69 482.47,68.69 491.53,68.69 500.59,68.69 509.64,68.69 518.70,68.69 527.76,68.69 536.81,68.69 545.87,68.69 554.93,68.69 563.99,68.69 573.04,68.69 582.10,68.69 591.16,68.69 600.21,68.69 609.27,68.69 618.33,68.69 627.39,68.69 636.44,327.31 645.50,327.31 654.56,327.31 663.62,327.31 672.67,327.31 681.73,327.31 690.79,327.31 699.84,327.31 708.90,327.31 717.96,327.31 727.02,327.31 736.07,327.31 745.13,327.31 754.19,327.31 763.24,327.31 772.30,327.31 781.36,327.31 790.42,327.31 799.47,327.31 808.53,327.31 817.59,327.31 826.64,327.31 835.70,327.31 844.76,327.31" fill="none" stroke="#1f8a99" stroke-width="2.5" stroke-linejoin="round" stroke-linecap="round" />
  <line x1="738" y1="68" x2="774" y2="68" stroke="#1f8a99" stroke-width="3" /><text x="782" y="72" font-size="13" fill="#263241">20 episode rate</text>
</svg>
