<svg xmlns="http://www.w3.org/2000/svg" width="960" height="420" viewBox="0 0 960 420">
  <rect width="100%" height="100%" fill="#ffffff" />
  <text x="72" y="28" font-size="22" font-weight="700" fill="#17202a">Training Loss</text>
  <line x1="72" y1="348.00" x2="902" y2="348.00" stroke="#e7eaf0" stroke-width="1" /><text x="60" y="352.00" text-anchor="end" font-size="12" fill="#526071">0.03</text><line x1="72" y1="288.00" x2="902" y2="288.00" stroke="#e7eaf0" stroke-width="1" /><text x="60" y="292.00" text-anchor="end" font-size="12" fill="#526071">0.81</text><line x1="72" y1="228.00" x2="902" y2="228.00" stroke="#e7eaf0" stroke-width="1" /><text x="60" y="232.00" text-anchor="end" font-size="12" fill="#526071">1.59</text><line x1="72" y1="168.00" x2="902" y2="168.00" stroke="#e7eaf0" stroke-width="1" /><text x="60" y="172.00" text-anchor="end" font-size="12" fill="#526071">2.36</text><line x1="72" y1="108.00" x2="902" y2="108.00" stroke="#e7eaf0" stroke-width="1" /><text x="60" y="112.00" text-anchor="end" font-size="12" fill="#526071">3.14</text><line x1="72" y1="48.00" x2="902" y2="48.00" stroke="#e7eaf0" stroke-width="1" /><text x="60" y="52.00" text-anchor="end" font-size="12" fill="#526071">3.92</text>
  <line x1="72" y1="48" x2="72" y2="348" stroke="#2f3a45" stroke-width="1.4" />
  <line x1="72" y1="348" x2="902" y2="348" stroke="#2f3a45" stroke-width="1.4" />
  <text x="487.0" y="392" text-anchor="middle" font-size="14" fill="#344052">Episode</text>
  <text x="18" y="198.0" text-anchor="middle" font-size="14" fill="#344052" transform="rotate(-90 18 198.0)">Mean TD loss</text>
  <text x="72" y="370" text-anchor="middle" font-size="12" fill="#526071">-1</text>
  <text x="902" y="370" text-anchor="middle" font-size="12" fill="#526071">22</text>
  <polyline points="129.24,216.23 166.90,154.26 204.56,117.92 242.22,68.69 279.88,210.66 317.54,200.81 355.19,149.97 392.85,164.05 430.51,306.18 468.17,209.36 505.83,182.59 543.49,283.39 581.15,181.47 618.81,172.10 656.46,325.50 694.12,279.62 731.78,305.84 769.44,122.83 807.10,327.31 844.76,173.44" fill="none" stroke="#6f4cc3" stroke-width="2.5" stroke-linejoin="round" stroke-linecap="round" /><polyline points="129.24,216.23 166.90,185.25 204.56,162.80 242.22,139.28 279.88,153.55 317.54,161.43 355.19,159.79 392.85,160.32 430.51,176.53 468.17,179.81 505.83,180.07 543.49,188.68 581.15,188.12 618.81,186.98 656.46,196.21 694.12,201.43 731.78,207.57 769.44,202.86 807.10,209.41 844.76,207.61" fill="none" stroke="#209a72" stroke-width="2.5" stroke-linejoin="round" stroke-linecap="round" />
  <line x1="738" y1="68" x2="774" y2="68" stroke="#6f4cc3" stroke-width="3" /><text x="782" y="72" font-size="13" fill="#263241">episode loss</text><line x1="738" y1="90" x2="774" y2="90" stroke="#209a72" stroke-width="3" /><text x="782" y="94" font-size="13" fill="#263241">20 episode average</text>
</svg>
