<svg xmlns="http://www.w3.org/2000/svg" width="960" height="420" viewBox="0 0 960 420">
  <rect width="100%" height="100%" fill="#ffffff" />
  <text x="72" y="28" font-size="22" font-weight="700" fill="#17202a">Per-step Reward (all episodes)</text>
  <line x1="72" y1="348.00" x2="902" y2="348.00" stroke="#e7eaf0" stroke-width="1" /><text x="60" y="352.00" text-anchor="end" font-size="12" fill="#526071">-12.68</text><line x1="72" y1="288.00" x2="902" y2="288.00" stroke="#e7eaf0" stroke-width="1" /><text x="60" y="292.00" text-anchor="end" font-size="12" fill="#526071">-7.81</text><line x1="72" y1="228.00" x2="902" y2="228.00" stroke="#e7eaf0" stroke-width="1" /><text x="60" y="232.00" text-anchor="end" font-size="12" fill="#526071">-2.94</text><line x1="72" y1="168.00" x2="902" y2="168.00" stroke="#e7eaf0" stroke-width="1" /><text x="60" y="172.00" text-anchor="end" font-size="12" fill="#526071">1.94</text><line x1="72" y1="108.00" x2="902" y2="108.00" stroke="#e7eaf0" stroke-width="1" /><text x="60" y="112.00" text-anchor="end" font-size="12" fill="#526071">6.81</text><line x1="72" y1="48.00" x2="902" y2="48.00" stroke="#e7eaf0" stroke-width="1" /><text x="60" y="52.00" text-anchor="end" font-size="12" fill="#526071">11.68</text>
  <line x1="72" y1="48" x2="72" y2="348" stroke="#2f3a45" stroke-width="1.4" />
  <line x1="72" y1="348" x2="902" y2="348" stroke="#2f3a45" stroke-width="1.4" />
  <text x="487.0" y="392" text-anchor="middle" font-size="14" fill="#344052">Step index</text>
  <text x="18" y="198.0" text-anchor="middle" font-size="14" fill="#344052" transform="rotate(-90 18 198.0)">Reward</text>
  <text x="72" y="370" text-anchor="middle" font-size="12" fill="#526071">-65</text>
  <text x="902" y="370" text-anchor="middle" font-size="12" fill="#526071">892</text>
  <polyline points="129.24,191.84 130.11,191.84 130.98,191.84 131.84,191.23 132.71,191.23 133.58,191.23 134.45,191.84 135.31,192.46 136.18,191.84 137.05,193.69 137.91,193.69 138.78,194.92 139.65,196.15 140.52,180.14 141.38,196.15 142.25,196.15 143.12,194.92 143.99,184.45 144.85,188.15 145.72,185.68 146.59,193.07 147.45,191.84 148.32,189.38 149.19,191.84 150.06,191.84 150.92,191.84 151.79,190.00 152.66,190.00 153.53,190.00 154.39,68.69 155.26,191.84 156.13,191.84 156.99,191.84 157.86,191.23 158.73,191.23 159.60,191.23 160.46,191.84 161.33,192.46 162.20,191.84 163.07,188.76 163.93,188.76 164.80,180.76 165.67,194.31 166.54,194.31 167.40,194.31 168.27,194.31 169.14,193.07 170.00,191.84 170.87,191.84 171.74,190.00 172.61,193.07 173.47,191.84 174.34,189.38 175.21,191.84 176.08,191.84 176.94,191.84 177.81,190.00 178.68,190.00 179.54,190.00 180.41,68.69 181.28,191.84 182.15,191.84 183.01,191.84 183.88,191.23 184.75,191.23 185.62,191.23 186.48,191.84 187.35,191.23 188.22,191.84 189.08,188.76 189.95,188.76 190.82,182.61 191.69,196.15 192.55,196.15 193.42,196.15 194.29,196.15 195.16,180.14 196.02,193.69 196.89,193.69 197.76,191.84 198.62,194.92 199.49,193.69 200.36,191.23 201.23,188.76 202.09,188.76 202.96,186.92 203.83,190.00 204.70,190.00 205.56,190.00 206.43,194.31 207.30,194.31 208.17,194.31 209.03,194.31 209.90,193.07 210.77,190.61 211.63,190.61 212.50,189.38 213.37,68.69 214.24,191.84 215.10,191.84 215.97,191.84 216.84,191.23 217.71,191.23 218.57,191.23 219.44,191.84 220.31,192.46 221.17,191.84 222.04,193.69 222.91,193.69 223.78,194.92 224.64,180.14 225.51,196.15 226.38,196.15 227.25,196.15 228.11,200.46 228.98,191.84 229.85,195.54 230.71,193.07 231.58,196.77 232.45,199.23 233.32,196.77 234.18,199.23 235.05,199.23 235.92,199.23 236.79,197.38 237.65,197.38 238.52,191.84 239.39,198.62 240.25,198.62 241.12,198.62 241.99,198.62 242.86,194.92 243.72,196.15 244.59,193.69 245.46,191.84 246.33,191.84 247.19,192.46 248.06,191.23 248.93,194.92 249.80,192.46 250.66,194.92 251.53,194.92 252.40,193.69 253.26,193.69 254.13,191.23 255.00,194.92 255.87,192.46 256.73,319.31 257.60,193.69 258.47,191.84 259.34,193.69 260.20,191.84 261.07,191.23 261.94,196.15 262.80,198.62 263.67,191.23 264.54,191.23 265.41,194.92 266.27,188.76 267.14,194.92 268.01,194.92 268.88,191.23 269.74,191.84 270.61,191.23 271.48,191.84 272.34,194.92 273.21,191.84 274.08,194.92 274.95,196.15 275.81,194.92 276.68,194.92 277.55,191.84 278.42,194.92 279.28,198.62 280.15,180.14 281.02,192.46 281.89,191.84 282.75,192.46 283.62,194.92 284.49,191.84 285.35,192.46 286.22,191.23 287.09,192.46 287.96,191.23 288.82,192.46 289.69,191.84 290.56,193.69 291.43,194.92 292.29,191.84 293.16,191.23 294.03,192.46 294.89,191.23 295.76,192.46 296.63,194.92 297.50,198.62 298.36,194.92 299.23,198.62 300.10,316.84 300.97,188.76 301.83,192.46 302.70,191.84 303.57,198.62 304.43,196.15 305.30,192.46 306.17,188.76 307.04,192.46 307.90,191.84 308.77,192.46 309.64,191.84 310.51,194.92 311.37,191.84 312.24,191.84 313.11,191.84 313.97,191.84 314.84,186.30 315.71,193.69 316.58,188.76 317.44,192.46 318.31,191.84 319.18,196.15 320.05,182.61 320.91,198.62 321.78,191.23 322.65,191.84 323.52,194.92 324.38,191.84 325.25,191.84 326.12,194.92 326.98,191.84 327.85,198.62 328.72,191.84 329.59,191.23 330.45,194.92 331.32,194.92 332.19,191.84 333.06,191.23 333.92,191.84 334.79,196.15 335.66,191.84 336.52,194.92 337.39,194.92 338.26,191.84 339.13,196.15 339.99,194.92 340.86,194.92 341.73,191.84 342.60,191.23 343.46,318.07 344.33,191.84 345.20,191.84 346.06,191.84 346.93,191.23 347.80,191.23 348.67,191.23 349.53,191.84 350.40,192.46 351.27,191.84 352.14,188.76 353.00,188.76 353.87,182.61 354.74,196.15 355.61,196.15 356.47,196.15 357.34,196.15 358.21,194.92 359.07,199.23 359.94,199.23 360.81,197.38 361.68,196.77 362.54,199.23 363.41,196.77 364.28,199.23 365.15,199.23 366.01,199.23 366.88,191.84 367.75,191.84 368.61,191.84 369.48,198.62 370.35,198.62 371.22,198.62 372.08,198.62 372.95,188.76 373.82,191.23 374.69,204.16 375.55,196.77 376.42,198.00 377.29,200.46 378.15,200.46 379.02,198.00 379.89,198.00 380.76,200.46 381.62,199.23 382.49,196.77 383.36,199.23 384.23,196.77 385.09,197.38 385.96,197.38 386.83,319.92 387.69,191.23 388.56,188.76 389.43,192.46 390.30,191.23 391.16,191.23 392.03,193.69 392.90,191.23 393.77,194.92 394.63,193.69 395.50,191.23 396.37,194.92 397.24,191.23 398.10,191.23 398.97,194.92 399.84,193.69 400.70,194.92 401.57,191.23 402.44,192.46 403.31,198.62 404.17,194.92 405.04,191.84 405.91,193.69 406.78,191.84 407.64,196.15 408.51,193.69 409.38,194.92 410.24,191.23 411.11,191.84 411.98,194.92 412.85,191.23 413.71,196.15 414.58,192.46 415.45,194.92 416.32,194.92 417.18,192.46 418.05,191.23 418.92,196.15 419.78,193.69 420.65,196.15 421.52,196.15 422.39,191.23 423.25,196.15 424.12,191.84 424.99,192.46 425.86,191.23 426.72,194.92 427.59,192.46 428.46,192.46 429.32,201.69 430.19,323.62 431.06,191.84 431.93,191.84 432.79,191.84 433.66,191.23 434.53,191.23 435.40,191.23 436.26,191.84 437.13,192.46 438.00,191.84 438.87,193.69 439.73,193.69 440.60,194.92 441.47,178.30 442.33,194.31 443.20,194.31 444.07,194.31 444.94,193.07 445.80,191.84 446.67,191.84 447.54,190.00 448.41,193.07 449.27,191.84 450.14,189.38 451.01,191.84 451.87,191.84 452.74,191.84 453.61,190.00 454.48,190.00 455.34,190.00 456.21,68.69 457.08,191.84 457.95,191.84 458.81,192.46 459.68,192.46 460.55,191.84 461.41,192.46 462.28,193.69 463.15,191.84 464.02,187.53 464.88,193.69 465.75,191.23 466.62,191.84 467.49,194.92 468.35,196.15 469.22,191.23 470.09,192.46 470.96,191.23 471.82,192.46 472.69,193.69 473.56,191.84 474.42,194.92 475.29,192.46 476.16,191.23 477.03,191.84 477.89,191.84 478.76,190.00 479.63,191.84 480.50,192.46 481.36,188.76 482.23,194.92 483.10,194.92 483.96,191.23 484.83,191.84 485.70,194.92 486.57,191.84 487.43,198.62 488.30,194.92 489.17,191.23 490.04,192.46 490.90,194.92 491.77,191.84 492.64,194.92 493.50,191.84 494.37,191.23 495.24,191.84 496.11,191.84 496.97,194.92 497.84,317.46 498.71,191.84 499.58,191.84 500.44,191.84 501.31,191.23 502.18,191.23 503.04,191.23 503.91,191.84 504.78,192.46 505.65,191.84 506.51,188.76 507.38,188.76 508.25,182.61 509.12,196.15 509.98,196.15 510.85,201.69 511.72,201.69 512.59,200.46 513.45,191.84 514.32,195.54 515.19,193.07 516.05,196.77 516.92,194.31 517.79,196.77 518.66,199.23 519.52,199.23 520.39,199.23 521.26,197.38 522.13,197.38 522.99,197.38 523.86,204.16 524.73,204.16 525.59,204.16 526.46,204.16 527.33,191.84 528.20,194.92 529.06,196.15 529.93,193.69 530.80,191.23 531.67,188.76 532.53,197.38 533.40,194.31 534.27,200.46 535.13,198.00 536.00,200.46 536.87,196.77 537.74,196.77 538.60,204.16 539.47,197.38 540.34,200.46 541.21,327.31 542.07,191.84 542.94,191.84 543.81,191.84 544.68,191.23 545.54,191.23 546.41,191.23 547.28,191.84 548.14,192.46 549.01,191.84 549.88,193.69 550.75,193.69 551.61,194.92 552.48,178.30 553.35,194.31 554.22,194.31 555.08,194.31 555.95,193.07 556.82,191.84 557.68,191.84 558.55,190.00 559.42,193.07 560.29,191.84 561.15,189.38 562.02,191.84 562.89,191.84 563.76,191.84 564.62,190.00 565.49,190.00 566.36,190.00 567.22,68.69 568.09,191.23 568.96,192.46 569.83,191.84 570.69,191.84 571.56,193.69 572.43,180.14 573.30,198.62 574.16,191.84 575.03,192.46 575.90,191.84 576.76,196.15 577.63,188.76 578.50,188.76 579.37,193.69 580.23,194.92 581.10,191.23 581.97,191.84 582.84,191.84 583.70,194.92 584.57,193.69 585.44,191.23 586.31,191.84 587.17,193.69 588.04,191.23 588.91,191.84 589.77,196.15 590.64,193.69 591.51,191.84 592.38,196.15 593.24,194.92 594.11,193.69 594.98,191.23 595.85,194.92 596.71,192.46 597.58,193.69 598.45,191.23 599.31,191.84 600.18,194.92 601.05,193.69 601.92,193.69 602.78,192.46 603.65,191.23 604.52,194.92 605.39,194.92 606.25,194.92 607.12,191.23 607.99,181.37 608.85,194.92 609.72,193.69 610.59,318.07 611.46,191.84 612.32,191.84 613.19,191.23 614.06,192.46 614.93,194.92 615.79,191.84 616.66,192.46 617.53,180.14 618.39,194.92 619.26,186.30 620.13,191.23 621.00,192.46 621.86,191.84 622.73,192.46 623.60,200.46 624.47,197.38 625.33,201.69 626.20,200.46 627.07,197.38 627.94,196.77 628.80,200.46 629.67,197.38 630.54,198.00 631.40,191.84 632.27,197.38 633.14,195.54 634.01,196.77 634.87,196.77 635.74,191.84 636.61,191.23 637.48,196.15 638.34,192.46 639.21,196.15 640.08,191.84 640.94,192.46 641.81,196.15 642.68,193.69 643.55,191.23 644.41,191.84 645.28,191.23 646.15,196.15 647.02,191.23 647.88,191.84 648.75,194.92 649.62,198.62 650.48,193.69 651.35,192.46 652.22,194.92 653.09,198.62 653.95,315.61 654.82,191.84 655.69,191.84 656.56,191.84 657.42,191.23 658.29,191.23 659.16,191.23 660.03,191.84 660.89,192.46 661.76,191.84 662.63,193.69 663.49,193.69 664.36,194.92 665.23,196.15 666.10,196.15 666.96,196.15 667.83,196.15 668.70,194.92 669.57,190.00 670.43,184.45 671.30,185.68 672.17,193.07 673.03,191.84 673.90,189.38 674.77,191.84 675.64,191.84 676.50,191.84 677.37,190.00 678.24,190.00 679.11,190.00 679.97,68.69 680.84,191.84 681.71,191.84 682.57,191.84 683.44,191.23 684.31,191.23 685.18,191.23 686.04,191.84 686.91,192.46 687.78,191.84 688.65,193.69 689.51,193.69 690.38,194.92 691.25,196.15 692.11,188.76 692.98,196.15 693.85,178.30 694.72,193.07 695.58,191.84 696.45,191.84 697.32,190.00 698.19,193.07 699.05,191.84 699.92,189.38 700.79,191.84 701.66,191.84 702.52,191.84 703.39,190.00 704.26,190.00 705.12,190.00 705.99,68.69 706.86,191.84 707.73,191.84 708.59,191.84 709.46,191.23 710.33,191.23 711.20,191.23 712.06,191.84 712.93,192.46 713.80,191.84 714.66,193.69 715.53,193.69 716.40,194.92 717.27,188.76 718.13,196.15 719.00,180.14 719.87,196.15 720.74,194.92 721.60,193.69 722.47,193.69 723.34,191.84 724.20,194.92 725.07,193.69 725.94,179.53 726.81,191.84 727.67,191.84 728.54,191.84 729.41,190.00 730.28,190.00 731.14,190.00 732.01,68.69 732.88,191.84 733.75,191.84 734.61,191.84 735.48,191.23 736.35,191.23 737.21,191.23 738.08,191.84 738.95,191.23 739.82,191.84 740.68,193.69 741.55,193.69 742.42,194.92 743.29,196.15 744.15,180.14 745.02,196.15 745.89,196.15 746.75,180.14 747.62,186.30 748.49,190.00 749.36,187.53 750.22,194.92 751.09,193.69 751.96,191.23 752.83,188.76 753.69,188.76 754.56,186.92 755.43,190.00 756.29,190.00 757.16,190.00 758.03,194.31 758.90,194.31 759.76,194.31 760.63,194.31 761.50,190.61 762.37,193.07 763.23,190.61 764.10,193.07 764.97,190.61 765.83,189.38 766.70,189.38 767.57,191.84 768.44,191.84 769.30,193.07 770.17,193.07 771.04,190.61 771.91,191.84 772.77,193.07 773.64,189.38 774.51,189.38 775.38,312.53 776.24,191.84 777.11,191.84 777.98,191.84 778.84,191.23 779.71,191.23 780.58,191.23 781.45,191.84 782.31,192.46 783.18,191.84 784.05,193.69 784.92,193.69 785.78,194.92 786.65,180.14 787.52,196.15 788.38,196.15 789.25,196.15 790.12,194.92 790.99,193.69 791.85,193.69 792.72,191.84 793.59,194.92 794.46,193.69 795.32,179.53 796.19,191.84 797.06,191.84 797.92,191.84 798.79,190.00 799.66,190.00 800.53,190.00 801.39,68.69 802.26,193.69 803.13,194.92 804.00,196.15 804.86,191.23 805.73,193.69 806.60,191.23 807.46,191.23 808.33,192.46 809.20,194.92 810.07,192.46 810.93,192.46 811.80,192.46 812.67,192.46 813.54,200.46 814.40,199.23 815.27,197.38 816.14,204.16 817.01,200.46 817.87,199.23 818.74,198.00 819.61,198.00 820.47,186.92 821.34,204.16 822.21,199.23 823.08,198.00 823.94,198.00 824.81,198.00 825.68,200.46 826.55,201.69 827.41,200.46 828.28,198.00 829.15,197.38 830.01,197.38 830.88,191.84 831.75,196.77 832.62,198.00 833.48,198.00 834.35,196.77 835.22,196.77 836.09,198.00 836.95,199.23 837.82,197.38 838.69,199.23 839.55,200.46 840.42,200.46 841.29,198.00 842.16,200.46 843.02,199.23 843.89,197.38 844.76,319.92" fill="none" stroke="#2f6fed" stroke-width="2.5" stroke-linejoin="round" stroke-linecap="round" />
  <line x1="738" y1="68" x2="774" y2="68" stroke="#2f6fed" stroke-width="3" /><text x="782" y="72" font-size="13" fill="#263241">step reward</text>
</svg>
