<svg xmlns="http://www.w3.org/2000/svg" width="960" height="420" viewBox="0 0 960 420">
  <rect width="100%" height="100%" fill="#ffffff" />
  <text x="72" y="28" font-size="22" font-weight="700" fill="#17202a">Episode Length</text>
  <line x1="72" y1="348.00" x2="902" y2="348.00" stroke="#e7eaf0" stroke-width="1" /><text x="60" y="352.00" text-anchor="end" font-size="12" fill="#526071">4.64</text><line x1="72" y1="288.00" x2="902" y2="288.00" stroke="#e7eaf0" stroke-width="1" /><text x="60" y="292.00" text-anchor="end" font-size="12" fill="#526071">14.38</text><line x1="72" y1="228.00" x2="902" y2="228.00" stroke="#e7eaf0" stroke-width="1" /><text x="60" y="232.00" text-anchor="end" font-size="12" fill="#526071">24.13</text><line x1="72" y1="168.00" x2="902" y2="168.00" stroke="#e7eaf0" stroke-width="1" /><text x="60" y="172.00" text-anchor="end" font-size="12" fill="#526071">33.87</text><line x1="72" y1="108.00" x2="902" y2="108.00" stroke="#e7eaf0" stroke-width="1" /><text x="60" y="112.00" text-anchor="end" font-size="12" fill="#526071">43.62</text><line x1="72" y1="48.00" x2="902" y2="48.00" stroke="#e7eaf0" stroke-width="1" /><text x="60" y="52.00" text-anchor="end" font-size="12" fill="#526071">53.36</text>
  <line x1="72" y1="48" x2="72" y2="348" stroke="#2f3a45" stroke-width="1.4" />
  <line x1="72" y1="348" x2="902" y2="348" stroke="#2f3a45" stroke-width="1.4" />
  <text x="487.0" y="392" text-anchor="middle" font-size="14" fill="#344052">Episode</text>
  <text x="18" y="198.0" text-anchor="middle" font-size="14" fill="#344052" transform="rotate(-90 18 198.0)">Steps</text>
  <text x="72" y="370" text-anchor="middle" font-size="12" fill="#526071">-5</text>
  <text x="902" y="370" text-anchor="middle" font-size="12" fill="#526071">86</text>
  <polyline points="129.24,191.84 138.30,191.84 147.36,142.58 156.41,68.69 165.47,68.69 174.53,68.69 183.58,68.69 192.64,68.69 201.70,191.84 210.76,74.85 219.81,68.69 228.87,191.84 237.93,68.69 246.98,68.69 256.04,191.84 265.10,191.84 274.16,191.84 283.21,68.69 292.27,68.69 301.33,68.69 310.38,142.58 319.44,68.69 328.50,68.69 337.56,68.69 346.61,161.05 355.67,68.69 364.73,68.69 373.79,68.69 382.84,68.69 391.90,191.84 400.96,68.69 410.01,191.84 419.07,68.69 428.13,68.69 437.19,191.84 446.24,191.84 455.30,105.64 464.36,179.53 473.41,68.69 482.47,68.69 491.53,68.69 500.59,68.69 509.64,191.84 518.70,191.84 527.76,99.48 536.81,68.69 545.87,68.69 554.93,327.31 563.99,191.84 573.04,68.69 582.10,191.84 591.16,68.69 600.21,68.69 609.27,68.69 618.33,68.69 627.39,68.69 636.44,68.69 645.50,68.69 654.56,68.69 663.62,191.84 672.67,191.84 681.73,68.69 690.79,191.84 699.84,68.69 708.90,68.69 717.96,265.73 727.02,68.69 736.07,68.69 745.13,68.69 754.19,93.32 763.24,68.69 772.30,68.69 781.36,68.69 790.42,142.58 799.47,99.48 808.53,68.69 817.59,68.69 826.64,68.69 835.70,68.69 844.76,68.69" fill="none" stroke="#c67a00" stroke-width="2.5" stroke-linejoin="round" stroke-linecap="round" />
  <line x1="738" y1="68" x2="774" y2="68" stroke="#c67a00" stroke-width="3" /><text x="782" y="72" font-size="13" fill="#263241">steps</text>
</svg>
