<svg xmlns="http://www.w3.org/2000/svg" width="960" height="420" viewBox="0 0 960 420">
  <rect width="100%" height="100%" fill="#ffffff" />
  <text x="72" y="28" font-size="22" font-weight="700" fill="#17202a">Training Loss</text>
  <line x1="72" y1="348.00" x2="902" y2="348.00" stroke="#e7eaf0" stroke-width="1" /><text x="60" y="352.00" text-anchor="end" font-size="12" fill="#526071">-0.25</text><line x1="72" y1="288.00" x2="902" y2="288.00" stroke="#e7eaf0" stroke-width="1" /><text x="60" y="292.00" text-anchor="end" font-size="12" fill="#526071">0.65</text><line x1="72" y1="228.00" x2="902" y2="228.00" stroke="#e7eaf0" stroke-width="1" /><text x="60" y="232.00" text-anchor="end" font-size="12" fill="#526071">1.54</text><line x1="72" y1="168.00" x2="902" y2="168.00" stroke="#e7eaf0" stroke-width="1" /><text x="60" y="172.00" text-anchor="end" font-size="12" fill="#526071">2.44</text><line x1="72" y1="108.00" x2="902" y2="108.00" stroke="#e7eaf0" stroke-width="1" /><text x="60" y="112.00" text-anchor="end" font-size="12" fill="#526071">3.34</text><line x1="72" y1="48.00" x2="902" y2="48.00" stroke="#e7eaf0" stroke-width="1" /><text x="60" y="52.00" text-anchor="end" font-size="12" fill="#526071">4.23</text>
  <line x1="72" y1="48" x2="72" y2="348" stroke="#2f3a45" stroke-width="1.4" />
  <line x1="72" y1="348" x2="902" y2="348" stroke="#2f3a45" stroke-width="1.4" />
  <text x="487.0" y="392" text-anchor="middle" font-size="14" fill="#344052">Episode</text>
  <text x="18" y="198.0" text-anchor="middle" font-size="14" fill="#344052" transform="rotate(-90 18 198.0)">Mean TD loss</text>
  <text x="72" y="370" text-anchor="middle" font-size="12" fill="#526071">-5</text>
  <text x="902" y="370" text-anchor="middle" font-size="12" fill="#526071">86</text>
  <polyline points="129.24,214.85 138.30,161.12 147.36,129.61 156.41,86.93 165.47,210.01 174.53,210.67 183.58,209.49 192.64,198.03 201.70,288.00 210.76,185.59 219.81,218.80 228.87,289.63 237.93,212.04 246.98,195.72 256.04,303.27 265.10,247.44 274.16,287.06 283.21,111.36 292.27,148.76 301.33,148.46 310.38,160.03 319.44,185.53 328.50,157.19 337.56,176.64 346.61,102.12 355.67,137.93 364.73,188.35 373.79,163.65 382.84,145.94 391.90,318.86 400.96,154.19 410.01,311.83 419.07,68.69 428.13,92.61 437.19,314.04 446.24,319.16 455.30,322.87 464.36,313.40 473.41,110.29 482.47,116.12 491.53,124.08 500.59,126.88 509.64,320.58 518.70,327.31 527.76,319.54 536.81,94.71 545.87,152.48 554.93,308.21 563.99,306.16 573.04,80.82 582.10,320.67 591.16,76.90 600.21,112.31 609.27,111.46 618.33,118.53 627.39,169.82 636.44,83.45 645.50,92.66 654.56,114.02 663.62,324.87 672.67,318.24 681.73,148.84 690.79,321.62 699.84,192.83 708.90,133.30 717.96,313.54 727.02,154.42 736.07,120.97 745.13,158.03 754.19,311.13 763.24,114.39 772.30,183.80 781.36,176.80 790.42,113.33 799.47,198.16 808.53,157.13 817.59,157.50 826.64,168.60 835.70,165.82 844.76,192.48" fill="none" stroke="#6f4cc3" stroke-width="2.5" stroke-linejoin="round" stroke-linecap="round" /><polyline points="129.24,214.85 138.30,187.98 147.36,168.53 156.41,148.13 165.47,160.50 174.53,168.86 183.58,174.67 192.64,177.59 201.70,189.86 210.76,189.43 219.81,192.10 228.87,200.23 237.93,201.14 246.98,200.75 256.04,207.58 265.10,210.07 274.16,214.60 283.21,208.87 292.27,205.70 301.33,202.84 310.38,200.10 319.44,201.32 328.50,202.70 337.56,207.19 346.61,201.79 355.67,198.16 364.73,197.10 373.79,195.38 382.84,188.28 391.90,194.94 400.96,191.71 410.01,192.82 419.07,185.65 428.13,180.50 437.19,181.03 446.24,184.62 455.30,186.41 464.36,196.51 473.41,194.59 482.47,192.97 491.53,191.17 500.59,188.24 509.64,196.41 518.70,203.94 527.76,214.82 536.81,212.65 545.87,210.86 554.93,218.09 563.99,226.10 573.04,214.20 582.10,222.52 591.16,210.78 600.21,212.96 609.27,213.90 618.33,204.12 627.39,196.66 636.44,184.69 645.50,173.65 654.56,173.83 663.62,184.27 672.67,193.98 681.73,195.08 690.79,195.13 699.84,188.41 708.90,179.09 717.96,190.04 727.02,190.13 736.07,180.77 745.13,173.37 754.19,184.88 763.24,174.57 772.30,179.91 781.36,183.14 790.42,183.23 799.47,187.21 808.53,186.58 817.59,190.28 826.64,194.08 835.70,196.67 844.76,190.05" fill="none" stroke="#209a72" stroke-width="2.5" stroke-linejoin="round" stroke-linecap="round" />
  <line x1="738" y1="68" x2="774" y2="68" stroke="#6f4cc3" stroke-width="3" /><text x="782" y="72" font-size="13" fill="#263241">episode loss</text><line x1="738" y1="90" x2="774" y2="90" stroke="#209a72" stroke-width="3" /><text x="782" y="94" font-size="13" fill="#263241">20 episode average</text>
</svg>
