<svg xmlns="http://www.w3.org/2000/svg" width="960" height="420" viewBox="0 0 960 420">
  <rect width="100%" height="100%" fill="#ffffff" />
  <text x="72" y="28" font-size="22" font-weight="700" fill="#17202a">Training Reward</text>
  <line x1="72" y1="348.00" x2="902" y2="348.00" stroke="#e7eaf0" stroke-width="1" /><text x="60" y="352.00" text-anchor="end" font-size="12" fill="#526071">-40.08</text><line x1="72" y1="288.00" x2="902" y2="288.00" stroke="#e7eaf0" stroke-width="1" /><text x="60" y="292.00" text-anchor="end" font-size="12" fill="#526071">-28.83</text><line x1="72" y1="228.00" x2="902" y2="228.00" stroke="#e7eaf0" stroke-width="1" /><text x="60" y="232.00" text-anchor="end" font-size="12" fill="#526071">-17.58</text><line x1="72" y1="168.00" x2="902" y2="168.00" stroke="#e7eaf0" stroke-width="1" /><text x="60" y="172.00" text-anchor="end" font-size="12" fill="#526071">-6.32</text><line x1="72" y1="108.00" x2="902" y2="108.00" stroke="#e7eaf0" stroke-width="1" /><text x="60" y="112.00" text-anchor="end" font-size="12" fill="#526071">4.93</text><line x1="72" y1="48.00" x2="902" y2="48.00" stroke="#e7eaf0" stroke-width="1" /><text x="60" y="52.00" text-anchor="end" font-size="12" fill="#526071">16.18</text>
  <line x1="72" y1="48" x2="72" y2="348" stroke="#2f3a45" stroke-width="1.4" />
  <line x1="72" y1="348" x2="902" y2="348" stroke="#2f3a45" stroke-width="1.4" />
  <text x="487.0" y="392" text-anchor="middle" font-size="14" fill="#344052">Episode</text>
  <text x="18" y="198.0" text-anchor="middle" font-size="14" fill="#344052" transform="rotate(-90 18 198.0)">Total reward</text>
  <text x="72" y="370" text-anchor="middle" font-size="12" fill="#526071">-5</text>
  <text x="902" y="370" text-anchor="middle" font-size="12" fill="#526071">86</text>
  <polyline points="129.24,74.82 138.30,74.02 147.36,74.56 156.41,243.06 165.47,215.33 174.53,277.99 183.58,235.59 192.64,191.33 201.70,77.49 210.76,243.59 219.81,251.06 228.87,77.49 237.93,245.99 246.98,251.06 256.04,82.55 265.10,76.69 274.16,78.02 283.21,203.87 292.27,214.00 301.33,299.85 310.38,266.25 319.44,327.31 328.50,202.53 337.56,195.60 346.61,203.60 355.67,213.46 364.73,299.32 373.79,194.53 382.84,235.33 391.90,81.22 400.96,202.53 410.01,74.56 419.07,189.73 428.13,179.60 437.19,68.69 446.24,75.09 455.30,91.89 464.36,79.35 473.41,214.80 482.47,236.39 491.53,224.13 500.59,180.94 509.64,71.89 518.70,76.42 527.76,103.08 536.81,240.39 545.87,220.66 554.93,75.89 563.99,76.69 573.04,166.27 582.10,71.89 591.16,249.99 600.21,234.79 609.27,196.67 618.33,178.80 627.39,242.53 636.44,199.60 645.50,272.65 654.56,192.93 663.62,71.89 672.67,77.49 681.73,239.06 690.79,71.09 699.84,244.92 708.90,203.60 717.96,82.29 727.02,242.26 736.07,187.34 745.13,238.26 754.19,82.55 763.24,204.93 772.30,207.60 781.36,241.19 790.42,197.47 799.47,225.46 808.53,217.20 817.59,206.80 826.64,203.60 835.70,270.52 844.76,248.66" fill="none" stroke="#2f6fed" stroke-width="2.5" stroke-linejoin="round" stroke-linecap="round" /><polyline points="129.24,74.82 138.30,74.42 147.36,74.47 156.41,116.61 165.47,136.36 174.53,159.96 183.58,170.77 192.64,173.34 201.70,162.69 210.76,170.78 219.81,178.08 228.87,169.69 237.93,175.56 246.98,180.96 256.04,174.40 265.10,168.29 274.16,162.98 283.21,165.25 292.27,167.82 301.33,174.42 310.38,183.99 319.44,196.65 328.50,203.05 337.56,200.68 346.61,200.09 355.67,196.87 364.73,200.05 373.79,200.21 382.84,208.10 391.90,199.99 400.96,197.56 410.01,197.41 419.07,194.60 428.13,191.03 437.19,190.33 446.24,190.25 455.30,190.95 464.36,184.72 473.41,184.76 482.47,181.59 491.53,179.48 500.59,172.16 509.64,165.63 518.70,159.67 527.76,154.65 536.81,155.99 545.87,152.06 554.93,146.13 563.99,138.20 573.04,142.45 582.10,135.92 591.16,144.69 600.21,146.94 609.27,147.80 618.33,153.30 627.39,161.67 636.44,167.06 645.50,176.72 654.56,175.63 663.62,167.41 672.67,160.07 681.73,162.98 690.79,162.94 699.84,171.36 708.90,176.39 717.96,168.49 727.02,169.57 736.07,175.14 745.13,183.22 754.19,179.03 763.24,185.68 772.30,183.56 781.36,183.88 790.42,183.92 799.47,186.26 808.53,184.99 817.59,185.35 826.64,181.90 835.70,185.78 844.76,194.61" fill="none" stroke="#e05d2f" stroke-width="2.5" stroke-linejoin="round" stroke-linecap="round" />
  <line x1="738" y1="68" x2="774" y2="68" stroke="#2f6fed" stroke-width="3" /><text x="782" y="72" font-size="13" fill="#263241">episode reward</text><line x1="738" y1="90" x2="774" y2="90" stroke="#e05d2f" stroke-width="3" /><text x="782" y="94" font-size="13" fill="#263241">20 episode average</text>
</svg>
