<svg xmlns="http://www.w3.org/2000/svg" width="960" height="420" viewBox="0 0 960 420">
  <rect width="100%" height="100%" fill="#ffffff" />
  <text x="72" y="28" font-size="22" font-weight="700" fill="#17202a">Per-step Reward (all episodes)</text>
  <line x1="72" y1="348.00" x2="902" y2="348.00" stroke="#e7eaf0" stroke-width="1" /><text x="60" y="352.00" text-anchor="end" font-size="12" fill="#526071">-12.46</text><line x1="72" y1="288.00" x2="902" y2="288.00" stroke="#e7eaf0" stroke-width="1" /><text x="60" y="292.00" text-anchor="end" font-size="12" fill="#526071">-7.64</text><line x1="72" y1="228.00" x2="902" y2="228.00" stroke="#e7eaf0" stroke-width="1" /><text x="60" y="232.00" text-anchor="end" font-size="12" fill="#526071">-2.81</text><line x1="72" y1="168.00" x2="902" y2="168.00" stroke="#e7eaf0" stroke-width="1" /><text x="60" y="172.00" text-anchor="end" font-size="12" fill="#526071">2.01</text><line x1="72" y1="108.00" x2="902" y2="108.00" stroke="#e7eaf0" stroke-width="1" /><text x="60" y="112.00" text-anchor="end" font-size="12" fill="#526071">6.84</text><line x1="72" y1="48.00" x2="902" y2="48.00" stroke="#e7eaf0" stroke-width="1" /><text x="60" y="52.00" text-anchor="end" font-size="12" fill="#526071">11.66</text>
  <line x1="72" y1="48" x2="72" y2="348" stroke="#2f3a45" stroke-width="1.4" />
  <line x1="72" y1="348" x2="902" y2="348" stroke="#2f3a45" stroke-width="1.4" />
  <text x="487.0" y="392" text-anchor="middle" font-size="14" fill="#344052">Step index</text>
  <text x="18" y="198.0" text-anchor="middle" font-size="14" fill="#344052" transform="rotate(-90 18 198.0)">Reward</text>
  <text x="72" y="370" text-anchor="middle" font-size="12" fill="#526071">-277</text>
  <text x="902" y="370" text-anchor="middle" font-size="12" fill="#526071">3754</text>
  <polyline points="129.24,193.03 129.45,193.03 129.65,193.03 129.86,192.40 130.06,192.40 130.27,192.40 130.48,193.03 130.68,193.65 130.89,193.03 131.09,194.89 131.30,194.89 131.51,196.13 131.71,197.38 131.92,181.21 132.12,197.38 132.33,197.38 132.54,196.13 132.74,185.57 132.95,189.30 133.15,186.81 133.36,194.27 133.57,193.03 133.77,190.54 133.98,193.03 134.18,193.03 134.39,193.03 134.59,191.16 134.80,191.16 135.01,191.16 135.21,68.69 135.42,193.03 135.62,193.03 135.83,193.03 136.04,192.40 136.24,192.40 136.45,192.40 136.65,193.03 136.86,193.65 137.07,193.03 137.27,189.92 137.48,189.92 137.68,181.84 137.89,195.51 138.10,195.51 138.30,195.51 138.51,195.51 138.71,194.27 138.92,193.03 139.12,193.03 139.33,191.16 139.54,194.27 139.74,193.03 139.95,190.54 140.15,193.03 140.36,193.03 140.57,193.03 140.77,191.16 140.98,191.16 141.18,191.16 141.39,68.69 141.60,193.03 141.80,193.03 142.01,193.03 142.21,192.40 142.42,192.40 142.63,192.40 142.83,193.03 143.04,192.40 143.24,193.03 143.45,189.92 143.65,189.92 143.86,183.70 144.07,197.38 144.27,197.38 144.48,197.38 144.68,197.38 144.89,181.21 145.10,194.89 145.30,194.89 145.51,193.03 145.71,196.13 145.92,194.89 146.13,192.40 146.33,189.92 146.54,189.92 146.74,188.05 146.95,191.16 147.16,191.16 147.36,191.16 147.57,195.51 147.77,195.51 147.98,195.51 148.18,195.51 148.39,194.27 148.60,191.78 148.80,191.78 149.01,190.54 149.21,68.69 149.42,193.03 149.63,193.03 149.83,193.03 150.04,192.40 150.24,192.40 150.45,192.40 150.66,193.03 150.86,193.65 151.07,193.03 151.27,194.89 151.48,194.89 151.68,196.13 151.89,181.21 152.10,197.38 152.30,197.38 152.51,197.38 152.71,201.73 152.92,193.03 153.13,196.76 153.33,194.27 153.54,198.00 153.74,200.49 153.95,198.00 154.16,200.49 154.36,200.49 154.57,200.49 154.77,198.62 154.98,198.62 155.19,193.03 155.39,199.87 155.60,199.87 155.80,199.87 156.01,199.87 156.21,196.13 156.42,197.38 156.63,194.89 156.83,193.03 157.04,193.03 157.24,193.65 157.45,192.40 157.66,196.13 157.86,193.65 158.07,196.13 158.27,196.13 158.48,194.89 158.69,194.89 158.89,192.40 159.10,196.13 159.30,193.65 159.51,321.72 159.72,194.89 159.92,193.03 160.13,194.89 160.33,193.03 160.54,192.40 160.74,197.38 160.95,199.87 161.16,192.40 161.36,192.40 161.57,196.13 161.77,189.92 161.98,196.13 162.19,196.13 162.39,192.40 162.60,193.03 162.80,192.40 163.01,193.03 163.22,196.13 163.42,193.03 163.63,196.13 163.83,197.38 164.04,196.13 164.25,196.13 164.45,193.03 164.66,196.13 164.86,199.87 165.07,181.21 165.27,193.65 165.48,193.03 165.69,193.65 165.89,196.13 166.10,193.03 166.30,193.65 166.51,192.40 166.72,193.65 166.92,192.40 167.13,193.65 167.33,193.03 167.54,194.89 167.75,196.13 167.95,193.03 168.16,192.40 168.36,193.65 168.57,192.40 168.77,193.65 168.98,196.13 169.19,199.87 169.39,196.13 169.60,199.87 169.80,319.23 170.01,193.03 170.22,193.03 170.42,193.03 170.63,192.40 170.83,192.40 171.04,192.40 171.25,193.03 171.45,193.65 171.66,193.03 171.86,189.92 172.07,189.92 172.28,189.30 172.48,202.97 172.69,202.97 172.89,202.97 173.10,202.97 173.30,201.73 173.51,200.49 173.72,200.49 173.92,198.62 174.13,198.00 174.33,195.51 174.54,198.00 174.75,200.49 174.95,200.49 175.16,200.49 175.36,198.62 175.57,198.62 175.78,198.62 175.98,205.46 176.19,205.46 176.39,205.46 176.60,205.46 176.81,198.62 177.01,202.97 177.22,193.03 177.42,198.00 177.63,199.24 177.83,201.73 178.04,201.73 178.25,192.40 178.45,192.40 178.66,192.40 178.86,199.87 179.07,193.65 179.28,193.03 179.48,193.03 179.69,193.65 179.89,192.40 180.10,319.23 180.31,193.03 180.51,193.03 180.72,193.03 180.92,192.40 181.13,192.40 181.34,192.40 181.54,193.03 181.75,193.65 181.95,193.03 182.16,189.92 182.36,189.92 182.57,183.70 182.78,197.38 182.98,197.38 183.19,197.38 183.39,197.38 183.60,196.13 183.81,200.49 184.01,200.49 184.22,198.62 184.42,198.00 184.63,200.49 184.84,198.00 185.04,200.49 185.25,200.49 185.45,200.49 185.66,193.03 185.87,193.03 186.07,193.03 186.28,199.87 186.48,199.87 186.69,199.87 186.89,199.87 187.10,192.40 187.31,193.03 187.51,193.65 187.72,197.38 187.92,192.40 188.13,193.65 188.34,196.13 188.54,192.40 188.75,192.40 188.95,196.13 189.16,193.65 189.37,196.13 189.57,199.87 189.78,199.87 189.98,189.92 190.19,193.03 190.39,314.25 190.60,193.03 190.81,193.03 191.01,193.03 191.22,192.40 191.42,192.40 191.63,192.40 191.84,193.03 192.04,192.40 192.25,193.03 192.45,194.89 192.66,194.89 192.87,196.13 193.07,197.38 193.28,197.38 193.48,197.38 193.69,197.38 193.90,181.21 194.10,194.89 194.31,194.89 194.51,193.03 194.72,196.13 194.92,194.89 195.13,192.40 195.34,189.92 195.54,189.92 195.75,188.05 195.95,191.16 196.16,191.16 196.37,191.16 196.57,195.51 196.78,195.51 196.98,195.51 197.19,195.51 197.40,194.27 197.60,191.78 197.81,193.03 198.01,194.27 198.22,190.54 198.43,194.27 198.63,190.54 198.84,191.16 199.04,191.16 199.25,194.27 199.45,191.78 199.66,194.27 199.87,196.13 200.07,193.03 200.28,193.03 200.48,192.40 200.69,317.36 200.90,193.03 201.10,193.03 201.31,193.03 201.51,192.40 201.72,192.40 201.93,192.40 202.13,193.03 202.34,193.65 202.54,193.03 202.75,194.89 202.96,194.89 203.16,196.13 203.37,179.35 203.57,195.51 203.78,195.51 203.98,195.51 204.19,194.27 204.40,193.03 204.60,193.03 204.81,191.16 205.01,194.27 205.22,193.03 205.43,190.54 205.63,193.03 205.84,193.03 206.04,193.03 206.25,191.16 206.46,191.16 206.66,191.16 206.87,68.69 207.07,193.65 207.28,193.03 207.48,194.89 207.69,197.38 207.90,193.03 208.10,193.65 208.31,194.89 208.51,188.67 208.72,192.40 208.93,187.43 209.13,192.40 209.34,193.03 209.54,192.40 209.75,193.03 209.96,194.89 210.16,196.13 210.37,196.13 210.57,193.65 210.78,193.03 210.99,199.87 211.19,197.38 211.40,193.65 211.60,196.13 211.81,193.65 212.01,193.03 212.22,193.65 212.43,193.03 212.63,196.13 212.84,180.59 213.04,191.16 213.25,193.03 213.46,197.38 213.66,193.65 213.87,200.49 214.07,200.49 214.28,199.24 214.49,198.62 214.69,202.97 214.90,201.73 215.10,202.97 215.31,198.62 215.52,202.97 215.72,201.73 215.93,198.62 216.13,198.62 216.34,201.73 216.54,198.62 216.75,202.97 216.96,316.74 217.16,193.03 217.37,193.03 217.57,193.03 217.78,192.40 217.99,192.40 218.19,192.40 218.40,193.03 218.60,193.65 218.81,193.03 219.02,189.92 219.22,189.92 219.43,183.70 219.63,197.38 219.84,197.38 220.05,202.97 220.25,202.97 220.46,201.73 220.66,193.03 220.87,196.76 221.07,194.27 221.28,198.00 221.49,195.51 221.69,198.00 221.90,200.49 222.10,200.49 222.31,200.49 222.52,198.62 222.72,198.62 222.93,198.62 223.13,205.46 223.34,205.46 223.55,205.46 223.75,205.46 223.96,192.40 224.16,196.13 224.37,193.03 224.58,192.40 224.78,193.03 224.99,193.65 225.19,193.03 225.40,193.65 225.60,196.13 225.81,193.03 226.02,197.38 226.22,196.13 226.43,196.13 226.63,193.03 226.84,192.40 227.05,196.13 227.25,319.23 227.46,193.03 227.66,193.03 227.87,193.03 228.08,192.40 228.28,192.40 228.49,192.40 228.69,193.03 228.90,193.65 229.10,193.03 229.31,194.89 229.52,194.89 229.72,196.13 229.93,179.35 230.13,195.51 230.34,195.51 230.55,195.51 230.75,194.27 230.96,193.03 231.16,193.03 231.37,191.16 231.58,194.27 231.78,193.03 231.99,190.54 232.19,193.03 232.40,193.03 232.61,193.03 232.81,191.16 233.02,191.16 233.22,191.16 233.43,68.69 233.63,193.03 233.84,199.87 234.05,194.89 234.25,196.13 234.46,194.89 234.66,194.89 234.87,192.40 235.08,193.03 235.28,193.03 235.49,192.40 235.69,197.38 235.90,192.40 236.11,193.03 236.31,192.40 236.52,193.03 236.72,196.13 236.93,198.62 237.14,200.49 237.34,200.49 237.55,201.73 237.75,199.24 237.96,198.00 238.16,186.81 238.37,201.73 238.58,198.00 238.78,188.05 238.99,199.24 239.19,198.62 239.40,198.00 239.61,198.62 239.81,198.62 240.02,200.49 240.22,199.24 240.43,198.00 240.64,202.97 240.84,200.49 241.05,195.51 241.25,196.13 241.46,192.40 241.67,196.13 241.87,192.40 242.08,193.03 242.28,196.13 242.49,192.40 242.69,181.21 242.90,193.65 243.11,196.13 243.31,196.13 243.52,197.38 243.72,316.74 243.93,193.03 244.14,193.03 244.34,193.03 244.55,192.40 244.75,192.40 244.96,192.40 245.17,193.03 245.37,193.65 245.58,193.03 245.78,189.92 245.99,189.92 246.19,183.70 246.40,197.38 246.61,181.21 246.81,202.97 247.02,202.97 247.22,201.73 247.43,200.49 247.64,200.49 247.84,198.62 248.05,198.00 248.25,195.51 248.46,198.00 248.67,200.49 248.87,200.49 249.08,200.49 249.28,198.62 249.49,198.62 249.70,198.62 249.90,205.46 250.11,205.46 250.31,205.46 250.52,199.87 250.72,196.13 250.93,193.65 251.14,193.03 251.34,193.03 251.55,197.38 251.75,193.03 251.96,193.65 252.17,196.13 252.37,196.13 252.58,193.65 252.78,193.65 252.99,194.89 253.20,196.13 253.40,192.40 253.61,193.65 253.81,196.13 254.02,320.47 254.23,193.03 254.43,193.03 254.64,193.03 254.84,192.40 255.05,192.40 255.25,192.40 255.46,193.03 255.67,193.65 255.87,193.03 256.08,194.89 256.28,194.89 256.49,196.13 256.70,197.38 256.90,197.38 257.11,197.38 257.31,197.38 257.52,196.13 257.73,191.16 257.93,185.57 258.14,186.81 258.34,194.27 258.55,193.03 258.76,190.54 258.96,193.03 259.17,193.03 259.37,193.03 259.58,191.16 259.78,191.16 259.99,191.16 260.20,68.69 260.40,193.03 260.61,193.03 260.81,193.03 261.02,192.40 261.23,192.40 261.43,192.40 261.64,193.03 261.84,193.65 262.05,193.03 262.26,194.89 262.46,194.89 262.67,196.13 262.87,197.38 263.08,189.92 263.29,197.38 263.49,179.35 263.70,194.27 263.90,193.03 264.11,193.03 264.31,191.16 264.52,194.27 264.73,193.03 264.93,190.54 265.14,193.03 265.34,193.03 265.55,193.03 265.76,191.16 265.96,191.16 266.17,191.16 266.37,68.69 266.58,193.03 266.79,193.03 266.99,193.03 267.20,192.40 267.40,192.40 267.61,192.40 267.81,193.03 268.02,193.65 268.23,193.03 268.43,194.89 268.64,194.89 268.84,196.13 269.05,189.92 269.26,197.38 269.46,181.21 269.67,197.38 269.87,196.13 270.08,194.89 270.29,194.89 270.49,193.03 270.70,196.13 270.90,194.89 271.11,180.59 271.32,193.03 271.52,193.03 271.73,193.03 271.93,191.16 272.14,191.16 272.34,191.16 272.55,68.69 272.76,192.40 272.96,196.13 273.17,188.67 273.37,193.03 273.58,193.03 273.79,194.89 273.99,194.89 274.20,192.40 274.40,192.40 274.61,196.13 274.82,193.65 275.02,192.40 275.23,197.38 275.43,193.65 275.64,196.13 275.85,192.40 276.05,196.13 276.26,193.03 276.46,193.65 276.67,189.92 276.87,196.13 277.08,189.92 277.29,199.87 277.49,192.40 277.70,193.65 277.90,194.89 278.11,192.40 278.32,188.67 278.52,194.89 278.73,193.03 278.93,199.87 279.14,196.13 279.35,192.40 279.55,197.38 279.76,196.13 279.96,193.03 280.17,196.13 280.38,193.03 280.58,192.40 280.79,193.03 280.99,193.03 281.20,181.21 281.40,196.13 281.61,196.13 281.82,192.40 282.02,196.13 282.23,193.03 282.43,194.89 282.64,196.13 282.85,316.74 283.05,193.65 283.26,197.38 283.46,194.89 283.67,196.13 283.88,193.03 284.08,199.87 284.29,193.03 284.49,196.13 284.70,193.03 284.90,193.65 285.11,193.65 285.32,197.38 285.52,193.03 285.73,192.40 285.93,192.40 286.14,194.89 286.35,193.65 286.55,193.65 286.76,192.40 286.96,189.92 287.17,193.65 287.38,194.89 287.58,196.13 287.79,194.89 287.99,193.65 288.20,196.13 288.41,192.40 288.61,196.13 288.82,193.03 289.02,193.65 289.23,192.40 289.43,193.65 289.64,196.13 289.85,193.65 290.05,193.65 290.26,194.89 290.46,193.03 290.67,192.40 290.88,196.13 291.08,194.89 291.29,196.13 291.49,193.03 291.70,194.89 291.91,194.89 292.11,197.38 292.32,192.40 292.52,193.65 292.73,192.40 292.94,194.89 293.14,317.99 293.35,193.03 293.55,193.03 293.76,193.03 293.96,192.40 294.17,192.40 294.38,192.40 294.58,193.03 294.79,193.65 294.99,193.03 295.20,194.89 295.41,194.89 295.61,196.13 295.82,197.38 296.02,186.81 296.23,202.97 296.44,202.97 296.64,201.73 296.85,200.49 297.05,200.49 297.26,198.62 297.47,198.00 297.67,200.49 297.88,188.05 298.08,200.49 298.29,200.49 298.49,200.49 298.70,198.62 298.91,198.62 299.11,198.62 299.32,205.46 299.52,205.46 299.73,205.46 299.94,205.46 300.14,200.49 300.35,198.62 300.55,199.24 300.76,200.49 300.97,198.00 301.17,201.73 301.38,198.62 301.58,200.49 301.79,200.49 302.00,198.00 302.20,200.49 302.41,199.24 302.61,201.73 302.82,198.00 303.02,201.73 303.23,198.00 303.44,322.96 303.64,193.03 303.85,193.03 304.05,193.03 304.26,192.40 304.47,192.40 304.67,192.40 304.88,193.03 305.08,193.65 305.29,198.62 305.50,195.51 305.70,195.51 305.91,189.30 306.11,202.97 306.32,202.97 306.52,202.97 306.73,202.97 306.94,201.73 307.14,196.76 307.35,193.03 307.55,194.27 307.76,198.00 307.97,195.51 308.17,198.00 308.38,195.51 308.58,195.51 308.79,195.51 309.00,198.62 309.20,198.62 309.41,198.62 309.61,205.46 309.82,205.46 310.03,205.46 310.23,205.46 310.44,205.46 310.64,198.62 310.85,198.00 311.05,201.73 311.26,323.58 311.47,193.03 311.67,193.03 311.88,193.03 312.08,192.40 312.29,192.40 312.50,192.40 312.70,193.03 312.91,199.24 313.11,198.62 313.32,200.49 313.53,200.49 313.73,201.73 313.94,202.97 314.14,202.97 314.35,202.97 314.56,202.97 314.76,201.73 314.97,200.49 315.17,200.49 315.38,198.62 315.58,198.00 315.79,200.49 316.00,198.00 316.20,200.49 316.41,200.49 316.61,200.49 316.82,198.62 317.03,198.62 317.23,198.62 317.44,205.46 317.64,205.46 317.85,205.46 318.06,205.46 318.26,200.49 318.47,202.97 318.67,198.00 318.88,201.73 319.09,198.00 319.29,202.97 319.50,205.46 319.70,202.97 319.91,199.24 320.11,201.73 320.32,199.24 320.53,202.97 320.73,199.24 320.94,196.13 321.14,194.89 321.35,196.13 321.56,320.47 321.76,192.40 321.97,193.03 322.17,196.13 322.38,187.43 322.59,193.03 322.79,192.40 323.00,192.40 323.20,196.13 323.41,183.70 323.61,197.38 323.82,194.89 324.03,199.87 324.23,192.40 324.44,193.65 324.64,192.40 324.85,192.40 325.06,196.13 325.26,193.03 325.47,193.03 325.67,197.38 325.88,194.89 326.09,193.65 326.29,189.92 326.50,193.03 326.70,192.40 326.91,189.92 327.12,192.40 327.32,196.13 327.53,196.13 327.73,189.92 327.94,193.03 328.14,197.38 328.35,199.87 328.56,197.38 328.76,197.38 328.97,196.13 329.17,193.03 329.38,197.38 329.59,192.40 329.79,193.03 330.00,189.92 330.20,197.38 330.41,194.89 330.62,199.87 330.82,196.13 331.03,181.21 331.23,192.40 331.44,189.92 331.65,197.38 331.85,316.74 332.06,193.03 332.26,193.03 332.47,193.03 332.67,192.40 332.88,192.40 333.09,192.40 333.29,193.03 333.50,192.40 333.70,193.03 333.91,189.92 334.12,189.92 334.32,183.70 334.53,197.38 334.73,197.38 334.94,197.38 335.15,197.38 335.35,181.21 335.56,194.89 335.76,194.89 335.97,193.03 336.18,196.13 336.38,189.92 336.59,182.46 336.79,189.92 337.00,189.92 337.20,189.92 337.41,193.03 337.62,193.03 337.82,193.03 338.03,197.38 338.23,197.38 338.44,197.38 338.65,197.38 338.85,196.13 339.06,196.13 339.26,193.03 339.47,196.13 339.68,193.65 339.88,196.13 340.09,193.65 340.29,196.13 340.50,193.65 340.71,192.40 340.91,192.40 341.12,196.13 341.32,194.89 341.53,196.13 341.73,196.13 341.94,193.65 342.15,319.23 342.35,193.03 342.56,196.13 342.76,196.13 342.97,196.13 343.18,193.65 343.38,193.65 343.59,192.40 343.79,192.40 344.00,192.40 344.21,192.40 344.41,193.03 344.62,193.65 344.82,196.13 345.03,193.65 345.23,193.65 345.44,196.13 345.65,193.65 345.85,196.13 346.06,197.38 346.26,193.03 346.47,199.87 346.68,194.89 346.88,194.89 347.09,193.65 347.29,193.65 347.50,196.13 347.71,192.40 347.91,191.16 348.12,192.40 348.32,193.65 348.53,193.03 348.74,192.40 348.94,197.38 349.15,188.67 349.35,318.61 349.56,197.38 349.76,193.65 349.97,192.40 350.18,193.65 350.38,193.65 350.59,192.40 350.79,196.13 351.00,193.65 351.21,194.89 351.41,193.03 351.62,194.89 351.82,194.89 352.03,196.13 352.24,193.65 352.44,196.13 352.65,194.89 352.85,193.03 353.06,192.40 353.27,193.65 353.47,192.40 353.68,193.65 353.88,192.40 354.09,193.65 354.29,196.13 354.50,193.03 354.71,194.89 354.91,196.13 355.12,192.40 355.32,193.65 355.53,193.03 355.74,196.13 355.94,193.65 356.15,193.03 356.35,193.65 356.56,197.38 356.77,192.40 356.97,193.03 357.18,194.89 357.38,196.13 357.59,192.40 357.80,193.03 358.00,192.40 358.21,196.13 358.41,194.89 358.62,193.65 358.82,197.38 359.03,192.40 359.24,196.13 359.44,197.38 359.65,317.99 359.85,193.03 360.06,193.03 360.27,193.65 360.47,192.40 360.68,194.89 360.88,194.89 361.09,196.13 361.30,196.13 361.50,192.40 361.71,199.24 361.91,202.97 362.12,200.49 362.32,198.62 362.53,200.49 362.74,193.03 362.94,188.05 363.15,200.49 363.35,201.73 363.56,199.24 363.77,202.97 363.97,201.73 364.18,201.73 364.38,199.24 364.59,198.00 364.80,200.49 365.00,198.62 365.21,200.49 365.41,198.62 365.62,198.62 365.83,198.62 366.03,201.73 366.24,201.73 366.44,198.62 366.65,198.62 366.85,198.00 367.06,186.81 367.27,202.97 367.47,198.00 367.68,198.62 367.88,199.24 368.09,198.00 368.30,198.62 368.50,200.49 368.71,199.24 368.91,201.73 369.12,200.49 369.33,198.62 369.53,202.97 369.74,198.00 369.94,323.58 370.15,193.03 370.36,189.92 370.56,196.13 370.77,196.13 370.97,189.92 371.18,189.92 371.38,194.89 371.59,192.40 371.80,192.40 372.00,187.43 372.21,197.38 372.41,193.03 372.62,192.40 372.83,193.03 373.03,194.89 373.24,192.40 373.44,192.40 373.65,196.13 373.86,197.38 374.06,193.03 374.27,189.92 374.47,189.92 374.68,192.40 374.89,196.13 375.09,196.13 375.30,193.03 375.50,192.40 375.71,196.13 375.91,193.03 376.12,196.13 376.33,193.03 376.53,196.13 376.74,192.40 376.94,193.03 377.15,196.13 377.36,192.40 377.56,193.03 377.77,181.21 377.97,196.13 378.18,196.13 378.39,193.03 378.59,193.03 378.80,192.40 379.00,189.92 379.21,199.87 379.42,196.13 379.62,192.40 379.83,192.40 380.03,193.03 380.24,320.47 380.44,193.03 380.65,196.13 380.86,196.13 381.06,196.13 381.27,192.40 381.47,192.40 381.68,192.40 381.89,194.89 382.09,192.40 382.30,193.65 382.50,193.03 382.71,192.40 382.92,196.13 383.12,194.89 383.33,189.92 383.53,194.89 383.74,193.03 383.94,183.70 384.15,193.03 384.36,193.65 384.56,193.03 384.77,193.65 384.97,199.87 385.18,193.03 385.39,194.89 385.59,194.89 385.80,194.89 386.00,196.13 386.21,196.13 386.42,192.40 386.62,196.13 386.83,196.13 387.03,196.13 387.24,194.89 387.45,194.89 387.65,193.65 387.86,196.13 388.06,193.03 388.27,193.03 388.47,193.03 388.68,201.73 388.89,205.46 389.09,201.73 389.30,202.97 389.50,201.73 389.71,201.73 389.92,201.73 390.12,198.62 390.33,188.05 390.53,322.96 390.74,193.03 390.95,193.03 391.15,193.03 391.36,192.40 391.56,192.40 391.77,192.40 391.98,193.03 392.18,193.65 392.39,193.03 392.59,194.89 392.80,194.89 393.00,196.13 393.21,181.21 393.42,197.38 393.62,197.38 393.83,197.38 394.03,196.13 394.24,194.89 394.45,194.89 394.65,193.03 394.86,196.13 395.06,194.89 395.27,180.59 395.48,193.03 395.68,193.03 395.89,193.03 396.09,191.16 396.30,191.16 396.51,191.16 396.71,68.69 396.92,196.13 397.12,199.87 397.33,192.40 397.53,192.40 397.74,193.03 397.95,193.03 398.15,189.92 398.36,192.40 398.56,194.89 398.77,197.38 398.98,194.89 399.18,194.89 399.39,193.03 399.59,192.40 399.80,194.89 400.01,194.89 400.21,181.21 400.42,196.13 400.62,193.03 400.83,193.03 401.03,196.13 401.24,189.92 401.45,196.13 401.65,194.89 401.86,193.03 402.06,196.13 402.27,192.40 402.48,193.65 402.68,196.13 402.89,196.13 403.09,193.65 403.30,192.40 403.51,193.03 403.71,192.40 403.92,193.03 404.12,194.89 404.33,193.65 404.54,193.65 404.74,194.89 404.95,193.65 405.15,193.65 405.36,189.92 405.56,196.13 405.77,196.13 405.98,181.21 406.18,196.13 406.39,196.13 406.59,197.38 406.80,192.40 407.01,321.72 407.21,193.03 407.42,193.03 407.62,193.03 407.83,192.40 408.04,192.40 408.24,192.40 408.45,193.03 408.65,193.65 408.86,193.03 409.07,194.89 409.27,194.89 409.48,196.13 409.68,181.21 409.89,197.38 410.09,197.38 410.30,197.38 410.51,196.13 410.71,187.43 410.92,191.16 411.12,188.67 411.33,196.13 411.54,194.89 411.74,180.59 411.95,193.03 412.15,193.03 412.36,193.03 412.57,191.16 412.77,191.16 412.98,191.16 413.18,68.69 413.39,193.03 413.60,194.89 413.80,196.13 414.01,197.38 414.21,199.87 414.42,193.65 414.62,194.89 414.83,189.92 415.04,199.87 415.24,192.40 415.45,192.40 415.65,189.92 415.86,193.03 416.07,196.13 416.27,194.89 416.48,193.65 416.68,193.03 416.89,193.65 417.10,192.40 417.30,189.92 417.51,196.13 417.71,192.40 417.92,199.87 418.13,189.92 418.33,193.03 418.54,196.13 418.74,192.40 418.95,193.03 419.15,197.38 419.36,189.92 419.57,196.13 419.77,189.92 419.98,199.87 420.18,181.84 420.39,190.54 420.60,190.54 420.80,190.54 421.01,188.05 421.21,190.54 421.42,191.16 421.63,193.03 421.83,188.05 422.04,191.78 422.24,195.51 422.45,194.27 422.65,191.78 422.86,195.51 423.07,191.16 423.27,194.27 423.48,314.88 423.68,193.03 423.89,193.03 424.10,193.03 424.30,192.40 424.51,192.40 424.71,192.40 424.92,193.03 425.13,192.40 425.33,193.03 425.54,194.89 425.74,194.89 425.95,196.13 426.16,197.38 426.36,197.38 426.57,197.38 426.77,197.38 426.98,181.21 427.18,194.89 427.39,194.89 427.60,193.03 427.80,196.13 428.01,194.89 428.21,182.46 428.42,189.92 428.63,189.92 428.83,188.05 429.04,191.16 429.24,191.16 429.45,191.16 429.66,195.51 429.86,195.51 430.07,195.51 430.27,195.51 430.48,193.03 430.69,191.78 430.89,191.16 431.10,193.03 431.30,191.78 431.51,191.78 431.71,190.54 431.92,191.16 432.13,191.16 432.33,195.51 432.54,191.16 432.74,190.54 432.95,194.27 433.16,191.16 433.36,191.78 433.57,191.16 433.77,314.88 433.98,193.03 434.19,193.03 434.39,193.03 434.60,192.40 434.80,192.40 435.01,192.40 435.22,193.03 435.42,193.65 435.63,193.03 435.83,189.92 436.04,189.92 436.24,183.70 436.45,197.38 436.66,179.35 436.86,195.51 437.07,195.51 437.27,194.27 437.48,193.03 437.69,193.03 437.89,191.16 438.10,194.27 438.30,193.03 438.51,190.54 438.72,193.03 438.92,193.03 439.13,193.03 439.33,191.16 439.54,191.16 439.74,191.16 439.95,68.69 440.16,193.03 440.36,193.03 440.57,193.03 440.77,192.40 440.98,192.40 441.19,192.40 441.39,193.03 441.60,193.65 441.80,193.03 442.01,189.92 442.22,189.92 442.42,183.70 442.63,181.21 442.83,197.38 443.04,197.38 443.25,197.38 443.45,196.13 443.66,194.89 443.86,194.89 444.07,193.03 444.27,196.13 444.48,189.92 444.69,182.46 444.89,194.89 445.10,194.89 445.30,194.89 445.51,193.03 445.72,193.03 445.92,193.03 446.13,68.69 446.33,192.40 446.54,193.03 446.75,193.65 446.95,192.40 447.16,193.65 447.36,196.13 447.57,193.03 447.78,194.89 447.98,197.38 448.19,197.38 448.39,197.38 448.60,196.13 448.80,193.65 449.01,196.13 449.22,196.13 449.42,187.43 449.63,197.38 449.83,193.65 450.04,199.87 450.25,193.03 450.45,193.65 450.66,193.03 450.86,193.03 451.07,193.03 451.28,193.03 451.48,193.03 451.69,193.03 451.89,192.40 452.10,193.03 452.31,197.38 452.51,193.03 452.72,192.40 452.92,189.92 453.13,193.03 453.33,197.38 453.54,193.03 453.75,192.40 453.95,196.13 454.16,189.92 454.36,189.92 454.57,181.84 454.78,193.03 454.98,194.27 455.19,68.69 455.39,193.03 455.60,193.03 455.81,193.03 456.01,192.40 456.22,192.40 456.42,192.40 456.63,193.03 456.84,192.40 457.04,193.03 457.25,194.89 457.45,194.89 457.66,196.13 457.86,197.38 458.07,197.38 458.28,197.38 458.48,197.38 458.69,181.21 458.89,194.89 459.10,194.89 459.31,193.03 459.51,196.13 459.72,194.89 459.92,182.46 460.13,189.92 460.34,189.92 460.54,188.05 460.75,191.16 460.95,191.16 461.16,191.16 461.36,195.51 461.57,195.51 461.78,68.69 461.98,193.65 462.19,196.13 462.39,192.40 462.60,196.13 462.81,196.13 463.01,191.16 463.22,193.03 463.42,193.03 463.63,193.03 463.84,193.03 464.04,196.13 464.25,194.89 464.45,188.67 464.66,193.03 464.87,196.13 465.07,196.13 465.28,189.92 465.48,194.89 465.69,193.03 465.89,192.40 466.10,194.89 466.31,192.40 466.51,193.03 466.72,194.89 466.92,193.65 467.13,196.13 467.34,196.13 467.54,197.38 467.75,193.03 467.95,196.13 468.16,193.03 468.37,192.40 468.57,193.65 468.78,196.13 468.98,197.38 469.19,193.65 469.40,199.87 469.60,196.13 469.81,197.38 470.01,197.38 470.22,193.65 470.42,192.40 470.63,196.13 470.84,192.40 471.04,193.03 471.25,193.03 471.45,196.13 471.66,193.03 471.87,193.65 472.07,317.99 472.28,193.65 472.48,193.03 472.69,194.89 472.90,196.13 473.10,193.65 473.31,193.03 473.51,197.38 473.72,199.87 473.93,193.65 474.13,196.13 474.34,193.03 474.54,197.38 474.75,188.67 474.95,193.03 475.16,193.03 475.37,194.89 475.57,193.65 475.78,193.03 475.98,199.87 476.19,193.03 476.40,192.40 476.60,192.40 476.81,197.38 477.01,196.13 477.22,192.40 477.43,188.67 477.63,198.62 477.84,202.97 478.04,200.49 478.25,198.62 478.45,198.62 478.66,195.51 478.87,202.97 479.07,199.24 479.28,196.13 479.48,192.40 479.69,196.13 479.90,196.13 480.10,197.38 480.31,193.03 480.51,197.38 480.72,196.13 480.93,193.65 481.13,196.13 481.34,193.03 481.54,193.03 481.75,192.40 481.96,194.89 482.16,192.40 482.37,321.72 482.57,193.03 482.78,194.89 482.98,196.13 483.19,194.89 483.40,196.13 483.60,194.89 483.81,194.89 484.01,187.43 484.22,196.13 484.43,194.89 484.63,191.16 484.84,193.03 485.04,193.03 485.25,192.40 485.46,196.13 485.66,193.65 485.87,193.65 486.07,194.89 486.28,192.40 486.49,194.89 486.69,193.65 486.90,196.13 487.10,192.40 487.31,196.13 487.51,193.03 487.72,192.40 487.93,193.65 488.13,196.13 488.34,196.13 488.54,192.40 488.75,193.03 488.96,194.89 489.16,192.40 489.37,194.89 489.57,196.13 489.78,192.40 489.99,196.13 490.19,192.40 490.40,196.13 490.60,192.40 490.81,193.03 491.02,192.40 491.22,198.00 491.43,194.27 491.63,201.73 491.84,198.62 492.04,198.62 492.25,201.73 492.46,198.62 492.66,322.34 492.87,193.03 493.07,193.03 493.28,193.03 493.49,192.40 493.69,192.40 493.90,192.40 494.10,193.03 494.31,192.40 494.52,193.03 494.72,189.92 494.93,189.92 495.13,183.70 495.34,197.38 495.55,181.21 495.75,197.38 495.96,197.38 496.16,181.21 496.37,194.89 496.57,194.89 496.78,193.03 496.99,196.13 497.19,189.92 497.40,192.40 497.60,189.92 497.81,189.92 498.02,189.92 498.22,191.16 498.43,191.16 498.63,191.16 498.84,195.51 499.05,195.51 499.25,195.51 499.46,195.51 499.66,191.16 499.87,194.27 500.07,190.54 500.28,196.13 500.49,193.65 500.69,196.13 500.90,194.89 501.10,196.13 501.31,192.40 501.52,192.40 501.72,193.65 501.93,196.13 502.13,196.13 502.34,192.40 502.55,193.03 502.75,193.65 502.96,317.99 503.16,193.03 503.37,193.03 503.58,193.03 503.78,192.40 503.99,192.40 504.19,192.40 504.40,193.03 504.60,193.65 504.81,193.03 505.02,189.92 505.22,189.92 505.43,181.84 505.63,195.51 505.84,195.51 506.05,195.51 506.25,195.51 506.46,194.27 506.66,193.03 506.87,193.03 507.08,191.16 507.28,194.27 507.49,188.05 507.69,190.54 507.90,193.03 508.11,193.03 508.31,193.03 508.52,191.16 508.72,191.16 508.93,191.16 509.13,68.69 509.34,193.03 509.55,193.03 509.75,193.03 509.96,192.40 510.16,192.40 510.37,192.40 510.58,193.03 510.78,193.65 510.99,193.03 511.19,189.92 511.40,189.92 511.61,183.70 511.81,197.38 512.02,197.38 512.22,197.38 512.43,197.38 512.64,196.13 512.84,194.89 513.05,194.89 513.25,193.03 513.46,196.13 513.66,189.92 513.87,180.59 514.08,193.03 514.28,193.03 514.49,193.03 514.69,191.16 514.90,191.16 515.11,191.16 515.31,68.69 515.52,199.87 515.72,193.03 515.93,194.89 516.14,196.13 516.34,194.89 516.55,193.03 516.75,194.89 516.96,192.40 517.16,193.03 517.37,194.89 517.58,193.03 517.78,196.13 517.99,193.03 518.19,197.38 518.40,193.03 518.61,196.13 518.81,192.40 519.02,192.40 519.22,193.65 519.43,194.89 519.64,196.13 519.84,192.40 520.05,192.40 520.25,196.13 520.46,193.65 520.67,199.87 520.87,192.40 521.08,192.40 521.28,197.38 521.49,196.13 521.69,193.03 521.90,194.89 522.11,182.46 522.31,196.13 522.52,193.65 522.72,192.40 522.93,194.89 523.14,194.89 523.34,194.89 523.55,193.03 523.75,193.65 523.96,192.40 524.17,193.03 524.37,197.38 524.58,68.69 524.78,193.03 524.99,193.03 525.20,193.03 525.40,192.40 525.61,192.40 525.81,192.40 526.02,193.03 526.22,193.65 526.43,193.03 526.64,194.89 526.84,194.89 527.05,196.13 527.25,181.21 527.46,197.38 527.67,197.38 527.87,197.38 528.08,201.73 528.28,200.49 528.49,200.49 528.70,198.62 528.90,198.00 529.11,200.49 529.31,198.00 529.52,200.49 529.73,200.49 529.93,200.49 530.14,198.62 530.34,193.03 530.55,193.03 530.75,199.87 530.96,199.87 531.17,199.87 531.37,199.87 531.58,193.03 531.78,193.03 531.99,193.65 532.20,192.40 532.40,192.40 532.61,193.65 532.81,197.38 533.02,192.40 533.23,194.89 533.43,197.38 533.64,193.03 533.84,196.13 534.05,193.03 534.26,193.65 534.46,192.40 534.67,194.89 534.87,316.74 535.08,196.13 535.28,194.89 535.49,196.13 535.70,193.65 535.90,193.03 536.11,193.65 536.31,193.65 536.52,193.03 536.73,196.13 536.93,193.65 537.14,193.03 537.34,193.03 537.55,194.89 537.76,193.65 537.96,193.65 538.17,192.40 538.37,193.03 538.58,196.13 538.78,197.38 538.99,193.65 539.20,198.00 539.40,188.05 539.61,199.24 539.81,198.00 540.02,200.49 540.23,196.13 540.43,197.38 540.64,196.13 540.84,192.40 541.05,193.65 541.26,192.40 541.46,188.67 541.67,192.40 541.87,192.40 542.08,196.13 542.29,193.03 542.49,192.40 542.70,192.40 542.90,193.03 543.11,197.38 543.31,196.13 543.52,193.65 543.73,192.40 543.93,192.40 544.14,199.87 544.34,196.13 544.55,193.65 544.76,199.87 544.96,196.13 545.17,317.99 545.37,193.03 545.58,185.57 545.79,190.54 545.99,196.13 546.20,192.40 546.40,193.03 546.61,188.67 546.82,68.69 547.02,193.03 547.23,193.03 547.43,193.03 547.64,192.40 547.84,192.40 548.05,192.40 548.26,193.03 548.46,193.65 548.67,193.03 548.87,194.89 549.08,194.89 549.29,196.13 549.49,197.38 549.70,189.92 549.90,197.38 550.11,179.35 550.32,194.27 550.52,193.03 550.73,193.03 550.93,191.16 551.14,194.27 551.35,193.03 551.55,190.54 551.76,193.03 551.96,193.03 552.17,193.03 552.37,191.16 552.58,191.16 552.79,191.16 552.99,68.69 553.20,193.03 553.40,193.03 553.61,193.03 553.82,192.40 554.02,192.40 554.23,192.40 554.43,193.03 554.64,192.40 554.85,193.03 555.05,194.89 555.26,194.89 555.46,196.13 555.67,181.21 555.87,197.38 556.08,197.38 556.29,197.38 556.49,181.21 556.70,191.16 556.90,187.43 557.11,188.67 557.32,196.13 557.52,194.89 557.73,192.40 557.93,189.92 558.14,189.92 558.35,188.05 558.55,191.16 558.76,191.16 558.96,191.16 559.17,195.51 559.38,195.51 559.58,195.51 559.79,195.51 559.99,188.05 560.20,190.54 560.40,191.16 560.61,191.16 560.82,191.78 561.02,193.03 561.23,190.54 561.43,191.78 561.64,190.54 561.85,194.27 562.05,188.05 562.26,191.16 562.46,193.03 562.67,191.16 562.88,193.03 563.08,191.78 563.29,315.50 563.49,193.03 563.70,193.03 563.91,193.03 564.11,192.40 564.32,192.40 564.52,192.40 564.73,193.03 564.93,193.65 565.14,193.03 565.35,189.92 565.55,189.92 565.76,181.84 565.96,195.51 566.17,195.51 566.38,195.51 566.58,195.51 566.79,194.27 566.99,193.03 567.20,193.03 567.41,191.16 567.61,194.27 567.82,188.05 568.02,190.54 568.23,193.03 568.44,193.03 568.64,193.03 568.85,191.16 569.05,191.16 569.26,191.16 569.46,68.69 569.67,192.40 569.88,193.65 570.08,196.13 570.29,194.89 570.49,192.40 570.70,192.40 570.91,192.40 571.11,199.87 571.32,193.03 571.52,192.40 571.73,194.89 571.94,201.73 572.14,200.49 572.35,198.62 572.55,198.62 572.76,200.49 572.97,188.05 573.17,198.62 573.38,198.00 573.58,199.24 573.79,202.97 573.99,198.62 574.20,198.62 574.41,195.51 574.61,201.73 574.82,200.49 575.02,198.62 575.23,198.62 575.44,198.62 575.64,200.49 575.85,199.24 576.05,198.00 576.26,197.38 576.47,194.89 576.67,189.92 576.88,193.65 577.08,196.13 577.29,181.21 577.49,197.38 577.70,196.13 577.91,193.65 578.11,193.65 578.32,196.13 578.52,192.40 578.73,193.03 578.94,192.40 579.14,196.13 579.35,193.03 579.55,197.38 579.76,316.74 579.97,192.40 580.17,193.65 580.38,196.13 580.58,194.89 580.79,192.40 581.00,193.03 581.20,192.40 581.41,192.40 581.61,196.13 581.82,196.13 582.02,197.38 582.23,194.89 582.44,192.40 582.64,196.13 582.85,194.89 583.05,193.65 583.26,193.03 583.47,193.03 583.67,193.03 583.88,193.03 584.08,193.03 584.29,194.89 584.50,197.38 584.70,194.89 584.91,196.13 585.11,192.40 585.32,193.03 585.53,193.65 585.73,196.13 585.94,199.87 586.14,196.13 586.35,194.89 586.55,192.40 586.76,192.40 586.97,193.03 587.17,199.87 587.38,193.03 587.58,193.03 587.79,192.40 588.00,192.40 588.20,196.13 588.41,193.03 588.61,198.62 588.82,199.24 589.03,201.73 589.23,198.00 589.44,198.62 589.64,199.24 589.85,201.73 590.06,327.31 590.26,193.65 590.47,189.92 590.67,193.03 590.88,197.38 591.08,192.40 591.29,196.13 591.50,189.92 591.70,192.40 591.91,192.40 592.11,189.92 592.32,197.38 592.53,189.92 592.73,192.40 592.94,189.92 593.14,193.65 593.35,192.40 593.56,193.03 593.76,189.92 593.97,192.40 594.17,194.89 594.38,196.13 594.58,193.65 594.79,194.89 595.00,193.65 595.20,193.03 595.41,194.89 595.61,196.13 595.82,196.13 596.03,197.38 596.23,192.40 596.44,193.03 596.64,193.65 596.85,197.38 597.06,192.40 597.26,193.65 597.47,197.38 597.67,193.03 597.88,189.92 598.09,189.92 598.29,199.87 598.50,196.13 598.70,192.40 598.91,192.40 599.11,193.65 599.32,187.43 599.53,196.13 599.73,193.65 599.94,193.03 600.14,192.40 600.35,317.99 600.56,193.03 600.76,193.03 600.97,193.03 601.17,192.40 601.38,192.40 601.59,192.40 601.79,193.03 602.00,192.40 602.20,193.03 602.41,194.89 602.62,194.89 602.82,196.13 603.03,197.38 603.23,181.21 603.44,197.38 603.64,197.38 603.85,181.21 604.06,194.89 604.26,194.89 604.47,193.03 604.67,196.13 604.88,194.89 605.09,192.40 605.29,189.92 605.50,189.92 605.70,188.05 605.91,191.16 606.12,191.16 606.32,191.16 606.53,195.51 606.73,195.51 606.94,195.51 607.15,195.51 607.35,194.27 607.56,191.16 607.76,191.16 607.97,194.27 608.17,191.16 608.38,191.16 608.59,191.16 608.79,191.16 609.00,191.16 609.20,191.16 609.41,194.27 609.62,190.54 609.82,191.16 610.03,191.16 610.23,191.16 610.44,195.51 610.65,318.61 610.85,193.65 611.06,193.65 611.26,193.03 611.47,196.13 611.68,192.40 611.88,194.89 612.09,193.03 612.29,192.40 612.50,193.03 612.70,193.65 612.91,192.40 613.12,193.03 613.32,196.13 613.53,197.38 613.73,192.40 613.94,196.13 614.15,192.40 614.35,194.89 614.56,196.13 614.76,193.65 614.97,196.13 615.18,192.40 615.38,193.65 615.59,196.13 615.79,193.65 616.00,194.89 616.20,182.46 616.41,192.40 616.62,193.03 616.82,192.40 617.03,196.13 617.23,197.38 617.44,193.03 617.65,198.00 617.85,198.00 618.06,199.24 618.26,198.00 618.47,202.97 618.68,198.00 618.88,198.62 619.09,200.49 619.29,198.00 619.50,201.73 619.71,200.49 619.91,201.73 620.12,198.00 620.32,195.51 620.53,199.24 620.73,198.62 620.94,322.96 621.15,196.13 621.35,192.40 621.56,196.13 621.76,199.87 621.97,191.16 622.18,191.16 622.38,194.89 622.59,192.40 622.79,196.13 623.00,193.03 623.21,193.03 623.41,193.03 623.62,193.65 623.82,189.92 624.03,199.87 624.24,192.40 624.44,189.92 624.65,192.40 624.85,193.65 625.06,193.65 625.26,193.03 625.47,193.03 625.68,193.03 625.88,193.03 626.09,192.40 626.29,193.03 626.50,193.03 626.71,196.13 626.91,189.92 627.12,189.92 627.32,197.38 627.53,196.13 627.74,192.40 627.94,187.43 628.15,193.03 628.35,196.13 628.56,197.38 628.77,191.16 628.97,194.89 629.18,193.03 629.38,187.43 629.59,194.89 629.79,197.38 630.00,196.13 630.21,192.40 630.41,193.03 630.62,192.40 630.82,192.40 631.03,193.03 631.24,324.20 631.44,193.03 631.65,193.03 631.85,193.03 632.06,192.40 632.27,192.40 632.47,192.40 632.68,193.03 632.88,193.65 633.09,193.03 633.29,194.89 633.50,194.89 633.71,196.13 633.91,186.81 634.12,202.97 634.32,202.97 634.53,202.97 634.74,201.73 634.94,200.49 635.15,200.49 635.35,198.62 635.56,198.00 635.77,200.49 635.97,198.00 636.18,200.49 636.38,200.49 636.59,200.49 636.80,198.62 637.00,198.62 637.21,198.62 637.41,205.46 637.62,205.46 637.82,205.46 638.03,205.46 638.24,198.00 638.44,201.73 638.65,198.00 638.85,194.89 639.06,196.13 639.27,192.40 639.47,193.65 639.68,196.13 639.88,193.65 640.09,196.13 640.30,197.38 640.50,193.03 640.71,193.03 640.91,192.40 641.12,192.40 641.33,192.40 641.53,317.99 641.74,193.65 641.94,194.89 642.15,193.65 642.35,193.03 642.56,199.87 642.77,194.89 642.97,196.13 643.18,196.13 643.38,192.40 643.59,189.92 643.80,182.46 644.00,193.65 644.21,193.03 644.41,192.40 644.62,193.03 644.83,199.87 645.03,193.03 645.24,193.65 645.44,193.03 645.65,193.65 645.86,189.92 646.06,193.03 646.27,196.13 646.47,196.13 646.68,196.13 646.88,192.40 647.09,193.03 647.30,193.65 647.50,187.43 647.71,192.40 647.91,189.92 648.12,189.92 648.33,193.03 648.53,193.03 648.74,192.40 648.94,192.40 649.15,194.89 649.36,192.40 649.56,192.40 649.77,194.89 649.97,189.92 650.18,196.13 650.39,194.89 650.59,196.13 650.80,196.13 651.00,196.13 651.21,189.92 651.41,193.03 651.62,193.65 651.83,314.25 652.03,193.03 652.24,193.03 652.44,193.03 652.65,192.40 652.86,192.40 653.06,192.40 653.27,193.03 653.47,193.65 653.68,193.03 653.89,189.92 654.09,189.92 654.30,181.84 654.50,195.51 654.71,195.51 654.91,195.51 655.12,195.51 655.33,194.27 655.53,193.03 655.74,193.03 655.94,191.16 656.15,194.27 656.36,188.05 656.56,190.54 656.77,193.03 656.97,193.03 657.18,193.03 657.39,191.16 657.59,191.16 657.80,191.16 658.00,68.69 658.21,193.03 658.42,193.03 658.62,193.03 658.83,192.40 659.03,192.40 659.24,192.40 659.44,193.03 659.65,193.65 659.86,193.03 660.06,194.89 660.27,194.89 660.47,196.13 660.68,179.35 660.89,195.51 661.09,195.51 661.30,195.51 661.50,194.27 661.71,193.03 661.92,193.03 662.12,191.16 662.33,194.27 662.53,193.03 662.74,190.54 662.95,193.03 663.15,193.03 663.36,193.03 663.56,191.16 663.77,191.16 663.97,191.16 664.18,68.69 664.39,193.03 664.59,194.89 664.80,193.03 665.00,197.38 665.21,188.67 665.42,189.92 665.62,193.03 665.83,193.03 666.03,193.03 666.24,187.43 666.45,196.13 666.65,192.40 666.86,193.03 667.06,182.46 667.27,196.13 667.48,189.92 667.68,193.03 667.89,196.13 668.09,196.13 668.30,196.13 668.50,192.40 668.71,191.16 668.92,194.89 669.12,194.89 669.33,192.40 669.53,196.13 669.74,197.38 669.95,193.03 670.15,199.24 670.36,196.13 670.56,198.00 670.77,201.73 670.98,198.62 671.18,198.00 671.39,198.00 671.59,186.81 671.80,199.24 672.00,193.03 672.21,201.73 672.42,198.62 672.62,201.73 672.83,198.00 673.03,199.24 673.24,198.62 673.45,200.49 673.65,198.62 673.86,198.00 674.06,199.24 674.27,201.73 674.48,323.58 674.68,193.03 674.89,193.03 675.09,193.03 675.30,192.40 675.51,192.40 675.71,192.40 675.92,193.03 676.12,193.65 676.33,193.03 676.53,194.89 676.74,194.89 676.95,196.13 677.15,189.92 677.36,181.21 677.56,181.21 677.77,197.38 677.98,196.13 678.18,194.89 678.39,194.89 678.59,193.03 678.80,196.13 679.01,194.89 679.21,180.59 679.42,193.03 679.62,193.03 679.83,193.03 680.04,191.16 680.24,191.16 680.45,191.16 680.65,68.69 680.86,193.03 681.06,193.65 681.27,197.38 681.48,193.03 681.68,189.92 681.89,191.16 682.09,193.03 682.30,193.03 682.51,193.03 682.71,193.03 682.92,194.89 683.12,193.03 683.33,193.03 683.54,199.87 683.74,193.65 683.95,193.03 684.15,193.03 684.36,196.13 684.57,196.13 684.77,196.13 684.98,192.40 685.18,196.13 685.39,193.03 685.59,193.65 685.80,193.03 686.01,193.03 686.21,193.03 686.42,194.89 686.62,194.89 686.83,193.03 687.04,194.89 687.24,196.13 687.45,201.73 687.65,198.00 687.86,198.62 688.07,198.62 688.27,200.49 688.48,198.00 688.68,193.03 688.89,198.00 689.10,198.62 689.30,198.62 689.51,201.73 689.71,198.00 689.92,193.03 690.12,200.49 690.33,198.62 690.54,205.46 690.74,198.00 690.95,322.96 691.15,193.03 691.36,196.13 691.57,189.92 691.77,196.13 691.98,193.03 692.18,197.38 692.39,192.40 692.60,197.38 692.80,193.65 693.01,189.92 693.21,199.87 693.42,193.03 693.62,194.89 693.83,196.13 694.04,189.92 694.24,189.92 694.45,192.40 694.65,193.03 694.86,197.38 695.07,192.40 695.27,193.03 695.48,193.03 695.68,193.03 695.89,189.92 696.10,189.92 696.30,194.89 696.51,197.38 696.71,193.03 696.92,194.89 697.13,189.92 697.33,197.38 697.54,194.89 697.74,189.92 697.95,197.38 698.15,196.13 698.36,194.89 698.57,193.03 698.77,193.03 698.98,189.92 699.18,196.13 699.39,189.92 699.60,199.87 699.80,193.03 700.01,193.65 700.21,196.13 700.42,193.03 700.63,192.40 700.83,192.40 701.04,192.40 701.24,320.47 701.45,194.89 701.66,193.03 701.86,192.40 702.07,192.40 702.27,193.03 702.48,194.89 702.68,192.40 702.89,193.03 703.10,197.38 703.30,194.89 703.51,194.89 703.71,194.89 703.92,196.13 704.13,180.59 704.33,191.16 704.54,193.03 704.74,195.51 704.95,68.69 705.16,196.13 705.36,193.65 705.57,192.40 705.77,193.65 705.98,199.87 706.19,194.89 706.39,197.38 706.60,199.87 706.80,192.40 707.01,193.03 707.21,193.65 707.42,193.03 707.63,194.89 707.83,196.13 708.04,192.40 708.24,193.03 708.45,192.40 708.66,192.40 708.86,192.40 709.07,193.03 709.27,193.03 709.48,196.13 709.69,192.40 709.89,193.03 710.10,193.03 710.30,192.40 710.51,192.40 710.71,196.13 710.92,192.40 711.13,192.40 711.33,196.13 711.54,196.13 711.74,192.40 711.95,196.13 712.16,196.13 712.36,193.03 712.57,201.73 712.77,195.51 712.98,198.00 713.19,201.73 713.39,202.97 713.60,198.62 713.80,186.81 714.01,202.97 714.22,202.97 714.42,201.73 714.63,198.00 714.83,201.73 715.04,198.00 715.24,322.34 715.45,189.92 715.66,192.40 715.86,192.40 716.07,199.87 716.27,192.40 716.48,189.92 716.69,189.92 716.89,194.89 717.10,192.40 717.30,189.92 717.51,193.03 717.72,196.13 717.92,192.40 718.13,189.92 718.33,183.70 718.54,196.13 718.75,196.13 718.95,194.89 719.16,196.13 719.36,181.21 719.57,196.13 719.77,193.65 719.98,196.13 720.19,193.65 720.39,196.13 720.60,197.38 720.80,189.92 721.01,197.38 721.22,193.03 721.42,193.03 721.63,193.03 721.83,192.40 722.04,194.89 722.25,193.03 722.45,193.03 722.66,193.03 722.86,193.03 723.07,193.03 723.28,193.03 723.48,189.92 723.69,196.13 723.89,193.03 724.10,193.03 724.30,193.03 724.51,193.03 724.72,192.40 724.92,192.40 725.13,192.40 725.33,193.65 725.54,317.36 725.75,197.38 725.95,194.89 726.16,197.38 726.36,191.16 726.57,189.92 726.78,193.65 726.98,193.65 727.19,192.40 727.39,197.38 727.60,189.92 727.81,196.13 728.01,196.13 728.22,197.38 728.42,196.13 728.63,193.03 728.83,194.89 729.04,196.13 729.25,192.40 729.45,196.13 729.66,193.65 729.86,193.03 730.07,193.03 730.28,196.13 730.48,192.40 730.69,196.13 730.89,196.13 731.10,196.13 731.31,188.67 731.51,191.16 731.72,196.13 731.92,196.13 732.13,196.13 732.33,193.03 732.54,199.87 732.75,192.40 732.95,196.13 733.16,193.03 733.36,193.03 733.57,192.40 733.78,194.89 733.98,191.16 734.19,201.73 734.39,202.97 734.60,198.00 734.81,202.97 735.01,198.62 735.22,199.24 735.42,198.00 735.63,202.97 735.84,322.34 736.04,192.40 736.25,188.67 736.45,194.89 736.66,196.13 736.86,194.89 737.07,193.03 737.28,193.03 737.48,193.03 737.69,193.65 737.89,193.03 738.10,194.89 738.31,194.89 738.51,196.13 738.72,193.03 738.92,189.92 739.13,192.40 739.34,193.03 739.54,192.40 739.75,191.16 739.95,193.03 740.16,193.03 740.37,192.40 740.57,193.65 740.78,193.65 740.98,194.89 741.19,192.40 741.39,182.46 741.60,194.89 741.81,196.13 742.01,193.65 742.22,196.13 742.42,193.65 742.63,192.40 742.84,192.40 743.04,192.40 743.25,192.40 743.45,187.43 743.66,191.16 743.87,194.89 744.07,192.40 744.28,193.03 744.48,197.38 744.69,197.38 744.90,193.65 745.10,192.40 745.31,68.69 745.51,194.89 745.72,192.40 745.92,199.87 746.13,192.40 746.34,192.40 746.54,192.40 746.75,193.03 746.95,193.65 747.16,192.40 747.37,193.65 747.57,193.03 747.78,189.92 747.98,192.40 748.19,193.03 748.40,193.65 748.60,193.03 748.81,183.70 749.01,196.13 749.22,199.87 749.42,192.40 749.63,192.40 749.84,197.38 750.04,192.40 750.25,196.13 750.45,193.03 750.66,193.65 750.87,199.87 751.07,193.65 751.28,193.03 751.48,189.92 751.69,192.40 751.90,192.40 752.10,196.13 752.31,197.38 752.51,192.40 752.72,194.89 752.93,193.65 753.13,199.87 753.34,193.03 753.54,197.38 753.75,192.40 753.95,194.89 754.16,196.13 754.37,189.92 754.57,196.13 754.78,192.40 754.98,192.40 755.19,189.92 755.40,196.13 755.60,320.47 755.81,193.65 756.01,193.03 756.22,196.13 756.43,199.87 756.63,193.03 756.84,193.03 757.04,193.65 757.25,196.13 757.46,192.40 757.66,193.65 757.87,196.13 758.07,194.89 758.28,194.89 758.48,196.13 758.69,196.13 758.90,193.03 759.10,192.40 759.31,194.89 759.51,192.40 759.72,193.03 759.93,193.65 760.13,193.65 760.34,193.65 760.54,192.40 760.75,193.03 760.96,192.40 761.16,193.65 761.37,196.13 761.57,193.03 761.78,196.13 761.99,193.65 762.19,192.40 762.40,192.40 762.60,193.03 762.81,193.65 763.01,192.40 763.22,193.03 763.43,193.03 763.63,192.40 763.84,192.40 764.04,193.03 764.25,193.03 764.46,197.38 764.66,193.65 764.87,192.40 765.07,193.65 765.28,196.13 765.49,194.89 765.69,193.03 765.90,320.47 766.10,193.65 766.31,191.16 766.52,194.89 766.72,193.03 766.93,196.13 767.13,193.03 767.34,192.40 767.54,193.03 767.75,196.13 767.96,193.65 768.16,193.03 768.37,193.03 768.57,193.65 768.78,193.65 768.99,194.89 769.19,192.40 769.40,193.65 769.60,197.38 769.81,192.40 770.02,193.65 770.22,193.03 770.43,196.13 770.63,193.03 770.84,196.13 771.04,196.13 771.25,192.40 771.46,193.03 771.66,192.40 771.87,193.03 772.07,193.03 772.28,196.13 772.49,194.89 772.69,193.03 772.90,192.40 773.10,193.03 773.31,197.38 773.52,193.03 773.72,202.97 773.93,201.73 774.13,199.24 774.34,200.49 774.55,201.73 774.75,198.00 774.96,198.62 775.16,198.00 775.37,199.24 775.57,200.49 775.78,200.49 775.99,199.24 776.19,327.31 776.40,192.40 776.60,193.03 776.81,193.03 777.02,192.40 777.22,196.13 777.43,192.40 777.63,192.40 777.84,193.65 778.05,193.03 778.25,192.40 778.46,193.03 778.66,193.03 778.87,192.40 779.08,197.38 779.28,192.40 779.49,193.03 779.69,196.13 779.90,193.03 780.10,192.40 780.31,191.16 780.52,194.89 780.72,197.38 780.93,193.03 781.13,193.03 781.34,193.03 781.55,193.03 781.75,192.40 781.96,193.03 782.16,192.40 782.37,192.40 782.58,193.65 782.78,196.13 782.99,192.40 783.19,192.40 783.40,196.13 783.61,197.38 783.81,197.38 784.02,317.36 784.22,192.40 784.43,193.65 784.63,193.65 784.84,193.65 785.05,189.92 785.25,182.46 785.46,192.40 785.66,196.13 785.87,192.40 786.08,191.16 786.28,193.03 786.49,187.43 786.69,193.03 786.90,191.16 787.11,192.40 787.31,194.89 787.52,193.03 787.72,193.03 787.93,193.65 788.13,192.40 788.34,194.89 788.55,196.13 788.75,199.87 788.96,192.40 789.16,193.03 789.37,192.40 789.58,196.13 789.78,193.03 789.99,193.03 790.19,197.38 790.40,192.40 790.61,198.62 790.81,202.97 791.02,199.24 791.22,201.73 791.43,194.27 791.64,201.73 791.84,200.49 792.05,199.24 792.25,198.00 792.46,201.73 792.66,198.00 792.87,198.62 793.08,200.49 793.28,321.09 793.49,193.65 793.69,194.89 793.90,196.13 794.11,194.89 794.31,189.92 794.52,197.38 794.72,194.89 794.93,193.03 795.14,193.65 795.34,197.38 795.55,196.13 795.75,197.38 795.96,193.65 796.17,189.92 796.37,193.65 796.58,193.03 796.78,193.03 796.99,194.89 797.19,194.89 797.40,193.65 797.61,192.40 797.81,194.89 798.02,194.89 798.22,192.40 798.43,197.38 798.64,194.89 798.84,193.03 799.05,193.03 799.25,193.03 799.46,192.40 799.67,193.65 799.87,193.65 800.08,193.65 800.28,193.65 800.49,199.87 800.70,193.65 800.90,192.40 801.11,194.89 801.31,192.40 801.52,196.13 801.72,192.40 801.93,197.38 802.14,196.13 802.34,196.13 802.55,192.40 802.75,193.03 802.96,193.65 803.17,194.89 803.37,198.00 803.58,322.34 803.78,197.38 803.99,192.40 804.20,194.89 804.40,192.40 804.61,192.40 804.81,192.40 805.02,193.03 805.23,193.03 805.43,194.89 805.64,191.16 805.84,196.13 806.05,193.03 806.25,193.65 806.46,194.89 806.67,196.13 806.87,194.89 807.08,196.13 807.28,193.03 807.49,194.89 807.70,199.87 807.90,194.89 808.11,192.40 808.31,193.03 808.52,192.40 808.73,196.13 808.93,193.03 809.14,193.03 809.34,192.40 809.55,193.03 809.75,193.65 809.96,196.13 810.17,193.65 810.37,196.13 810.58,196.13 810.78,193.65 810.99,191.16 811.20,197.38 811.40,193.03 811.61,193.03 811.81,196.13 812.02,193.03 812.23,193.65 812.43,196.13 812.64,188.67 812.84,192.40 813.05,192.40 813.26,193.03 813.46,192.40 813.67,194.89 813.87,316.74 814.08,194.89 814.28,188.67 814.49,189.92 814.70,197.38 814.90,189.92 815.11,193.03 815.31,196.13 815.52,194.89 815.73,193.03 815.93,191.16 816.14,194.89 816.34,193.03 816.55,196.13 816.76,193.65 816.96,196.13 817.17,193.03 817.37,193.03 817.58,193.65 817.79,193.03 817.99,193.65 818.20,193.03 818.40,193.03 818.61,192.40 818.81,183.70 819.02,196.13 819.23,191.16 819.43,196.13 819.64,197.38 819.84,196.13 820.05,193.03 820.26,196.13 820.46,193.03 820.67,193.65 820.87,193.03 821.08,196.13 821.29,193.65 821.49,199.87 821.70,193.03 821.90,193.65 822.11,194.89 822.32,197.38 822.52,193.03 822.73,193.65 822.93,192.40 823.14,193.03 823.34,193.03 823.55,193.03 823.76,196.13 823.96,196.13 824.17,316.74 824.37,193.03 824.58,193.03 824.79,193.03 824.99,192.40 825.20,192.40 825.40,192.40 825.61,193.03 825.82,193.65 826.02,193.03 826.23,194.89 826.43,194.89 826.64,196.13 826.84,197.38 827.05,202.97 827.26,202.97 827.46,202.97 827.67,201.73 827.87,200.49 828.08,200.49 828.29,198.62 828.49,198.00 828.70,200.49 828.90,198.00 829.11,200.49 829.32,200.49 829.52,200.49 829.73,198.62 829.93,198.62 830.14,198.62 830.35,205.46 830.55,205.46 830.76,205.46 830.96,205.46 831.17,201.73 831.37,193.65 831.58,193.65 831.79,194.89 831.99,192.40 832.20,192.40 832.40,193.03 832.61,193.65 832.82,196.13 833.02,193.65 833.23,193.03 833.43,193.65 833.64,193.03 833.85,192.40 834.05,196.13 834.26,193.03 834.46,317.36 834.67,193.65 834.88,193.03 835.08,192.40 835.29,196.13 835.49,193.03 835.70,193.03 835.90,193.03 836.11,196.13 836.32,197.38 836.52,192.40 836.73,193.65 836.93,192.40 837.14,196.13 837.35,193.65 837.55,192.40 837.76,197.38 837.96,196.13 838.17,197.38 838.38,192.40 838.58,193.03 838.79,192.40 838.99,193.03 839.20,193.03 839.41,196.13 839.61,193.03 839.82,197.38 840.02,192.40 840.23,192.40 840.43,196.13 840.64,199.87 840.85,193.03 841.05,194.89 841.26,192.40 841.46,198.00 841.67,198.00 841.88,198.62 842.08,199.24 842.29,195.51 842.49,202.97 842.70,195.51 842.91,198.00 843.11,201.73 843.32,200.49 843.52,198.00 843.73,199.24 843.94,198.00 844.14,202.97 844.35,200.49 844.55,202.97 844.76,317.36" fill="none" stroke="#2f6fed" stroke-width="2.5" stroke-linejoin="round" stroke-linecap="round" />
  <line x1="738" y1="68" x2="774" y2="68" stroke="#2f6fed" stroke-width="3" /><text x="782" y="72" font-size="13" fill="#263241">step reward</text>
</svg>
