<svg xmlns="http://www.w3.org/2000/svg" width="960" height="420" viewBox="0 0 960 420">
  <rect width="100%" height="100%" fill="#ffffff" />
  <text x="72" y="28" font-size="22" font-weight="700" fill="#17202a">Recovery Success Rate</text>
  <line x1="72" y1="348.00" x2="902" y2="348.00" stroke="#e7eaf0" stroke-width="1" /><text x="60" y="352.00" text-anchor="end" font-size="12" fill="#526071">0.14</text><line x1="72" y1="288.00" x2="902" y2="288.00" stroke="#e7eaf0" stroke-width="1" /><text x="60" y="292.00" text-anchor="end" font-size="12" fill="#526071">0.32</text><line x1="72" y1="228.00" x2="902" y2="228.00" stroke="#e7eaf0" stroke-width="1" /><text x="60" y="232.00" text-anchor="end" font-size="12" fill="#526071">0.51</text><line x1="72" y1="168.00" x2="902" y2="168.00" stroke="#e7eaf0" stroke-width="1" /><text x="60" y="172.00" text-anchor="end" font-size="12" fill="#526071">0.69</text><line x1="72" y1="108.00" x2="902" y2="108.00" stroke="#e7eaf0" stroke-width="1" /><text x="60" y="112.00" text-anchor="end" font-size="12" fill="#526071">0.88</text><line x1="72" y1="48.00" x2="902" y2="48.00" stroke="#e7eaf0" stroke-width="1" /><text x="60" y="52.00" text-anchor="end" font-size="12" fill="#526071">1.06</text>
  <line x1="72" y1="48" x2="72" y2="348" stroke="#2f3a45" stroke-width="1.4" />
  <line x1="72" y1="348" x2="902" y2="348" stroke="#2f3a45" stroke-width="1.4" />
  <text x="487.0" y="392" text-anchor="middle" font-size="14" fill="#344052">Episode</text>
  <text x="18" y="198.0" text-anchor="middle" font-size="14" fill="#344052" transform="rotate(-90 18 198.0)">Rolling success rate</text>
  <text x="72" y="370" text-anchor="middle" font-size="12" fill="#526071">-5</text>
  <text x="902" y="370" text-anchor="middle" font-size="12" fill="#526071">86</text>
  <polyline points="129.24,68.69 138.30,68.69 147.36,68.69 156.41,149.51 165.47,198.00 174.53,230.33 183.58,253.42 192.64,270.74 201.70,248.29 210.76,262.66 219.81,274.41 228.87,257.27 237.93,267.63 246.98,276.51 256.04,262.66 265.10,250.53 274.16,239.84 283.21,248.29 292.27,255.85 301.33,262.66 310.38,278.82 319.44,294.98 328.50,311.15 337.56,311.15 346.61,311.15 355.67,311.15 364.73,311.15 373.79,311.15 382.84,327.31 391.90,311.15 400.96,311.15 410.01,311.15 419.07,311.15 428.13,311.15 437.19,311.15 446.24,311.15 455.30,311.15 464.36,294.98 473.41,294.98 482.47,294.98 491.53,294.98 500.59,294.98 509.64,278.82 518.70,262.66 527.76,246.49 536.81,246.49 545.87,246.49 554.93,230.33 563.99,214.16 573.04,230.33 582.10,214.16 591.16,230.33 600.21,230.33 609.27,230.33 618.33,246.49 627.39,262.66 636.44,278.82 645.50,294.98 654.56,294.98 663.62,278.82 672.67,262.66 681.73,262.66 690.79,262.66 699.84,278.82 708.90,294.98 717.96,278.82 727.02,278.82 736.07,294.98 745.13,311.15 754.19,294.98 763.24,311.15 772.30,311.15 781.36,311.15 790.42,311.15 799.47,311.15 808.53,311.15 817.59,311.15 826.64,311.15 835.70,311.15 844.76,327.31" fill="none" stroke="#1f8a99" stroke-width="2.5" stroke-linejoin="round" stroke-linecap="round" />
  <line x1="738" y1="68" x2="774" y2="68" stroke="#1f8a99" stroke-width="3" /><text x="782" y="72" font-size="13" fill="#263241">20 episode rate</text>
</svg>
